%TF.GenerationSoftware,KiCad,Pcbnew,10.0.6*%
%TF.CreationDate,2026-10-05T21:23:26-03:00*%
%TF.ProjectId,ReceptorASV,52656365-7074-46f7-9241-53562e6b6963,rev?*%
%TF.SameCoordinates,Original*%
%TF.FileFunction,Soldermask,Bot*%
%TF.FilePolarity,Negative*%
%FSLAX46Y46*%
G04 Gerber Fmt 4.6, Leading zero omitted, Abs format (unit mm)*
G04 Created by KiCad (PCBNEW 10.0.6) date 2026-10-05 21:23:26*
%MOMM*%
%LPD*%
G01*
G04 APERTURE LIST*
G04 Aperture macros list*
%AMRoundRect*
0 Rectangle with rounded corners*
0 $1 Rounding radius*
0 $2 $3 $4 $5 $6 $7 $8 $9 X,Y pos of 4 corners*
0 Add a 4 corners polygon primitive as box body*
4,1,4,$2,$3,$4,$5,$6,$7,$8,$9,$2,$3,0*
0 Add four circle primitives for the rounded corners*
1,1,$1+$1,$2,$3*
1,1,$1+$1,$4,$5*
1,1,$1+$1,$6,$7*
1,1,$1+$1,$8,$9*
0 Add four rect primitives between the rounded corners*
20,1,$1+$1,$2,$3,$4,$5,0*
20,1,$1+$1,$4,$5,$6,$7,0*
20,1,$1+$1,$6,$7,$8,$9,0*
20,1,$1+$1,$8,$9,$2,$3,0*%
G04 Aperture macros list end*
%ADD10R,1.905000X2.000000*%
%ADD11O,1.905000X2.000000*%
%ADD12RoundRect,0.250000X-1.050000X1.050000X-1.050000X-1.050000X1.050000X-1.050000X1.050000X1.050000X0*%
%ADD13C,2.600000*%
%ADD14R,1.500000X2.300000*%
%ADD15O,1.500000X2.300000*%
%ADD16C,1.600000*%
%ADD17RoundRect,0.250000X-0.550000X-0.550000X0.550000X-0.550000X0.550000X0.550000X-0.550000X0.550000X0*%
%ADD18C,1.000000*%
%ADD19C,3.200000*%
%ADD20RoundRect,0.250000X-1.350000X-1.350000X1.350000X-1.350000X1.350000X1.350000X-1.350000X1.350000X0*%
%ADD21RoundRect,0.250000X0.550000X0.550000X-0.550000X0.550000X-0.550000X-0.550000X0.550000X-0.550000X0*%
%ADD22C,2.050000*%
%ADD23C,2.250000*%
%ADD24RoundRect,0.250000X0.550000X-0.550000X0.550000X0.550000X-0.550000X0.550000X-0.550000X-0.550000X0*%
%ADD25C,2.700000*%
%ADD26C,3.000000*%
%ADD27R,1.700000X1.700000*%
%ADD28C,1.700000*%
%ADD29RoundRect,0.250001X-0.949999X-0.949999X0.949999X-0.949999X0.949999X0.949999X-0.949999X0.949999X0*%
%ADD30C,2.400000*%
%ADD31RoundRect,0.102000X-0.780000X-0.780000X0.780000X-0.780000X0.780000X0.780000X-0.780000X0.780000X0*%
%ADD32C,1.764000*%
%ADD33RoundRect,0.230000X1.020000X0.270000X-1.020000X0.270000X-1.020000X-0.270000X1.020000X-0.270000X0*%
%ADD34RoundRect,0.230000X0.270000X-1.020000X0.270000X1.020000X-0.270000X1.020000X-0.270000X-1.020000X0*%
G04 APERTURE END LIST*
D10*
%TO.C,U2*%
X57000000Y-63000000D03*
D11*
X59540000Y-63000000D03*
X62080000Y-63000000D03*
%TD*%
D12*
%TO.C,J3*%
X132000000Y-91000000D03*
D13*
X132000000Y-96080000D03*
X132000000Y-101160000D03*
%TD*%
D14*
%TO.C,U1*%
X95000000Y-38000000D03*
D15*
X97540000Y-38000000D03*
X100080000Y-38000000D03*
%TD*%
D16*
%TO.C,C7*%
X42000000Y-68600000D03*
X42000000Y-63600000D03*
%TD*%
%TO.C,C5*%
X62080000Y-67000000D03*
X57080000Y-67000000D03*
%TD*%
D17*
%TO.C,C1*%
X77000000Y-35000000D03*
D16*
X79500000Y-35000000D03*
%TD*%
D17*
%TO.C,C2*%
X93000000Y-44000000D03*
D16*
X95000000Y-44000000D03*
%TD*%
D18*
%TO.C,W2*%
X39606900Y-65248800D03*
X84885200Y-77813000D03*
%TD*%
D19*
%TO.C,H3*%
X25000000Y-105000000D03*
%TD*%
D20*
%TO.C,D1*%
X80000000Y-26000000D03*
D19*
X95240000Y-26000000D03*
%TD*%
D12*
%TO.C,J2*%
X132000000Y-73000000D03*
D13*
X132000000Y-78080000D03*
X132000000Y-83160000D03*
%TD*%
D21*
%TO.C,C3*%
X106000000Y-47600000D03*
D16*
X104000000Y-47600000D03*
%TD*%
D22*
%TO.C,J4*%
X27000000Y-46000000D03*
D23*
X24460000Y-43460000D03*
X24460000Y-48540000D03*
X29540000Y-43460000D03*
X29540000Y-48540000D03*
%TD*%
D24*
%TO.C,C8*%
X47000000Y-68600000D03*
D16*
X47000000Y-66600000D03*
%TD*%
D25*
%TO.C,F1*%
X111250000Y-26000000D03*
D26*
X100000000Y-26000000D03*
X122500000Y-26000000D03*
%TD*%
D21*
%TO.C,C6*%
X59540000Y-55200000D03*
D16*
X57540000Y-55200000D03*
%TD*%
D19*
%TO.C,H4*%
X120000000Y-105000000D03*
%TD*%
D21*
%TO.C,C4*%
X82000000Y-103000000D03*
D16*
X80000000Y-103000000D03*
%TD*%
D18*
%TO.C,W1*%
X39478500Y-75878200D03*
X84809500Y-80782100D03*
%TD*%
D27*
%TO.C,JP1*%
X103000000Y-43000000D03*
D28*
X105540000Y-43000000D03*
%TD*%
D16*
%TO.C,R1*%
X48000000Y-83500000D03*
X48000000Y-75880000D03*
%TD*%
D18*
%TO.C,W4*%
X39478500Y-71771800D03*
X114865100Y-61930000D03*
%TD*%
D29*
%TO.C,D2*%
X77000000Y-44000000D03*
D30*
X87160000Y-44000000D03*
%TD*%
D18*
%TO.C,W3*%
X39478500Y-66988200D03*
X84809500Y-75702100D03*
%TD*%
D31*
%TO.C,U3*%
X87300000Y-58140000D03*
D32*
X87300000Y-60680000D03*
X87300000Y-63220000D03*
X87300000Y-65760000D03*
X87300000Y-68300000D03*
X87300000Y-70840000D03*
X87300000Y-73380000D03*
X87300000Y-75920000D03*
X87300000Y-78460000D03*
X87300000Y-81000000D03*
X87300000Y-83540000D03*
X87300000Y-86080000D03*
X87300000Y-88620000D03*
X87300000Y-91160000D03*
X87300000Y-93700000D03*
X87300000Y-96240000D03*
X87300000Y-98780000D03*
X87300000Y-101320000D03*
X87300000Y-103860000D03*
X112700000Y-58140000D03*
X112700000Y-60680000D03*
X112700000Y-63220000D03*
X112700000Y-65760000D03*
X112700000Y-68300000D03*
X112700000Y-70840000D03*
X112700000Y-73380000D03*
X112700000Y-75920000D03*
X112700000Y-78460000D03*
X112700000Y-81000000D03*
X112700000Y-83540000D03*
X112700000Y-86080000D03*
X112700000Y-88620000D03*
X112700000Y-91160000D03*
X112700000Y-93700000D03*
X112700000Y-96240000D03*
X112700000Y-98780000D03*
X112700000Y-101320000D03*
X112700000Y-103860000D03*
%TD*%
D19*
%TO.C,H1*%
X25000000Y-25000000D03*
%TD*%
D16*
%TO.C,R2*%
X55000000Y-83500000D03*
X55000000Y-75880000D03*
%TD*%
D19*
%TO.C,H2*%
X136000000Y-42000000D03*
%TD*%
D27*
%TO.C,JP2*%
X22237000Y-60000000D03*
D28*
X22237000Y-57460000D03*
%TD*%
D12*
%TO.C,J1*%
X130000000Y-28000000D03*
D13*
X130000000Y-33080000D03*
%TD*%
D33*
%TO.C,U4*%
X37785000Y-64300000D03*
X37785000Y-65570000D03*
X37785000Y-66840000D03*
X37785000Y-68110000D03*
X37785000Y-69380000D03*
X37785000Y-70650000D03*
X37785000Y-71920000D03*
X37785000Y-73190000D03*
X37785000Y-74460000D03*
X37785000Y-75730000D03*
X37785000Y-77000000D03*
X37785000Y-78270000D03*
D34*
X36615000Y-80329000D03*
X35345000Y-80329000D03*
D33*
X22237000Y-65570000D03*
X22237000Y-64300000D03*
%TD*%
M02*
