M48
; DRILL file KiCad 10.0.6 date 2026-10-05T21:23:26
; FORMAT={-:-/ absolute / metric / decimal}
; #@! TF.CreationDate,2026-10-05T21:23:26-03:00
; #@! TF.GenerationSoftware,Kicad,Pcbnew,10.0.6
; #@! TF.FileFunction,MixedPlating,1,2
FMAT,2
METRIC
; #@! TA.AperFunction,Plated,PTH,ComponentDrill
T1C0.600
; #@! TA.AperFunction,Plated,PTH,ComponentDrill
T2C0.800
; #@! TA.AperFunction,Plated,PTH,ComponentDrill
T3C1.000
; #@! TA.AperFunction,Plated,PTH,ComponentDrill
T4C1.040
; #@! TA.AperFunction,Plated,PTH,ComponentDrill
T5C1.100
; #@! TA.AperFunction,Plated,PTH,ComponentDrill
T6C1.200
; #@! TA.AperFunction,Plated,PTH,ComponentDrill
T7C1.300
; #@! TA.AperFunction,Plated,PTH,ComponentDrill
T8C1.500
; #@! TA.AperFunction,Plated,PTH,ComponentDrill
T9C1.600
; #@! TA.AperFunction,Plated,PTH,ComponentDrill
T10C1.700
; #@! TA.AperFunction,NonPlated,NPTH,ComponentDrill
T11C2.700
; #@! TA.AperFunction,NonPlated,NPTH,ComponentDrill
T12C3.200
%
G90
G05
T1
X39.478Y-66.988
X39.478Y-71.772
X39.478Y-75.878
X39.607Y-65.249
X84.809Y-75.702
X84.809Y-80.782
X84.885Y-77.813
X114.865Y-61.93
T2
X42.0Y-63.6
X42.0Y-68.6
X47.0Y-66.6
X47.0Y-68.6
X48.0Y-75.88
X48.0Y-83.5
X55.0Y-75.88
X55.0Y-83.5
X57.08Y-67.0
X57.54Y-55.2
X59.54Y-55.2
X62.08Y-67.0
X77.0Y-35.0
X79.5Y-35.0
X80.0Y-103.0
X82.0Y-103.0
X93.0Y-44.0
X95.0Y-44.0
X104.0Y-47.6
X106.0Y-47.6
T3
X22.237Y-57.46
X22.237Y-60.0
X95.0Y-38.0
X97.54Y-38.0
X100.08Y-38.0
X103.0Y-43.0
X105.54Y-43.0
T4
X87.3Y-58.14
X87.3Y-60.68
X87.3Y-63.22
X87.3Y-65.76
X87.3Y-68.3
X87.3Y-70.84
X87.3Y-73.38
X87.3Y-75.92
X87.3Y-78.46
X87.3Y-81.0
X87.3Y-83.54
X87.3Y-86.08
X87.3Y-88.62
X87.3Y-91.16
X87.3Y-93.7
X87.3Y-96.24
X87.3Y-98.78
X87.3Y-101.32
X87.3Y-103.86
X112.7Y-58.14
X112.7Y-60.68
X112.7Y-63.22
X112.7Y-65.76
X112.7Y-68.3
X112.7Y-70.84
X112.7Y-73.38
X112.7Y-75.92
X112.7Y-78.46
X112.7Y-81.0
X112.7Y-83.54
X112.7Y-86.08
X112.7Y-88.62
X112.7Y-91.16
X112.7Y-93.7
X112.7Y-96.24
X112.7Y-98.78
X112.7Y-101.32
X112.7Y-103.86
T5
X57.0Y-63.0
X59.54Y-63.0
X62.08Y-63.0
T6
X77.0Y-44.0
X87.16Y-44.0
T7
X100.0Y-26.0
X122.5Y-26.0
X130.0Y-28.0
X130.0Y-33.08
X132.0Y-73.0
X132.0Y-78.08
X132.0Y-83.16
X132.0Y-91.0
X132.0Y-96.08
X132.0Y-101.16
T8
X27.0Y-46.0
T9
X80.0Y-26.0
X95.24Y-26.0
T10
X24.46Y-43.46
X24.46Y-48.54
X29.54Y-43.46
X29.54Y-48.54
T11
X111.25Y-26.0
T12
X25.0Y-25.0
X25.0Y-105.0
X120.0Y-105.0
X136.0Y-42.0
M30
