<?xml version="1.0" standalone="no"?>
 <!DOCTYPE svg PUBLIC "-//W3C//DTD SVG 1.1//EN" 
 "http://www.w3.org/Graphics/SVG/1.1/DTD/svg11.dtd"> 
<svg
  xmlns:svg="http://www.w3.org/2000/svg"
  xmlns="http://www.w3.org/2000/svg"
  xmlns:xlink="http://www.w3.org/1999/xlink"
  xmlns:inkscape="http://www.inkscape.org/namespaces/inkscape"
  version="1.1"
  width="32.512000mm" height="58.674000mm" viewBox="0.000000 0.000000 32.512000 58.674000">
<title>SVG Image created as ESPRESSIF_ESP32-DEVKITC-32UE.svg date 2026-10-05T17:28:49 </title>
  <desc>Image generated by PCBNEW </desc>
<g style="fill:#000000; fill-opacity:1.000000;stroke:#000000; stroke-opacity:1.000000;
stroke-linecap:round; stroke-linejoin:round;"
 transform="translate(0 0) scale(1 1)">
<path style="fill:#C83434; fill-opacity:1.000000; stroke:none;fill-rule:evenodd;"
d="M 2.220000,10.403250
2.220000,8.843250
3.780000,8.843250
3.780000,10.403250
Z" /> 
</g>
<g style="fill:#C83434; fill-opacity:1.000000; stroke:none;">
<circle cx="3.000000" cy="12.163250" r="0.780000" /> 
<circle cx="3.000000" cy="14.703250" r="0.780000" /> 
<circle cx="3.000000" cy="17.243250" r="0.780000" /> 
<circle cx="3.000000" cy="19.783250" r="0.780000" /> 
<circle cx="3.000000" cy="22.323250" r="0.780000" /> 
<circle cx="3.000000" cy="24.863250" r="0.780000" /> 
<circle cx="3.000000" cy="27.403250" r="0.780000" /> 
<circle cx="3.000000" cy="29.943250" r="0.780000" /> 
<circle cx="3.000000" cy="32.483250" r="0.780000" /> 
<circle cx="3.000000" cy="35.023250" r="0.780000" /> 
<circle cx="3.000000" cy="37.563250" r="0.780000" /> 
<circle cx="3.000000" cy="40.103250" r="0.780000" /> 
<circle cx="3.000000" cy="42.643250" r="0.780000" /> 
<circle cx="3.000000" cy="45.183250" r="0.780000" /> 
<circle cx="3.000000" cy="47.723250" r="0.780000" /> 
<circle cx="3.000000" cy="50.263250" r="0.780000" /> 
<circle cx="3.000000" cy="52.803250" r="0.780000" /> 
<circle cx="3.000000" cy="55.343250" r="0.780000" /> 
<circle cx="28.400000" cy="9.623250" r="0.780000" /> 
<circle cx="28.400000" cy="12.163250" r="0.780000" /> 
<circle cx="28.400000" cy="14.703250" r="0.780000" /> 
<circle cx="28.400000" cy="17.243250" r="0.780000" /> 
<circle cx="28.400000" cy="19.783250" r="0.780000" /> 
<circle cx="28.400000" cy="22.323250" r="0.780000" /> 
<circle cx="28.400000" cy="24.863250" r="0.780000" /> 
<circle cx="28.400000" cy="27.403250" r="0.780000" /> 
<circle cx="28.400000" cy="29.943250" r="0.780000" /> 
<circle cx="28.400000" cy="32.483250" r="0.780000" /> 
<circle cx="28.400000" cy="35.023250" r="0.780000" /> 
<circle cx="28.400000" cy="37.563250" r="0.780000" /> 
<circle cx="28.400000" cy="40.103250" r="0.780000" /> 
<circle cx="28.400000" cy="42.643250" r="0.780000" /> 
<circle cx="28.400000" cy="45.183250" r="0.780000" /> 
<circle cx="28.400000" cy="47.723250" r="0.780000" /> 
<circle cx="28.400000" cy="50.263250" r="0.780000" /> 
<circle cx="28.400000" cy="52.803250" r="0.780000" /> 
<circle cx="28.400000" cy="55.343250" r="0.780000" /> 
</g>
<g style="fill:none; 
stroke:#F2EDA1; stroke-width:0.150000; stroke-opacity:1; 
stroke-linecap:round; stroke-linejoin:round;">
<text x="4.875000" y="1.348250"
textLength="4.535715" font-size="1.333333" lengthAdjust="spacingAndGlyphs"
text-anchor="middle" opacity="0" stroke-opacity="0">REF**</text>
<g class="stroked-text"><desc>REF**</desc>
<path d="M3.541667 1.303070
L3.208334 0.826879
" />
<path d="M2.970239 1.303070
L2.970239 0.303070
" />
<path d="M2.970239 0.303070
L3.351191 0.303070
" />
<path d="M3.351191 0.303070
L3.446429 0.350689
" />
<path d="M3.446429 0.350689
L3.494048 0.398308
" />
<path d="M3.494048 0.398308
L3.541667 0.493546
" />
<path d="M3.541667 0.493546
L3.541667 0.636403
" />
<path d="M3.541667 0.636403
L3.494048 0.731641
" />
<path d="M3.494048 0.731641
L3.446429 0.779260
" />
<path d="M3.446429 0.779260
L3.351191 0.826879
" />
<path d="M3.351191 0.826879
L2.970239 0.826879
" />
<path d="M3.970239 0.779260
L4.303572 0.779260
" />
<path d="M4.446429 1.303070
L3.970239 1.303070
" />
<path d="M3.970239 1.303070
L3.970239 0.303070
" />
<path d="M3.970239 0.303070
L4.446429 0.303070
" />
<path d="M5.208334 0.779260
L4.875001 0.779260
" />
<path d="M4.875001 1.303070
L4.875001 0.303070
" />
<path d="M4.875001 0.303070
L5.351191 0.303070
" />
<path d="M5.875001 0.303070
L5.875001 0.541165
" />
<path d="M5.636906 0.445927
L5.875001 0.541165
" />
<path d="M5.875001 0.541165
L6.113096 0.445927
" />
<path d="M5.732144 0.731641
L5.875001 0.541165
" />
<path d="M5.875001 0.541165
L6.017858 0.731641
" />
<path d="M6.636906 0.303070
L6.636906 0.541165
" />
<path d="M6.398811 0.445927
L6.636906 0.541165
" />
<path d="M6.636906 0.541165
L6.875001 0.445927
" />
<path d="M6.494049 0.731641
L6.636906 0.541165
" />
<path d="M6.636906 0.541165
L6.779763 0.731641
" />
</g></g>
<g style="fill:none; 
stroke:#F2EDA1; stroke-width:0.127000; stroke-opacity:1; 
stroke-linecap:round; stroke-linejoin:round;">
<path d="M1.750000 2.183250
L29.650000 2.183250
" />
<path d="M29.650000 2.183250
L29.650000 56.583250
" />
<path d="M29.650000 56.583250
L1.750000 56.583250
" />
<path d="M1.750000 56.583250
L1.750000 2.183250
" />
</g>
<g style="fill:none; 
stroke:#F2EDA1; stroke-width:0.200000; stroke-opacity:1; 
stroke-linecap:round; stroke-linejoin:round;">
<circle cx="0.200000" cy="9.483250" r="0.100000" /> 
</g>
<g style="fill:none; 
stroke:#AFAFAF; stroke-width:0.150000; stroke-opacity:1; 
stroke-linecap:round; stroke-linejoin:round;">
<text x="19.480000" y="58.348250"
textLength="26.107143" font-size="1.333333" lengthAdjust="spacingAndGlyphs"
text-anchor="middle" opacity="0" stroke-opacity="0">ESPRESSIF_ESP32-DEVKITC-32UE</text>
<g class="stroked-text"><desc>ESPRESSIF_ESP32-DEVKITC-32UE</desc>
<path d="M6.789525 57.779259
L7.122858 57.779259
" />
<path d="M7.265715 58.303069
L6.789525 58.303069
" />
<path d="M6.789525 58.303069
L6.789525 57.303069
" />
<path d="M6.789525 57.303069
L7.265715 57.303069
" />
<path d="M7.646668 58.255450
L7.789525 58.303069
" />
<path d="M7.789525 58.303069
L8.027620 58.303069
" />
<path d="M8.027620 58.303069
L8.122858 58.255450
" />
<path d="M8.122858 58.255450
L8.170477 58.207830
" />
<path d="M8.170477 58.207830
L8.218096 58.112592
" />
<path d="M8.218096 58.112592
L8.218096 58.017354
" />
<path d="M8.218096 58.017354
L8.170477 57.922116
" />
<path d="M8.170477 57.922116
L8.122858 57.874497
" />
<path d="M8.122858 57.874497
L8.027620 57.826878
" />
<path d="M8.027620 57.826878
L7.837144 57.779259
" />
<path d="M7.837144 57.779259
L7.741906 57.731640
" />
<path d="M7.741906 57.731640
L7.694287 57.684021
" />
<path d="M7.694287 57.684021
L7.646668 57.588783
" />
<path d="M7.646668 57.588783
L7.646668 57.493545
" />
<path d="M7.646668 57.493545
L7.694287 57.398307
" />
<path d="M7.694287 57.398307
L7.741906 57.350688
" />
<path d="M7.741906 57.350688
L7.837144 57.303069
" />
<path d="M7.837144 57.303069
L8.075239 57.303069
" />
<path d="M8.075239 57.303069
L8.218096 57.350688
" />
<path d="M8.646668 58.303069
L8.646668 57.303069
" />
<path d="M8.646668 57.303069
L9.027620 57.303069
" />
<path d="M9.027620 57.303069
L9.122858 57.350688
" />
<path d="M9.122858 57.350688
L9.170477 57.398307
" />
<path d="M9.170477 57.398307
L9.218096 57.493545
" />
<path d="M9.218096 57.493545
L9.218096 57.636402
" />
<path d="M9.218096 57.636402
L9.170477 57.731640
" />
<path d="M9.170477 57.731640
L9.122858 57.779259
" />
<path d="M9.122858 57.779259
L9.027620 57.826878
" />
<path d="M9.027620 57.826878
L8.646668 57.826878
" />
<path d="M10.218096 58.303069
L9.884763 57.826878
" />
<path d="M9.646668 58.303069
L9.646668 57.303069
" />
<path d="M9.646668 57.303069
L10.027620 57.303069
" />
<path d="M10.027620 57.303069
L10.122858 57.350688
" />
<path d="M10.122858 57.350688
L10.170477 57.398307
" />
<path d="M10.170477 57.398307
L10.218096 57.493545
" />
<path d="M10.218096 57.493545
L10.218096 57.636402
" />
<path d="M10.218096 57.636402
L10.170477 57.731640
" />
<path d="M10.170477 57.731640
L10.122858 57.779259
" />
<path d="M10.122858 57.779259
L10.027620 57.826878
" />
<path d="M10.027620 57.826878
L9.646668 57.826878
" />
<path d="M10.646668 57.779259
L10.980001 57.779259
" />
<path d="M11.122858 58.303069
L10.646668 58.303069
" />
<path d="M10.646668 58.303069
L10.646668 57.303069
" />
<path d="M10.646668 57.303069
L11.122858 57.303069
" />
<path d="M11.503811 58.255450
L11.646668 58.303069
" />
<path d="M11.646668 58.303069
L11.884763 58.303069
" />
<path d="M11.884763 58.303069
L11.980001 58.255450
" />
<path d="M11.980001 58.255450
L12.027620 58.207830
" />
<path d="M12.027620 58.207830
L12.075239 58.112592
" />
<path d="M12.075239 58.112592
L12.075239 58.017354
" />
<path d="M12.075239 58.017354
L12.027620 57.922116
" />
<path d="M12.027620 57.922116
L11.980001 57.874497
" />
<path d="M11.980001 57.874497
L11.884763 57.826878
" />
<path d="M11.884763 57.826878
L11.694287 57.779259
" />
<path d="M11.694287 57.779259
L11.599049 57.731640
" />
<path d="M11.599049 57.731640
L11.551430 57.684021
" />
<path d="M11.551430 57.684021
L11.503811 57.588783
" />
<path d="M11.503811 57.588783
L11.503811 57.493545
" />
<path d="M11.503811 57.493545
L11.551430 57.398307
" />
<path d="M11.551430 57.398307
L11.599049 57.350688
" />
<path d="M11.599049 57.350688
L11.694287 57.303069
" />
<path d="M11.694287 57.303069
L11.932382 57.303069
" />
<path d="M11.932382 57.303069
L12.075239 57.350688
" />
<path d="M12.456192 58.255450
L12.599049 58.303069
" />
<path d="M12.599049 58.303069
L12.837144 58.303069
" />
<path d="M12.837144 58.303069
L12.932382 58.255450
" />
<path d="M12.932382 58.255450
L12.980001 58.207830
" />
<path d="M12.980001 58.207830
L13.027620 58.112592
" />
<path d="M13.027620 58.112592
L13.027620 58.017354
" />
<path d="M13.027620 58.017354
L12.980001 57.922116
" />
<path d="M12.980001 57.922116
L12.932382 57.874497
" />
<path d="M12.932382 57.874497
L12.837144 57.826878
" />
<path d="M12.837144 57.826878
L12.646668 57.779259
" />
<path d="M12.646668 57.779259
L12.551430 57.731640
" />
<path d="M12.551430 57.731640
L12.503811 57.684021
" />
<path d="M12.503811 57.684021
L12.456192 57.588783
" />
<path d="M12.456192 57.588783
L12.456192 57.493545
" />
<path d="M12.456192 57.493545
L12.503811 57.398307
" />
<path d="M12.503811 57.398307
L12.551430 57.350688
" />
<path d="M12.551430 57.350688
L12.646668 57.303069
" />
<path d="M12.646668 57.303069
L12.884763 57.303069
" />
<path d="M12.884763 57.303069
L13.027620 57.350688
" />
<path d="M13.456192 58.303069
L13.456192 57.303069
" />
<path d="M14.265715 57.779259
L13.932382 57.779259
" />
<path d="M13.932382 58.303069
L13.932382 57.303069
" />
<path d="M13.932382 57.303069
L14.408572 57.303069
" />
<path d="M14.551429 58.398307
L15.313334 58.398307
" />
<path d="M15.551430 57.779259
L15.884762 57.779259
" />
<path d="M16.027619 58.303069
L15.551430 58.303069
" />
<path d="M15.551430 58.303069
L15.551430 57.303069
" />
<path d="M15.551430 57.303069
L16.027619 57.303069
" />
<path d="M16.408572 58.255450
L16.551429 58.303069
" />
<path d="M16.551429 58.303069
L16.789524 58.303069
" />
<path d="M16.789524 58.303069
L16.884762 58.255450
" />
<path d="M16.884762 58.255450
L16.932381 58.207830
" />
<path d="M16.932381 58.207830
L16.980000 58.112592
" />
<path d="M16.980000 58.112592
L16.980000 58.017354
" />
<path d="M16.980000 58.017354
L16.932381 57.922116
" />
<path d="M16.932381 57.922116
L16.884762 57.874497
" />
<path d="M16.884762 57.874497
L16.789524 57.826878
" />
<path d="M16.789524 57.826878
L16.599048 57.779259
" />
<path d="M16.599048 57.779259
L16.503810 57.731640
" />
<path d="M16.503810 57.731640
L16.456191 57.684021
" />
<path d="M16.456191 57.684021
L16.408572 57.588783
" />
<path d="M16.408572 57.588783
L16.408572 57.493545
" />
<path d="M16.408572 57.493545
L16.456191 57.398307
" />
<path d="M16.456191 57.398307
L16.503810 57.350688
" />
<path d="M16.503810 57.350688
L16.599048 57.303069
" />
<path d="M16.599048 57.303069
L16.837143 57.303069
" />
<path d="M16.837143 57.303069
L16.980000 57.350688
" />
<path d="M17.408572 58.303069
L17.408572 57.303069
" />
<path d="M17.408572 57.303069
L17.789524 57.303069
" />
<path d="M17.789524 57.303069
L17.884762 57.350688
" />
<path d="M17.884762 57.350688
L17.932381 57.398307
" />
<path d="M17.932381 57.398307
L17.980000 57.493545
" />
<path d="M17.980000 57.493545
L17.980000 57.636402
" />
<path d="M17.980000 57.636402
L17.932381 57.731640
" />
<path d="M17.932381 57.731640
L17.884762 57.779259
" />
<path d="M17.884762 57.779259
L17.789524 57.826878
" />
<path d="M17.789524 57.826878
L17.408572 57.826878
" />
<path d="M18.313334 57.303069
L18.932381 57.303069
" />
<path d="M18.932381 57.303069
L18.599048 57.684021
" />
<path d="M18.599048 57.684021
L18.741905 57.684021
" />
<path d="M18.741905 57.684021
L18.837143 57.731640
" />
<path d="M18.837143 57.731640
L18.884762 57.779259
" />
<path d="M18.884762 57.779259
L18.932381 57.874497
" />
<path d="M18.932381 57.874497
L18.932381 58.112592
" />
<path d="M18.932381 58.112592
L18.884762 58.207830
" />
<path d="M18.884762 58.207830
L18.837143 58.255450
" />
<path d="M18.837143 58.255450
L18.741905 58.303069
" />
<path d="M18.741905 58.303069
L18.456191 58.303069
" />
<path d="M18.456191 58.303069
L18.360953 58.255450
" />
<path d="M18.360953 58.255450
L18.313334 58.207830
" />
<path d="M19.313334 57.398307
L19.360953 57.350688
" />
<path d="M19.360953 57.350688
L19.456191 57.303069
" />
<path d="M19.456191 57.303069
L19.694286 57.303069
" />
<path d="M19.694286 57.303069
L19.789524 57.350688
" />
<path d="M19.789524 57.350688
L19.837143 57.398307
" />
<path d="M19.837143 57.398307
L19.884762 57.493545
" />
<path d="M19.884762 57.493545
L19.884762 57.588783
" />
<path d="M19.884762 57.588783
L19.837143 57.731640
" />
<path d="M19.837143 57.731640
L19.265715 58.303069
" />
<path d="M19.265715 58.303069
L19.884762 58.303069
" />
<path d="M20.313334 57.922116
L21.075239 57.922116
" />
<path d="M21.551429 58.303069
L21.551429 57.303069
" />
<path d="M21.551429 57.303069
L21.789524 57.303069
" />
<path d="M21.789524 57.303069
L21.932381 57.350688
" />
<path d="M21.932381 57.350688
L22.027619 57.445926
" />
<path d="M22.027619 57.445926
L22.075238 57.541164
" />
<path d="M22.075238 57.541164
L22.122857 57.731640
" />
<path d="M22.122857 57.731640
L22.122857 57.874497
" />
<path d="M22.122857 57.874497
L22.075238 58.064973
" />
<path d="M22.075238 58.064973
L22.027619 58.160211
" />
<path d="M22.027619 58.160211
L21.932381 58.255450
" />
<path d="M21.932381 58.255450
L21.789524 58.303069
" />
<path d="M21.789524 58.303069
L21.551429 58.303069
" />
<path d="M22.551429 57.779259
L22.884762 57.779259
" />
<path d="M23.027619 58.303069
L22.551429 58.303069
" />
<path d="M22.551429 58.303069
L22.551429 57.303069
" />
<path d="M22.551429 57.303069
L23.027619 57.303069
" />
<path d="M23.313334 57.303069
L23.646667 58.303069
" />
<path d="M23.646667 58.303069
L23.980000 57.303069
" />
<path d="M24.313334 58.303069
L24.313334 57.303069
" />
<path d="M24.884762 58.303069
L24.456191 57.731640
" />
<path d="M24.884762 57.303069
L24.313334 57.874497
" />
<path d="M25.313334 58.303069
L25.313334 57.303069
" />
<path d="M25.646667 57.303069
L26.218095 57.303069
" />
<path d="M25.932381 58.303069
L25.932381 57.303069
" />
<path d="M27.122857 58.207830
L27.075238 58.255450
" />
<path d="M27.075238 58.255450
L26.932381 58.303069
" />
<path d="M26.932381 58.303069
L26.837143 58.303069
" />
<path d="M26.837143 58.303069
L26.694286 58.255450
" />
<path d="M26.694286 58.255450
L26.599048 58.160211
" />
<path d="M26.599048 58.160211
L26.551429 58.064973
" />
<path d="M26.551429 58.064973
L26.503810 57.874497
" />
<path d="M26.503810 57.874497
L26.503810 57.731640
" />
<path d="M26.503810 57.731640
L26.551429 57.541164
" />
<path d="M26.551429 57.541164
L26.599048 57.445926
" />
<path d="M26.599048 57.445926
L26.694286 57.350688
" />
<path d="M26.694286 57.350688
L26.837143 57.303069
" />
<path d="M26.837143 57.303069
L26.932381 57.303069
" />
<path d="M26.932381 57.303069
L27.075238 57.350688
" />
<path d="M27.075238 57.350688
L27.122857 57.398307
" />
<path d="M27.551429 57.922116
L28.313334 57.922116
" />
<path d="M28.694286 57.303069
L29.313333 57.303069
" />
<path d="M29.313333 57.303069
L28.980000 57.684021
" />
<path d="M28.980000 57.684021
L29.122857 57.684021
" />
<path d="M29.122857 57.684021
L29.218095 57.731640
" />
<path d="M29.218095 57.731640
L29.265714 57.779259
" />
<path d="M29.265714 57.779259
L29.313333 57.874497
" />
<path d="M29.313333 57.874497
L29.313333 58.112592
" />
<path d="M29.313333 58.112592
L29.265714 58.207830
" />
<path d="M29.265714 58.207830
L29.218095 58.255450
" />
<path d="M29.218095 58.255450
L29.122857 58.303069
" />
<path d="M29.122857 58.303069
L28.837143 58.303069
" />
<path d="M28.837143 58.303069
L28.741905 58.255450
" />
<path d="M28.741905 58.255450
L28.694286 58.207830
" />
<path d="M29.694286 57.398307
L29.741905 57.350688
" />
<path d="M29.741905 57.350688
L29.837143 57.303069
" />
<path d="M29.837143 57.303069
L30.075238 57.303069
" />
<path d="M30.075238 57.303069
L30.170476 57.350688
" />
<path d="M30.170476 57.350688
L30.218095 57.398307
" />
<path d="M30.218095 57.398307
L30.265714 57.493545
" />
<path d="M30.265714 57.493545
L30.265714 57.588783
" />
<path d="M30.265714 57.588783
L30.218095 57.731640
" />
<path d="M30.218095 57.731640
L29.646667 58.303069
" />
<path d="M29.646667 58.303069
L30.265714 58.303069
" />
<path d="M30.694286 57.303069
L30.694286 58.112592
" />
<path d="M30.694286 58.112592
L30.741905 58.207830
" />
<path d="M30.741905 58.207830
L30.789524 58.255450
" />
<path d="M30.789524 58.255450
L30.884762 58.303069
" />
<path d="M30.884762 58.303069
L31.075238 58.303069
" />
<path d="M31.075238 58.303069
L31.170476 58.255450
" />
<path d="M31.170476 58.255450
L31.218095 58.207830
" />
<path d="M31.218095 58.207830
L31.265714 58.112592
" />
<path d="M31.265714 58.112592
L31.265714 57.303069
" />
<path d="M31.741905 57.779259
L32.075238 57.779259
" />
<path d="M32.218095 58.303069
L31.741905 58.303069
" />
<path d="M31.741905 58.303069
L31.741905 57.303069
" />
<path d="M31.741905 57.303069
L32.218095 57.303069
" />
</g></g>
<g style="fill:none; 
stroke:#AFAFAF; stroke-width:0.127000; stroke-opacity:1; 
stroke-linecap:round; stroke-linejoin:round;">
<path d="M1.750000 2.183250
L29.650000 2.183250
" />
<path d="M29.650000 2.183250
L29.650000 56.583250
" />
<path d="M29.650000 56.583250
L1.750000 56.583250
" />
<path d="M1.750000 56.583250
L1.750000 2.183250
" />
</g>
<g style="fill:none; 
stroke:#AFAFAF; stroke-width:0.200000; stroke-opacity:1; 
stroke-linecap:round; stroke-linejoin:round;">
<circle cx="0.200000" cy="9.483250" r="0.100000" /> 
</g>
<g style="fill:none; 
stroke:#AFAFAF; stroke-width:0.043333; stroke-opacity:1; 
stroke-linecap:round; stroke-linejoin:round;">
<text x="3.000000" y="9.883250"
textLength="0.521238" font-size="0.693333" lengthAdjust="spacingAndGlyphs"
text-anchor="middle" opacity="0" stroke-opacity="0">1</text>
<g class="stroked-text"><desc>1</desc>
<path d="M3.148572 9.861558
L2.851429 9.861558
" />
<path d="M3.000001 9.861558
L3.000001 9.341558
" />
<path d="M3.000001 9.341558
L2.950477 9.415844
" />
<path d="M2.950477 9.415844
L2.900953 9.465368
" />
<path d="M2.900953 9.465368
L2.851429 9.490130
" />
</g><path style="fill:none; 
stroke:#AFAFAF; stroke-width:0.100000; stroke-opacity:1; 
stroke-linecap:round; stroke-linejoin:round;fill:none"
d="M 2.220000,8.843250
3.780000,8.843250
3.780000,10.403250
2.220000,10.403250
Z" /> 
</g>
<g style="fill:none; 
stroke:#AFAFAF; stroke-width:0.043333; stroke-opacity:1; 
stroke-linecap:round; stroke-linejoin:round;">
<text x="3.000000" y="12.423250"
textLength="0.521238" font-size="0.693333" lengthAdjust="spacingAndGlyphs"
text-anchor="middle" opacity="0" stroke-opacity="0">2</text>
<g class="stroked-text"><desc>2</desc>
<path d="M2.851429 11.931082
L2.876191 11.906320
" />
<path d="M2.876191 11.906320
L2.925715 11.881558
" />
<path d="M2.925715 11.881558
L3.049524 11.881558
" />
<path d="M3.049524 11.881558
L3.099048 11.906320
" />
<path d="M3.099048 11.906320
L3.123810 11.931082
" />
<path d="M3.123810 11.931082
L3.148572 11.980606
" />
<path d="M3.148572 11.980606
L3.148572 12.030130
" />
<path d="M3.148572 12.030130
L3.123810 12.104416
" />
<path d="M3.123810 12.104416
L2.826667 12.401558
" />
<path d="M2.826667 12.401558
L3.148572 12.401558
" />
</g></g>
<g style="fill:none; 
stroke:#AFAFAF; stroke-width:0.100000; stroke-opacity:1; 
stroke-linecap:round; stroke-linejoin:round;">
<circle cx="3.000000" cy="12.163250" r="0.780000" /> 
</g>
<g style="fill:none; 
stroke:#AFAFAF; stroke-width:0.043333; stroke-opacity:1; 
stroke-linecap:round; stroke-linejoin:round;">
<text x="3.000000" y="14.963250"
textLength="0.521238" font-size="0.693333" lengthAdjust="spacingAndGlyphs"
text-anchor="middle" opacity="0" stroke-opacity="0">3</text>
<g class="stroked-text"><desc>3</desc>
<path d="M2.826667 14.421558
L3.148572 14.421558
" />
<path d="M3.148572 14.421558
L2.975239 14.619654
" />
<path d="M2.975239 14.619654
L3.049524 14.619654
" />
<path d="M3.049524 14.619654
L3.099048 14.644416
" />
<path d="M3.099048 14.644416
L3.123810 14.669177
" />
<path d="M3.123810 14.669177
L3.148572 14.718701
" />
<path d="M3.148572 14.718701
L3.148572 14.842511
" />
<path d="M3.148572 14.842511
L3.123810 14.892035
" />
<path d="M3.123810 14.892035
L3.099048 14.916796
" />
<path d="M3.099048 14.916796
L3.049524 14.941558
" />
<path d="M3.049524 14.941558
L2.900953 14.941558
" />
<path d="M2.900953 14.941558
L2.851429 14.916796
" />
<path d="M2.851429 14.916796
L2.826667 14.892035
" />
</g></g>
<g style="fill:none; 
stroke:#AFAFAF; stroke-width:0.100000; stroke-opacity:1; 
stroke-linecap:round; stroke-linejoin:round;">
<circle cx="3.000000" cy="14.703250" r="0.780000" /> 
</g>
<g style="fill:none; 
stroke:#AFAFAF; stroke-width:0.043333; stroke-opacity:1; 
stroke-linecap:round; stroke-linejoin:round;">
<text x="3.000000" y="17.503250"
textLength="0.521238" font-size="0.693333" lengthAdjust="spacingAndGlyphs"
text-anchor="middle" opacity="0" stroke-opacity="0">4</text>
<g class="stroked-text"><desc>4</desc>
<path d="M3.099048 17.134892
L3.099048 17.481558
" />
<path d="M2.975239 16.936796
L2.851429 17.308225
" />
<path d="M2.851429 17.308225
L3.173334 17.308225
" />
</g></g>
<g style="fill:none; 
stroke:#AFAFAF; stroke-width:0.100000; stroke-opacity:1; 
stroke-linecap:round; stroke-linejoin:round;">
<circle cx="3.000000" cy="17.243250" r="0.780000" /> 
</g>
<g style="fill:none; 
stroke:#AFAFAF; stroke-width:0.043333; stroke-opacity:1; 
stroke-linecap:round; stroke-linejoin:round;">
<text x="3.000000" y="20.043250"
textLength="0.521238" font-size="0.693333" lengthAdjust="spacingAndGlyphs"
text-anchor="middle" opacity="0" stroke-opacity="0">5</text>
<g class="stroked-text"><desc>5</desc>
<path d="M3.123810 19.501558
L2.876191 19.501558
" />
<path d="M2.876191 19.501558
L2.851429 19.749177
" />
<path d="M2.851429 19.749177
L2.876191 19.724416
" />
<path d="M2.876191 19.724416
L2.925715 19.699654
" />
<path d="M2.925715 19.699654
L3.049524 19.699654
" />
<path d="M3.049524 19.699654
L3.099048 19.724416
" />
<path d="M3.099048 19.724416
L3.123810 19.749177
" />
<path d="M3.123810 19.749177
L3.148572 19.798701
" />
<path d="M3.148572 19.798701
L3.148572 19.922511
" />
<path d="M3.148572 19.922511
L3.123810 19.972035
" />
<path d="M3.123810 19.972035
L3.099048 19.996796
" />
<path d="M3.099048 19.996796
L3.049524 20.021558
" />
<path d="M3.049524 20.021558
L2.925715 20.021558
" />
<path d="M2.925715 20.021558
L2.876191 19.996796
" />
<path d="M2.876191 19.996796
L2.851429 19.972035
" />
</g></g>
<g style="fill:none; 
stroke:#AFAFAF; stroke-width:0.100000; stroke-opacity:1; 
stroke-linecap:round; stroke-linejoin:round;">
<circle cx="3.000000" cy="19.783250" r="0.780000" /> 
</g>
<g style="fill:none; 
stroke:#AFAFAF; stroke-width:0.043333; stroke-opacity:1; 
stroke-linecap:round; stroke-linejoin:round;">
<text x="3.000000" y="22.583250"
textLength="0.521238" font-size="0.693333" lengthAdjust="spacingAndGlyphs"
text-anchor="middle" opacity="0" stroke-opacity="0">6</text>
<g class="stroked-text"><desc>6</desc>
<path d="M3.099048 22.041558
L3.000001 22.041558
" />
<path d="M3.000001 22.041558
L2.950477 22.066320
" />
<path d="M2.950477 22.066320
L2.925715 22.091082
" />
<path d="M2.925715 22.091082
L2.876191 22.165368
" />
<path d="M2.876191 22.165368
L2.851429 22.264416
" />
<path d="M2.851429 22.264416
L2.851429 22.462511
" />
<path d="M2.851429 22.462511
L2.876191 22.512035
" />
<path d="M2.876191 22.512035
L2.900953 22.536796
" />
<path d="M2.900953 22.536796
L2.950477 22.561558
" />
<path d="M2.950477 22.561558
L3.049524 22.561558
" />
<path d="M3.049524 22.561558
L3.099048 22.536796
" />
<path d="M3.099048 22.536796
L3.123810 22.512035
" />
<path d="M3.123810 22.512035
L3.148572 22.462511
" />
<path d="M3.148572 22.462511
L3.148572 22.338701
" />
<path d="M3.148572 22.338701
L3.123810 22.289177
" />
<path d="M3.123810 22.289177
L3.099048 22.264416
" />
<path d="M3.099048 22.264416
L3.049524 22.239654
" />
<path d="M3.049524 22.239654
L2.950477 22.239654
" />
<path d="M2.950477 22.239654
L2.900953 22.264416
" />
<path d="M2.900953 22.264416
L2.876191 22.289177
" />
<path d="M2.876191 22.289177
L2.851429 22.338701
" />
</g></g>
<g style="fill:none; 
stroke:#AFAFAF; stroke-width:0.100000; stroke-opacity:1; 
stroke-linecap:round; stroke-linejoin:round;">
<circle cx="3.000000" cy="22.323250" r="0.780000" /> 
</g>
<g style="fill:none; 
stroke:#AFAFAF; stroke-width:0.043333; stroke-opacity:1; 
stroke-linecap:round; stroke-linejoin:round;">
<text x="3.000000" y="25.123250"
textLength="0.521238" font-size="0.693333" lengthAdjust="spacingAndGlyphs"
text-anchor="middle" opacity="0" stroke-opacity="0">7</text>
<g class="stroked-text"><desc>7</desc>
<path d="M2.826667 24.581558
L3.173334 24.581558
" />
<path d="M3.173334 24.581558
L2.950477 25.101558
" />
</g></g>
<g style="fill:none; 
stroke:#AFAFAF; stroke-width:0.100000; stroke-opacity:1; 
stroke-linecap:round; stroke-linejoin:round;">
<circle cx="3.000000" cy="24.863250" r="0.780000" /> 
</g>
<g style="fill:none; 
stroke:#AFAFAF; stroke-width:0.043333; stroke-opacity:1; 
stroke-linecap:round; stroke-linejoin:round;">
<text x="3.000000" y="27.663250"
textLength="0.521238" font-size="0.693333" lengthAdjust="spacingAndGlyphs"
text-anchor="middle" opacity="0" stroke-opacity="0">8</text>
<g class="stroked-text"><desc>8</desc>
<path d="M2.950477 27.344416
L2.900953 27.319654
" />
<path d="M2.900953 27.319654
L2.876191 27.294892
" />
<path d="M2.876191 27.294892
L2.851429 27.245368
" />
<path d="M2.851429 27.245368
L2.851429 27.220606
" />
<path d="M2.851429 27.220606
L2.876191 27.171082
" />
<path d="M2.876191 27.171082
L2.900953 27.146320
" />
<path d="M2.900953 27.146320
L2.950477 27.121558
" />
<path d="M2.950477 27.121558
L3.049524 27.121558
" />
<path d="M3.049524 27.121558
L3.099048 27.146320
" />
<path d="M3.099048 27.146320
L3.123810 27.171082
" />
<path d="M3.123810 27.171082
L3.148572 27.220606
" />
<path d="M3.148572 27.220606
L3.148572 27.245368
" />
<path d="M3.148572 27.245368
L3.123810 27.294892
" />
<path d="M3.123810 27.294892
L3.099048 27.319654
" />
<path d="M3.099048 27.319654
L3.049524 27.344416
" />
<path d="M3.049524 27.344416
L2.950477 27.344416
" />
<path d="M2.950477 27.344416
L2.900953 27.369177
" />
<path d="M2.900953 27.369177
L2.876191 27.393939
" />
<path d="M2.876191 27.393939
L2.851429 27.443463
" />
<path d="M2.851429 27.443463
L2.851429 27.542511
" />
<path d="M2.851429 27.542511
L2.876191 27.592035
" />
<path d="M2.876191 27.592035
L2.900953 27.616796
" />
<path d="M2.900953 27.616796
L2.950477 27.641558
" />
<path d="M2.950477 27.641558
L3.049524 27.641558
" />
<path d="M3.049524 27.641558
L3.099048 27.616796
" />
<path d="M3.099048 27.616796
L3.123810 27.592035
" />
<path d="M3.123810 27.592035
L3.148572 27.542511
" />
<path d="M3.148572 27.542511
L3.148572 27.443463
" />
<path d="M3.148572 27.443463
L3.123810 27.393939
" />
<path d="M3.123810 27.393939
L3.099048 27.369177
" />
<path d="M3.099048 27.369177
L3.049524 27.344416
" />
</g></g>
<g style="fill:none; 
stroke:#AFAFAF; stroke-width:0.100000; stroke-opacity:1; 
stroke-linecap:round; stroke-linejoin:round;">
<circle cx="3.000000" cy="27.403250" r="0.780000" /> 
</g>
<g style="fill:none; 
stroke:#AFAFAF; stroke-width:0.043333; stroke-opacity:1; 
stroke-linecap:round; stroke-linejoin:round;">
<text x="3.000000" y="30.203250"
textLength="0.521238" font-size="0.693333" lengthAdjust="spacingAndGlyphs"
text-anchor="middle" opacity="0" stroke-opacity="0">9</text>
<g class="stroked-text"><desc>9</desc>
<path d="M2.900953 30.181558
L3.000001 30.181558
" />
<path d="M3.000001 30.181558
L3.049524 30.156796
" />
<path d="M3.049524 30.156796
L3.074286 30.132035
" />
<path d="M3.074286 30.132035
L3.123810 30.057749
" />
<path d="M3.123810 30.057749
L3.148572 29.958701
" />
<path d="M3.148572 29.958701
L3.148572 29.760606
" />
<path d="M3.148572 29.760606
L3.123810 29.711082
" />
<path d="M3.123810 29.711082
L3.099048 29.686320
" />
<path d="M3.099048 29.686320
L3.049524 29.661558
" />
<path d="M3.049524 29.661558
L2.950477 29.661558
" />
<path d="M2.950477 29.661558
L2.900953 29.686320
" />
<path d="M2.900953 29.686320
L2.876191 29.711082
" />
<path d="M2.876191 29.711082
L2.851429 29.760606
" />
<path d="M2.851429 29.760606
L2.851429 29.884416
" />
<path d="M2.851429 29.884416
L2.876191 29.933939
" />
<path d="M2.876191 29.933939
L2.900953 29.958701
" />
<path d="M2.900953 29.958701
L2.950477 29.983463
" />
<path d="M2.950477 29.983463
L3.049524 29.983463
" />
<path d="M3.049524 29.983463
L3.099048 29.958701
" />
<path d="M3.099048 29.958701
L3.123810 29.933939
" />
<path d="M3.123810 29.933939
L3.148572 29.884416
" />
</g></g>
<g style="fill:none; 
stroke:#AFAFAF; stroke-width:0.100000; stroke-opacity:1; 
stroke-linecap:round; stroke-linejoin:round;">
<circle cx="3.000000" cy="29.943250" r="0.780000" /> 
</g>
<g style="fill:none; 
stroke:#AFAFAF; stroke-width:0.043333; stroke-opacity:1; 
stroke-linecap:round; stroke-linejoin:round;">
<text x="3.000000" y="32.743250"
textLength="1.016476" font-size="0.693333" lengthAdjust="spacingAndGlyphs"
text-anchor="middle" opacity="0" stroke-opacity="0">10</text>
<g class="stroked-text"><desc>10</desc>
<path d="M2.900953 32.721557
L2.603810 32.721557
" />
<path d="M2.752382 32.721557
L2.752382 32.201558
" />
<path d="M2.752382 32.201558
L2.702858 32.275844
" />
<path d="M2.702858 32.275844
L2.653334 32.325368
" />
<path d="M2.653334 32.325368
L2.603810 32.350130
" />
<path d="M3.222858 32.201558
L3.272381 32.201558
" />
<path d="M3.272381 32.201558
L3.321905 32.226320
" />
<path d="M3.321905 32.226320
L3.346667 32.251082
" />
<path d="M3.346667 32.251082
L3.371429 32.300606
" />
<path d="M3.371429 32.300606
L3.396191 32.399654
" />
<path d="M3.396191 32.399654
L3.396191 32.523462
" />
<path d="M3.396191 32.523462
L3.371429 32.622510
" />
<path d="M3.371429 32.622510
L3.346667 32.672034
" />
<path d="M3.346667 32.672034
L3.321905 32.696796
" />
<path d="M3.321905 32.696796
L3.272381 32.721557
" />
<path d="M3.272381 32.721557
L3.222858 32.721557
" />
<path d="M3.222858 32.721557
L3.173334 32.696796
" />
<path d="M3.173334 32.696796
L3.148572 32.672034
" />
<path d="M3.148572 32.672034
L3.123810 32.622510
" />
<path d="M3.123810 32.622510
L3.099048 32.523462
" />
<path d="M3.099048 32.523462
L3.099048 32.399654
" />
<path d="M3.099048 32.399654
L3.123810 32.300606
" />
<path d="M3.123810 32.300606
L3.148572 32.251082
" />
<path d="M3.148572 32.251082
L3.173334 32.226320
" />
<path d="M3.173334 32.226320
L3.222858 32.201558
" />
</g></g>
<g style="fill:none; 
stroke:#AFAFAF; stroke-width:0.100000; stroke-opacity:1; 
stroke-linecap:round; stroke-linejoin:round;">
<circle cx="3.000000" cy="32.483250" r="0.780000" /> 
</g>
<g style="fill:none; 
stroke:#AFAFAF; stroke-width:0.043333; stroke-opacity:1; 
stroke-linecap:round; stroke-linejoin:round;">
<text x="3.000000" y="35.283250"
textLength="1.016476" font-size="0.693333" lengthAdjust="spacingAndGlyphs"
text-anchor="middle" opacity="0" stroke-opacity="0">11</text>
<g class="stroked-text"><desc>11</desc>
<path d="M2.900953 35.261557
L2.603810 35.261557
" />
<path d="M2.752382 35.261557
L2.752382 34.741557
" />
<path d="M2.752382 34.741557
L2.702858 34.815843
" />
<path d="M2.702858 34.815843
L2.653334 34.865367
" />
<path d="M2.653334 34.865367
L2.603810 34.890129
" />
<path d="M3.396191 35.261557
L3.099048 35.261557
" />
<path d="M3.247620 35.261557
L3.247620 34.741557
" />
<path d="M3.247620 34.741557
L3.198096 34.815843
" />
<path d="M3.198096 34.815843
L3.148572 34.865367
" />
<path d="M3.148572 34.865367
L3.099048 34.890129
" />
</g></g>
<g style="fill:none; 
stroke:#AFAFAF; stroke-width:0.100000; stroke-opacity:1; 
stroke-linecap:round; stroke-linejoin:round;">
<circle cx="3.000000" cy="35.023250" r="0.780000" /> 
</g>
<g style="fill:none; 
stroke:#AFAFAF; stroke-width:0.043333; stroke-opacity:1; 
stroke-linecap:round; stroke-linejoin:round;">
<text x="3.000000" y="37.823250"
textLength="1.016476" font-size="0.693333" lengthAdjust="spacingAndGlyphs"
text-anchor="middle" opacity="0" stroke-opacity="0">12</text>
<g class="stroked-text"><desc>12</desc>
<path d="M2.900953 37.801557
L2.603810 37.801557
" />
<path d="M2.752382 37.801557
L2.752382 37.281557
" />
<path d="M2.752382 37.281557
L2.702858 37.355843
" />
<path d="M2.702858 37.355843
L2.653334 37.405367
" />
<path d="M2.653334 37.405367
L2.603810 37.430129
" />
<path d="M3.099048 37.331081
L3.123810 37.306319
" />
<path d="M3.123810 37.306319
L3.173334 37.281557
" />
<path d="M3.173334 37.281557
L3.297143 37.281557
" />
<path d="M3.297143 37.281557
L3.346667 37.306319
" />
<path d="M3.346667 37.306319
L3.371429 37.331081
" />
<path d="M3.371429 37.331081
L3.396191 37.380605
" />
<path d="M3.396191 37.380605
L3.396191 37.430129
" />
<path d="M3.396191 37.430129
L3.371429 37.504415
" />
<path d="M3.371429 37.504415
L3.074286 37.801557
" />
<path d="M3.074286 37.801557
L3.396191 37.801557
" />
</g></g>
<g style="fill:none; 
stroke:#AFAFAF; stroke-width:0.100000; stroke-opacity:1; 
stroke-linecap:round; stroke-linejoin:round;">
<circle cx="3.000000" cy="37.563250" r="0.780000" /> 
</g>
<g style="fill:none; 
stroke:#AFAFAF; stroke-width:0.043333; stroke-opacity:1; 
stroke-linecap:round; stroke-linejoin:round;">
<text x="3.000000" y="40.363250"
textLength="1.016476" font-size="0.693333" lengthAdjust="spacingAndGlyphs"
text-anchor="middle" opacity="0" stroke-opacity="0">13</text>
<g class="stroked-text"><desc>13</desc>
<path d="M2.900953 40.341557
L2.603810 40.341557
" />
<path d="M2.752382 40.341557
L2.752382 39.821557
" />
<path d="M2.752382 39.821557
L2.702858 39.895843
" />
<path d="M2.702858 39.895843
L2.653334 39.945367
" />
<path d="M2.653334 39.945367
L2.603810 39.970129
" />
<path d="M3.074286 39.821557
L3.396191 39.821557
" />
<path d="M3.396191 39.821557
L3.222858 40.019653
" />
<path d="M3.222858 40.019653
L3.297143 40.019653
" />
<path d="M3.297143 40.019653
L3.346667 40.044415
" />
<path d="M3.346667 40.044415
L3.371429 40.069176
" />
<path d="M3.371429 40.069176
L3.396191 40.118700
" />
<path d="M3.396191 40.118700
L3.396191 40.242510
" />
<path d="M3.396191 40.242510
L3.371429 40.292034
" />
<path d="M3.371429 40.292034
L3.346667 40.316796
" />
<path d="M3.346667 40.316796
L3.297143 40.341557
" />
<path d="M3.297143 40.341557
L3.148572 40.341557
" />
<path d="M3.148572 40.341557
L3.099048 40.316796
" />
<path d="M3.099048 40.316796
L3.074286 40.292034
" />
</g></g>
<g style="fill:none; 
stroke:#AFAFAF; stroke-width:0.100000; stroke-opacity:1; 
stroke-linecap:round; stroke-linejoin:round;">
<circle cx="3.000000" cy="40.103250" r="0.780000" /> 
</g>
<g style="fill:none; 
stroke:#AFAFAF; stroke-width:0.043333; stroke-opacity:1; 
stroke-linecap:round; stroke-linejoin:round;">
<text x="3.000000" y="42.903250"
textLength="1.016476" font-size="0.693333" lengthAdjust="spacingAndGlyphs"
text-anchor="middle" opacity="0" stroke-opacity="0">14</text>
<g class="stroked-text"><desc>14</desc>
<path d="M2.900953 42.881557
L2.603810 42.881557
" />
<path d="M2.752382 42.881557
L2.752382 42.361557
" />
<path d="M2.752382 42.361557
L2.702858 42.435843
" />
<path d="M2.702858 42.435843
L2.653334 42.485367
" />
<path d="M2.653334 42.485367
L2.603810 42.510129
" />
<path d="M3.346667 42.534891
L3.346667 42.881557
" />
<path d="M3.222858 42.336796
L3.099048 42.708224
" />
<path d="M3.099048 42.708224
L3.420953 42.708224
" />
</g></g>
<g style="fill:none; 
stroke:#AFAFAF; stroke-width:0.100000; stroke-opacity:1; 
stroke-linecap:round; stroke-linejoin:round;">
<circle cx="3.000000" cy="42.643250" r="0.780000" /> 
</g>
<g style="fill:none; 
stroke:#AFAFAF; stroke-width:0.043333; stroke-opacity:1; 
stroke-linecap:round; stroke-linejoin:round;">
<text x="3.000000" y="45.443250"
textLength="1.016476" font-size="0.693333" lengthAdjust="spacingAndGlyphs"
text-anchor="middle" opacity="0" stroke-opacity="0">15</text>
<g class="stroked-text"><desc>15</desc>
<path d="M2.900953 45.421557
L2.603810 45.421557
" />
<path d="M2.752382 45.421557
L2.752382 44.901557
" />
<path d="M2.752382 44.901557
L2.702858 44.975843
" />
<path d="M2.702858 44.975843
L2.653334 45.025367
" />
<path d="M2.653334 45.025367
L2.603810 45.050129
" />
<path d="M3.371429 44.901557
L3.123810 44.901557
" />
<path d="M3.123810 44.901557
L3.099048 45.149176
" />
<path d="M3.099048 45.149176
L3.123810 45.124415
" />
<path d="M3.123810 45.124415
L3.173334 45.099653
" />
<path d="M3.173334 45.099653
L3.297143 45.099653
" />
<path d="M3.297143 45.099653
L3.346667 45.124415
" />
<path d="M3.346667 45.124415
L3.371429 45.149176
" />
<path d="M3.371429 45.149176
L3.396191 45.198700
" />
<path d="M3.396191 45.198700
L3.396191 45.322510
" />
<path d="M3.396191 45.322510
L3.371429 45.372034
" />
<path d="M3.371429 45.372034
L3.346667 45.396796
" />
<path d="M3.346667 45.396796
L3.297143 45.421557
" />
<path d="M3.297143 45.421557
L3.173334 45.421557
" />
<path d="M3.173334 45.421557
L3.123810 45.396796
" />
<path d="M3.123810 45.396796
L3.099048 45.372034
" />
</g></g>
<g style="fill:none; 
stroke:#AFAFAF; stroke-width:0.100000; stroke-opacity:1; 
stroke-linecap:round; stroke-linejoin:round;">
<circle cx="3.000000" cy="45.183250" r="0.780000" /> 
</g>
<g style="fill:none; 
stroke:#AFAFAF; stroke-width:0.043333; stroke-opacity:1; 
stroke-linecap:round; stroke-linejoin:round;">
<text x="3.000000" y="47.983250"
textLength="1.016476" font-size="0.693333" lengthAdjust="spacingAndGlyphs"
text-anchor="middle" opacity="0" stroke-opacity="0">16</text>
<g class="stroked-text"><desc>16</desc>
<path d="M2.900953 47.961557
L2.603810 47.961557
" />
<path d="M2.752382 47.961557
L2.752382 47.441557
" />
<path d="M2.752382 47.441557
L2.702858 47.515843
" />
<path d="M2.702858 47.515843
L2.653334 47.565367
" />
<path d="M2.653334 47.565367
L2.603810 47.590129
" />
<path d="M3.346667 47.441557
L3.247620 47.441557
" />
<path d="M3.247620 47.441557
L3.198096 47.466319
" />
<path d="M3.198096 47.466319
L3.173334 47.491081
" />
<path d="M3.173334 47.491081
L3.123810 47.565367
" />
<path d="M3.123810 47.565367
L3.099048 47.664415
" />
<path d="M3.099048 47.664415
L3.099048 47.862510
" />
<path d="M3.099048 47.862510
L3.123810 47.912034
" />
<path d="M3.123810 47.912034
L3.148572 47.936796
" />
<path d="M3.148572 47.936796
L3.198096 47.961557
" />
<path d="M3.198096 47.961557
L3.297143 47.961557
" />
<path d="M3.297143 47.961557
L3.346667 47.936796
" />
<path d="M3.346667 47.936796
L3.371429 47.912034
" />
<path d="M3.371429 47.912034
L3.396191 47.862510
" />
<path d="M3.396191 47.862510
L3.396191 47.738700
" />
<path d="M3.396191 47.738700
L3.371429 47.689176
" />
<path d="M3.371429 47.689176
L3.346667 47.664415
" />
<path d="M3.346667 47.664415
L3.297143 47.639653
" />
<path d="M3.297143 47.639653
L3.198096 47.639653
" />
<path d="M3.198096 47.639653
L3.148572 47.664415
" />
<path d="M3.148572 47.664415
L3.123810 47.689176
" />
<path d="M3.123810 47.689176
L3.099048 47.738700
" />
</g></g>
<g style="fill:none; 
stroke:#AFAFAF; stroke-width:0.100000; stroke-opacity:1; 
stroke-linecap:round; stroke-linejoin:round;">
<circle cx="3.000000" cy="47.723250" r="0.780000" /> 
</g>
<g style="fill:none; 
stroke:#AFAFAF; stroke-width:0.043333; stroke-opacity:1; 
stroke-linecap:round; stroke-linejoin:round;">
<text x="3.000000" y="50.523250"
textLength="1.016476" font-size="0.693333" lengthAdjust="spacingAndGlyphs"
text-anchor="middle" opacity="0" stroke-opacity="0">17</text>
<g class="stroked-text"><desc>17</desc>
<path d="M2.900953 50.501557
L2.603810 50.501557
" />
<path d="M2.752382 50.501557
L2.752382 49.981557
" />
<path d="M2.752382 49.981557
L2.702858 50.055843
" />
<path d="M2.702858 50.055843
L2.653334 50.105367
" />
<path d="M2.653334 50.105367
L2.603810 50.130129
" />
<path d="M3.074286 49.981557
L3.420953 49.981557
" />
<path d="M3.420953 49.981557
L3.198096 50.501557
" />
</g></g>
<g style="fill:none; 
stroke:#AFAFAF; stroke-width:0.100000; stroke-opacity:1; 
stroke-linecap:round; stroke-linejoin:round;">
<circle cx="3.000000" cy="50.263250" r="0.780000" /> 
</g>
<g style="fill:none; 
stroke:#AFAFAF; stroke-width:0.043333; stroke-opacity:1; 
stroke-linecap:round; stroke-linejoin:round;">
<text x="3.000000" y="53.063250"
textLength="1.016476" font-size="0.693333" lengthAdjust="spacingAndGlyphs"
text-anchor="middle" opacity="0" stroke-opacity="0">18</text>
<g class="stroked-text"><desc>18</desc>
<path d="M2.900953 53.041557
L2.603810 53.041557
" />
<path d="M2.752382 53.041557
L2.752382 52.521557
" />
<path d="M2.752382 52.521557
L2.702858 52.595843
" />
<path d="M2.702858 52.595843
L2.653334 52.645367
" />
<path d="M2.653334 52.645367
L2.603810 52.670129
" />
<path d="M3.198096 52.744415
L3.148572 52.719653
" />
<path d="M3.148572 52.719653
L3.123810 52.694891
" />
<path d="M3.123810 52.694891
L3.099048 52.645367
" />
<path d="M3.099048 52.645367
L3.099048 52.620605
" />
<path d="M3.099048 52.620605
L3.123810 52.571081
" />
<path d="M3.123810 52.571081
L3.148572 52.546319
" />
<path d="M3.148572 52.546319
L3.198096 52.521557
" />
<path d="M3.198096 52.521557
L3.297143 52.521557
" />
<path d="M3.297143 52.521557
L3.346667 52.546319
" />
<path d="M3.346667 52.546319
L3.371429 52.571081
" />
<path d="M3.371429 52.571081
L3.396191 52.620605
" />
<path d="M3.396191 52.620605
L3.396191 52.645367
" />
<path d="M3.396191 52.645367
L3.371429 52.694891
" />
<path d="M3.371429 52.694891
L3.346667 52.719653
" />
<path d="M3.346667 52.719653
L3.297143 52.744415
" />
<path d="M3.297143 52.744415
L3.198096 52.744415
" />
<path d="M3.198096 52.744415
L3.148572 52.769176
" />
<path d="M3.148572 52.769176
L3.123810 52.793938
" />
<path d="M3.123810 52.793938
L3.099048 52.843462
" />
<path d="M3.099048 52.843462
L3.099048 52.942510
" />
<path d="M3.099048 52.942510
L3.123810 52.992034
" />
<path d="M3.123810 52.992034
L3.148572 53.016796
" />
<path d="M3.148572 53.016796
L3.198096 53.041557
" />
<path d="M3.198096 53.041557
L3.297143 53.041557
" />
<path d="M3.297143 53.041557
L3.346667 53.016796
" />
<path d="M3.346667 53.016796
L3.371429 52.992034
" />
<path d="M3.371429 52.992034
L3.396191 52.942510
" />
<path d="M3.396191 52.942510
L3.396191 52.843462
" />
<path d="M3.396191 52.843462
L3.371429 52.793938
" />
<path d="M3.371429 52.793938
L3.346667 52.769176
" />
<path d="M3.346667 52.769176
L3.297143 52.744415
" />
</g></g>
<g style="fill:none; 
stroke:#AFAFAF; stroke-width:0.100000; stroke-opacity:1; 
stroke-linecap:round; stroke-linejoin:round;">
<circle cx="3.000000" cy="52.803250" r="0.780000" /> 
</g>
<g style="fill:none; 
stroke:#AFAFAF; stroke-width:0.043333; stroke-opacity:1; 
stroke-linecap:round; stroke-linejoin:round;">
<text x="3.000000" y="55.603250"
textLength="1.016476" font-size="0.693333" lengthAdjust="spacingAndGlyphs"
text-anchor="middle" opacity="0" stroke-opacity="0">19</text>
<g class="stroked-text"><desc>19</desc>
<path d="M2.900953 55.581557
L2.603810 55.581557
" />
<path d="M2.752382 55.581557
L2.752382 55.061557
" />
<path d="M2.752382 55.061557
L2.702858 55.135843
" />
<path d="M2.702858 55.135843
L2.653334 55.185367
" />
<path d="M2.653334 55.185367
L2.603810 55.210129
" />
<path d="M3.148572 55.581557
L3.247620 55.581557
" />
<path d="M3.247620 55.581557
L3.297143 55.556796
" />
<path d="M3.297143 55.556796
L3.321905 55.532034
" />
<path d="M3.321905 55.532034
L3.371429 55.457748
" />
<path d="M3.371429 55.457748
L3.396191 55.358700
" />
<path d="M3.396191 55.358700
L3.396191 55.160605
" />
<path d="M3.396191 55.160605
L3.371429 55.111081
" />
<path d="M3.371429 55.111081
L3.346667 55.086319
" />
<path d="M3.346667 55.086319
L3.297143 55.061557
" />
<path d="M3.297143 55.061557
L3.198096 55.061557
" />
<path d="M3.198096 55.061557
L3.148572 55.086319
" />
<path d="M3.148572 55.086319
L3.123810 55.111081
" />
<path d="M3.123810 55.111081
L3.099048 55.160605
" />
<path d="M3.099048 55.160605
L3.099048 55.284415
" />
<path d="M3.099048 55.284415
L3.123810 55.333938
" />
<path d="M3.123810 55.333938
L3.148572 55.358700
" />
<path d="M3.148572 55.358700
L3.198096 55.383462
" />
<path d="M3.198096 55.383462
L3.297143 55.383462
" />
<path d="M3.297143 55.383462
L3.346667 55.358700
" />
<path d="M3.346667 55.358700
L3.371429 55.333938
" />
<path d="M3.371429 55.333938
L3.396191 55.284415
" />
</g></g>
<g style="fill:none; 
stroke:#AFAFAF; stroke-width:0.100000; stroke-opacity:1; 
stroke-linecap:round; stroke-linejoin:round;">
<circle cx="3.000000" cy="55.343250" r="0.780000" /> 
</g>
<g style="fill:none; 
stroke:#AFAFAF; stroke-width:0.043333; stroke-opacity:1; 
stroke-linecap:round; stroke-linejoin:round;">
<text x="28.400000" y="9.883250"
textLength="1.016476" font-size="0.693333" lengthAdjust="spacingAndGlyphs"
text-anchor="middle" opacity="0" stroke-opacity="0">20</text>
<g class="stroked-text"><desc>20</desc>
<path d="M28.003809 9.391082
L28.028571 9.366320
" />
<path d="M28.028571 9.366320
L28.078095 9.341558
" />
<path d="M28.078095 9.341558
L28.201904 9.341558
" />
<path d="M28.201904 9.341558
L28.251428 9.366320
" />
<path d="M28.251428 9.366320
L28.276190 9.391082
" />
<path d="M28.276190 9.391082
L28.300952 9.440606
" />
<path d="M28.300952 9.440606
L28.300952 9.490130
" />
<path d="M28.300952 9.490130
L28.276190 9.564416
" />
<path d="M28.276190 9.564416
L27.979047 9.861558
" />
<path d="M27.979047 9.861558
L28.300952 9.861558
" />
<path d="M28.622857 9.341558
L28.672380 9.341558
" />
<path d="M28.672380 9.341558
L28.721904 9.366320
" />
<path d="M28.721904 9.366320
L28.746666 9.391082
" />
<path d="M28.746666 9.391082
L28.771428 9.440606
" />
<path d="M28.771428 9.440606
L28.796190 9.539654
" />
<path d="M28.796190 9.539654
L28.796190 9.663463
" />
<path d="M28.796190 9.663463
L28.771428 9.762511
" />
<path d="M28.771428 9.762511
L28.746666 9.812035
" />
<path d="M28.746666 9.812035
L28.721904 9.836796
" />
<path d="M28.721904 9.836796
L28.672380 9.861558
" />
<path d="M28.672380 9.861558
L28.622857 9.861558
" />
<path d="M28.622857 9.861558
L28.573333 9.836796
" />
<path d="M28.573333 9.836796
L28.548571 9.812035
" />
<path d="M28.548571 9.812035
L28.523809 9.762511
" />
<path d="M28.523809 9.762511
L28.499047 9.663463
" />
<path d="M28.499047 9.663463
L28.499047 9.539654
" />
<path d="M28.499047 9.539654
L28.523809 9.440606
" />
<path d="M28.523809 9.440606
L28.548571 9.391082
" />
<path d="M28.548571 9.391082
L28.573333 9.366320
" />
<path d="M28.573333 9.366320
L28.622857 9.341558
" />
</g></g>
<g style="fill:none; 
stroke:#AFAFAF; stroke-width:0.100000; stroke-opacity:1; 
stroke-linecap:round; stroke-linejoin:round;">
<circle cx="28.400000" cy="9.623250" r="0.780000" /> 
</g>
<g style="fill:none; 
stroke:#AFAFAF; stroke-width:0.043333; stroke-opacity:1; 
stroke-linecap:round; stroke-linejoin:round;">
<text x="28.400000" y="12.423250"
textLength="1.016476" font-size="0.693333" lengthAdjust="spacingAndGlyphs"
text-anchor="middle" opacity="0" stroke-opacity="0">21</text>
<g class="stroked-text"><desc>21</desc>
<path d="M28.003809 11.931082
L28.028571 11.906320
" />
<path d="M28.028571 11.906320
L28.078095 11.881558
" />
<path d="M28.078095 11.881558
L28.201904 11.881558
" />
<path d="M28.201904 11.881558
L28.251428 11.906320
" />
<path d="M28.251428 11.906320
L28.276190 11.931082
" />
<path d="M28.276190 11.931082
L28.300952 11.980606
" />
<path d="M28.300952 11.980606
L28.300952 12.030130
" />
<path d="M28.300952 12.030130
L28.276190 12.104416
" />
<path d="M28.276190 12.104416
L27.979047 12.401558
" />
<path d="M27.979047 12.401558
L28.300952 12.401558
" />
<path d="M28.796190 12.401558
L28.499047 12.401558
" />
<path d="M28.647619 12.401558
L28.647619 11.881558
" />
<path d="M28.647619 11.881558
L28.598095 11.955844
" />
<path d="M28.598095 11.955844
L28.548571 12.005368
" />
<path d="M28.548571 12.005368
L28.499047 12.030130
" />
</g></g>
<g style="fill:none; 
stroke:#AFAFAF; stroke-width:0.100000; stroke-opacity:1; 
stroke-linecap:round; stroke-linejoin:round;">
<circle cx="28.400000" cy="12.163250" r="0.780000" /> 
</g>
<g style="fill:none; 
stroke:#AFAFAF; stroke-width:0.043333; stroke-opacity:1; 
stroke-linecap:round; stroke-linejoin:round;">
<text x="28.400000" y="14.963250"
textLength="1.016476" font-size="0.693333" lengthAdjust="spacingAndGlyphs"
text-anchor="middle" opacity="0" stroke-opacity="0">22</text>
<g class="stroked-text"><desc>22</desc>
<path d="M28.003809 14.471082
L28.028571 14.446320
" />
<path d="M28.028571 14.446320
L28.078095 14.421558
" />
<path d="M28.078095 14.421558
L28.201904 14.421558
" />
<path d="M28.201904 14.421558
L28.251428 14.446320
" />
<path d="M28.251428 14.446320
L28.276190 14.471082
" />
<path d="M28.276190 14.471082
L28.300952 14.520606
" />
<path d="M28.300952 14.520606
L28.300952 14.570130
" />
<path d="M28.300952 14.570130
L28.276190 14.644416
" />
<path d="M28.276190 14.644416
L27.979047 14.941558
" />
<path d="M27.979047 14.941558
L28.300952 14.941558
" />
<path d="M28.499047 14.471082
L28.523809 14.446320
" />
<path d="M28.523809 14.446320
L28.573333 14.421558
" />
<path d="M28.573333 14.421558
L28.697142 14.421558
" />
<path d="M28.697142 14.421558
L28.746666 14.446320
" />
<path d="M28.746666 14.446320
L28.771428 14.471082
" />
<path d="M28.771428 14.471082
L28.796190 14.520606
" />
<path d="M28.796190 14.520606
L28.796190 14.570130
" />
<path d="M28.796190 14.570130
L28.771428 14.644416
" />
<path d="M28.771428 14.644416
L28.474285 14.941558
" />
<path d="M28.474285 14.941558
L28.796190 14.941558
" />
</g></g>
<g style="fill:none; 
stroke:#AFAFAF; stroke-width:0.100000; stroke-opacity:1; 
stroke-linecap:round; stroke-linejoin:round;">
<circle cx="28.400000" cy="14.703250" r="0.780000" /> 
</g>
<g style="fill:none; 
stroke:#AFAFAF; stroke-width:0.043333; stroke-opacity:1; 
stroke-linecap:round; stroke-linejoin:round;">
<text x="28.400000" y="17.503250"
textLength="1.016476" font-size="0.693333" lengthAdjust="spacingAndGlyphs"
text-anchor="middle" opacity="0" stroke-opacity="0">23</text>
<g class="stroked-text"><desc>23</desc>
<path d="M28.003809 17.011082
L28.028571 16.986320
" />
<path d="M28.028571 16.986320
L28.078095 16.961558
" />
<path d="M28.078095 16.961558
L28.201904 16.961558
" />
<path d="M28.201904 16.961558
L28.251428 16.986320
" />
<path d="M28.251428 16.986320
L28.276190 17.011082
" />
<path d="M28.276190 17.011082
L28.300952 17.060606
" />
<path d="M28.300952 17.060606
L28.300952 17.110130
" />
<path d="M28.300952 17.110130
L28.276190 17.184416
" />
<path d="M28.276190 17.184416
L27.979047 17.481558
" />
<path d="M27.979047 17.481558
L28.300952 17.481558
" />
<path d="M28.474285 16.961558
L28.796190 16.961558
" />
<path d="M28.796190 16.961558
L28.622857 17.159654
" />
<path d="M28.622857 17.159654
L28.697142 17.159654
" />
<path d="M28.697142 17.159654
L28.746666 17.184416
" />
<path d="M28.746666 17.184416
L28.771428 17.209177
" />
<path d="M28.771428 17.209177
L28.796190 17.258701
" />
<path d="M28.796190 17.258701
L28.796190 17.382511
" />
<path d="M28.796190 17.382511
L28.771428 17.432035
" />
<path d="M28.771428 17.432035
L28.746666 17.456796
" />
<path d="M28.746666 17.456796
L28.697142 17.481558
" />
<path d="M28.697142 17.481558
L28.548571 17.481558
" />
<path d="M28.548571 17.481558
L28.499047 17.456796
" />
<path d="M28.499047 17.456796
L28.474285 17.432035
" />
</g></g>
<g style="fill:none; 
stroke:#AFAFAF; stroke-width:0.100000; stroke-opacity:1; 
stroke-linecap:round; stroke-linejoin:round;">
<circle cx="28.400000" cy="17.243250" r="0.780000" /> 
</g>
<g style="fill:none; 
stroke:#AFAFAF; stroke-width:0.043333; stroke-opacity:1; 
stroke-linecap:round; stroke-linejoin:round;">
<text x="28.400000" y="20.043250"
textLength="1.016476" font-size="0.693333" lengthAdjust="spacingAndGlyphs"
text-anchor="middle" opacity="0" stroke-opacity="0">24</text>
<g class="stroked-text"><desc>24</desc>
<path d="M28.003809 19.551082
L28.028571 19.526320
" />
<path d="M28.028571 19.526320
L28.078095 19.501558
" />
<path d="M28.078095 19.501558
L28.201904 19.501558
" />
<path d="M28.201904 19.501558
L28.251428 19.526320
" />
<path d="M28.251428 19.526320
L28.276190 19.551082
" />
<path d="M28.276190 19.551082
L28.300952 19.600606
" />
<path d="M28.300952 19.600606
L28.300952 19.650130
" />
<path d="M28.300952 19.650130
L28.276190 19.724416
" />
<path d="M28.276190 19.724416
L27.979047 20.021558
" />
<path d="M27.979047 20.021558
L28.300952 20.021558
" />
<path d="M28.746666 19.674892
L28.746666 20.021558
" />
<path d="M28.622857 19.476796
L28.499047 19.848225
" />
<path d="M28.499047 19.848225
L28.820952 19.848225
" />
</g></g>
<g style="fill:none; 
stroke:#AFAFAF; stroke-width:0.100000; stroke-opacity:1; 
stroke-linecap:round; stroke-linejoin:round;">
<circle cx="28.400000" cy="19.783250" r="0.780000" /> 
</g>
<g style="fill:none; 
stroke:#AFAFAF; stroke-width:0.043333; stroke-opacity:1; 
stroke-linecap:round; stroke-linejoin:round;">
<text x="28.400000" y="22.583250"
textLength="1.016476" font-size="0.693333" lengthAdjust="spacingAndGlyphs"
text-anchor="middle" opacity="0" stroke-opacity="0">25</text>
<g class="stroked-text"><desc>25</desc>
<path d="M28.003809 22.091082
L28.028571 22.066320
" />
<path d="M28.028571 22.066320
L28.078095 22.041558
" />
<path d="M28.078095 22.041558
L28.201904 22.041558
" />
<path d="M28.201904 22.041558
L28.251428 22.066320
" />
<path d="M28.251428 22.066320
L28.276190 22.091082
" />
<path d="M28.276190 22.091082
L28.300952 22.140606
" />
<path d="M28.300952 22.140606
L28.300952 22.190130
" />
<path d="M28.300952 22.190130
L28.276190 22.264416
" />
<path d="M28.276190 22.264416
L27.979047 22.561558
" />
<path d="M27.979047 22.561558
L28.300952 22.561558
" />
<path d="M28.771428 22.041558
L28.523809 22.041558
" />
<path d="M28.523809 22.041558
L28.499047 22.289177
" />
<path d="M28.499047 22.289177
L28.523809 22.264416
" />
<path d="M28.523809 22.264416
L28.573333 22.239654
" />
<path d="M28.573333 22.239654
L28.697142 22.239654
" />
<path d="M28.697142 22.239654
L28.746666 22.264416
" />
<path d="M28.746666 22.264416
L28.771428 22.289177
" />
<path d="M28.771428 22.289177
L28.796190 22.338701
" />
<path d="M28.796190 22.338701
L28.796190 22.462511
" />
<path d="M28.796190 22.462511
L28.771428 22.512035
" />
<path d="M28.771428 22.512035
L28.746666 22.536796
" />
<path d="M28.746666 22.536796
L28.697142 22.561558
" />
<path d="M28.697142 22.561558
L28.573333 22.561558
" />
<path d="M28.573333 22.561558
L28.523809 22.536796
" />
<path d="M28.523809 22.536796
L28.499047 22.512035
" />
</g></g>
<g style="fill:none; 
stroke:#AFAFAF; stroke-width:0.100000; stroke-opacity:1; 
stroke-linecap:round; stroke-linejoin:round;">
<circle cx="28.400000" cy="22.323250" r="0.780000" /> 
</g>
<g style="fill:none; 
stroke:#AFAFAF; stroke-width:0.043333; stroke-opacity:1; 
stroke-linecap:round; stroke-linejoin:round;">
<text x="28.400000" y="25.123250"
textLength="1.016476" font-size="0.693333" lengthAdjust="spacingAndGlyphs"
text-anchor="middle" opacity="0" stroke-opacity="0">26</text>
<g class="stroked-text"><desc>26</desc>
<path d="M28.003809 24.631082
L28.028571 24.606320
" />
<path d="M28.028571 24.606320
L28.078095 24.581558
" />
<path d="M28.078095 24.581558
L28.201904 24.581558
" />
<path d="M28.201904 24.581558
L28.251428 24.606320
" />
<path d="M28.251428 24.606320
L28.276190 24.631082
" />
<path d="M28.276190 24.631082
L28.300952 24.680606
" />
<path d="M28.300952 24.680606
L28.300952 24.730130
" />
<path d="M28.300952 24.730130
L28.276190 24.804416
" />
<path d="M28.276190 24.804416
L27.979047 25.101558
" />
<path d="M27.979047 25.101558
L28.300952 25.101558
" />
<path d="M28.746666 24.581558
L28.647619 24.581558
" />
<path d="M28.647619 24.581558
L28.598095 24.606320
" />
<path d="M28.598095 24.606320
L28.573333 24.631082
" />
<path d="M28.573333 24.631082
L28.523809 24.705368
" />
<path d="M28.523809 24.705368
L28.499047 24.804416
" />
<path d="M28.499047 24.804416
L28.499047 25.002511
" />
<path d="M28.499047 25.002511
L28.523809 25.052035
" />
<path d="M28.523809 25.052035
L28.548571 25.076796
" />
<path d="M28.548571 25.076796
L28.598095 25.101558
" />
<path d="M28.598095 25.101558
L28.697142 25.101558
" />
<path d="M28.697142 25.101558
L28.746666 25.076796
" />
<path d="M28.746666 25.076796
L28.771428 25.052035
" />
<path d="M28.771428 25.052035
L28.796190 25.002511
" />
<path d="M28.796190 25.002511
L28.796190 24.878701
" />
<path d="M28.796190 24.878701
L28.771428 24.829177
" />
<path d="M28.771428 24.829177
L28.746666 24.804416
" />
<path d="M28.746666 24.804416
L28.697142 24.779654
" />
<path d="M28.697142 24.779654
L28.598095 24.779654
" />
<path d="M28.598095 24.779654
L28.548571 24.804416
" />
<path d="M28.548571 24.804416
L28.523809 24.829177
" />
<path d="M28.523809 24.829177
L28.499047 24.878701
" />
</g></g>
<g style="fill:none; 
stroke:#AFAFAF; stroke-width:0.100000; stroke-opacity:1; 
stroke-linecap:round; stroke-linejoin:round;">
<circle cx="28.400000" cy="24.863250" r="0.780000" /> 
</g>
<g style="fill:none; 
stroke:#AFAFAF; stroke-width:0.043333; stroke-opacity:1; 
stroke-linecap:round; stroke-linejoin:round;">
<text x="28.400000" y="27.663250"
textLength="1.016476" font-size="0.693333" lengthAdjust="spacingAndGlyphs"
text-anchor="middle" opacity="0" stroke-opacity="0">27</text>
<g class="stroked-text"><desc>27</desc>
<path d="M28.003809 27.171082
L28.028571 27.146320
" />
<path d="M28.028571 27.146320
L28.078095 27.121558
" />
<path d="M28.078095 27.121558
L28.201904 27.121558
" />
<path d="M28.201904 27.121558
L28.251428 27.146320
" />
<path d="M28.251428 27.146320
L28.276190 27.171082
" />
<path d="M28.276190 27.171082
L28.300952 27.220606
" />
<path d="M28.300952 27.220606
L28.300952 27.270130
" />
<path d="M28.300952 27.270130
L28.276190 27.344416
" />
<path d="M28.276190 27.344416
L27.979047 27.641558
" />
<path d="M27.979047 27.641558
L28.300952 27.641558
" />
<path d="M28.474285 27.121558
L28.820952 27.121558
" />
<path d="M28.820952 27.121558
L28.598095 27.641558
" />
</g></g>
<g style="fill:none; 
stroke:#AFAFAF; stroke-width:0.100000; stroke-opacity:1; 
stroke-linecap:round; stroke-linejoin:round;">
<circle cx="28.400000" cy="27.403250" r="0.780000" /> 
</g>
<g style="fill:none; 
stroke:#AFAFAF; stroke-width:0.043333; stroke-opacity:1; 
stroke-linecap:round; stroke-linejoin:round;">
<text x="28.400000" y="30.203250"
textLength="1.016476" font-size="0.693333" lengthAdjust="spacingAndGlyphs"
text-anchor="middle" opacity="0" stroke-opacity="0">28</text>
<g class="stroked-text"><desc>28</desc>
<path d="M28.003809 29.711082
L28.028571 29.686320
" />
<path d="M28.028571 29.686320
L28.078095 29.661558
" />
<path d="M28.078095 29.661558
L28.201904 29.661558
" />
<path d="M28.201904 29.661558
L28.251428 29.686320
" />
<path d="M28.251428 29.686320
L28.276190 29.711082
" />
<path d="M28.276190 29.711082
L28.300952 29.760606
" />
<path d="M28.300952 29.760606
L28.300952 29.810130
" />
<path d="M28.300952 29.810130
L28.276190 29.884416
" />
<path d="M28.276190 29.884416
L27.979047 30.181558
" />
<path d="M27.979047 30.181558
L28.300952 30.181558
" />
<path d="M28.598095 29.884416
L28.548571 29.859654
" />
<path d="M28.548571 29.859654
L28.523809 29.834892
" />
<path d="M28.523809 29.834892
L28.499047 29.785368
" />
<path d="M28.499047 29.785368
L28.499047 29.760606
" />
<path d="M28.499047 29.760606
L28.523809 29.711082
" />
<path d="M28.523809 29.711082
L28.548571 29.686320
" />
<path d="M28.548571 29.686320
L28.598095 29.661558
" />
<path d="M28.598095 29.661558
L28.697142 29.661558
" />
<path d="M28.697142 29.661558
L28.746666 29.686320
" />
<path d="M28.746666 29.686320
L28.771428 29.711082
" />
<path d="M28.771428 29.711082
L28.796190 29.760606
" />
<path d="M28.796190 29.760606
L28.796190 29.785368
" />
<path d="M28.796190 29.785368
L28.771428 29.834892
" />
<path d="M28.771428 29.834892
L28.746666 29.859654
" />
<path d="M28.746666 29.859654
L28.697142 29.884416
" />
<path d="M28.697142 29.884416
L28.598095 29.884416
" />
<path d="M28.598095 29.884416
L28.548571 29.909177
" />
<path d="M28.548571 29.909177
L28.523809 29.933939
" />
<path d="M28.523809 29.933939
L28.499047 29.983463
" />
<path d="M28.499047 29.983463
L28.499047 30.082511
" />
<path d="M28.499047 30.082511
L28.523809 30.132035
" />
<path d="M28.523809 30.132035
L28.548571 30.156796
" />
<path d="M28.548571 30.156796
L28.598095 30.181558
" />
<path d="M28.598095 30.181558
L28.697142 30.181558
" />
<path d="M28.697142 30.181558
L28.746666 30.156796
" />
<path d="M28.746666 30.156796
L28.771428 30.132035
" />
<path d="M28.771428 30.132035
L28.796190 30.082511
" />
<path d="M28.796190 30.082511
L28.796190 29.983463
" />
<path d="M28.796190 29.983463
L28.771428 29.933939
" />
<path d="M28.771428 29.933939
L28.746666 29.909177
" />
<path d="M28.746666 29.909177
L28.697142 29.884416
" />
</g></g>
<g style="fill:none; 
stroke:#AFAFAF; stroke-width:0.100000; stroke-opacity:1; 
stroke-linecap:round; stroke-linejoin:round;">
<circle cx="28.400000" cy="29.943250" r="0.780000" /> 
</g>
<g style="fill:none; 
stroke:#AFAFAF; stroke-width:0.043333; stroke-opacity:1; 
stroke-linecap:round; stroke-linejoin:round;">
<text x="28.400000" y="32.743250"
textLength="1.016476" font-size="0.693333" lengthAdjust="spacingAndGlyphs"
text-anchor="middle" opacity="0" stroke-opacity="0">29</text>
<g class="stroked-text"><desc>29</desc>
<path d="M28.003809 32.251082
L28.028571 32.226320
" />
<path d="M28.028571 32.226320
L28.078095 32.201558
" />
<path d="M28.078095 32.201558
L28.201904 32.201558
" />
<path d="M28.201904 32.201558
L28.251428 32.226320
" />
<path d="M28.251428 32.226320
L28.276190 32.251082
" />
<path d="M28.276190 32.251082
L28.300952 32.300606
" />
<path d="M28.300952 32.300606
L28.300952 32.350130
" />
<path d="M28.300952 32.350130
L28.276190 32.424416
" />
<path d="M28.276190 32.424416
L27.979047 32.721557
" />
<path d="M27.979047 32.721557
L28.300952 32.721557
" />
<path d="M28.548571 32.721557
L28.647619 32.721557
" />
<path d="M28.647619 32.721557
L28.697142 32.696796
" />
<path d="M28.697142 32.696796
L28.721904 32.672034
" />
<path d="M28.721904 32.672034
L28.771428 32.597748
" />
<path d="M28.771428 32.597748
L28.796190 32.498700
" />
<path d="M28.796190 32.498700
L28.796190 32.300606
" />
<path d="M28.796190 32.300606
L28.771428 32.251082
" />
<path d="M28.771428 32.251082
L28.746666 32.226320
" />
<path d="M28.746666 32.226320
L28.697142 32.201558
" />
<path d="M28.697142 32.201558
L28.598095 32.201558
" />
<path d="M28.598095 32.201558
L28.548571 32.226320
" />
<path d="M28.548571 32.226320
L28.523809 32.251082
" />
<path d="M28.523809 32.251082
L28.499047 32.300606
" />
<path d="M28.499047 32.300606
L28.499047 32.424416
" />
<path d="M28.499047 32.424416
L28.523809 32.473939
" />
<path d="M28.523809 32.473939
L28.548571 32.498700
" />
<path d="M28.548571 32.498700
L28.598095 32.523462
" />
<path d="M28.598095 32.523462
L28.697142 32.523462
" />
<path d="M28.697142 32.523462
L28.746666 32.498700
" />
<path d="M28.746666 32.498700
L28.771428 32.473939
" />
<path d="M28.771428 32.473939
L28.796190 32.424416
" />
</g></g>
<g style="fill:none; 
stroke:#AFAFAF; stroke-width:0.100000; stroke-opacity:1; 
stroke-linecap:round; stroke-linejoin:round;">
<circle cx="28.400000" cy="32.483250" r="0.780000" /> 
</g>
<g style="fill:none; 
stroke:#AFAFAF; stroke-width:0.043333; stroke-opacity:1; 
stroke-linecap:round; stroke-linejoin:round;">
<text x="28.400000" y="35.283250"
textLength="1.016476" font-size="0.693333" lengthAdjust="spacingAndGlyphs"
text-anchor="middle" opacity="0" stroke-opacity="0">30</text>
<g class="stroked-text"><desc>30</desc>
<path d="M27.979047 34.741557
L28.300952 34.741557
" />
<path d="M28.300952 34.741557
L28.127619 34.939653
" />
<path d="M28.127619 34.939653
L28.201904 34.939653
" />
<path d="M28.201904 34.939653
L28.251428 34.964415
" />
<path d="M28.251428 34.964415
L28.276190 34.989176
" />
<path d="M28.276190 34.989176
L28.300952 35.038700
" />
<path d="M28.300952 35.038700
L28.300952 35.162510
" />
<path d="M28.300952 35.162510
L28.276190 35.212034
" />
<path d="M28.276190 35.212034
L28.251428 35.236796
" />
<path d="M28.251428 35.236796
L28.201904 35.261557
" />
<path d="M28.201904 35.261557
L28.053333 35.261557
" />
<path d="M28.053333 35.261557
L28.003809 35.236796
" />
<path d="M28.003809 35.236796
L27.979047 35.212034
" />
<path d="M28.622857 34.741557
L28.672380 34.741557
" />
<path d="M28.672380 34.741557
L28.721904 34.766319
" />
<path d="M28.721904 34.766319
L28.746666 34.791081
" />
<path d="M28.746666 34.791081
L28.771428 34.840605
" />
<path d="M28.771428 34.840605
L28.796190 34.939653
" />
<path d="M28.796190 34.939653
L28.796190 35.063462
" />
<path d="M28.796190 35.063462
L28.771428 35.162510
" />
<path d="M28.771428 35.162510
L28.746666 35.212034
" />
<path d="M28.746666 35.212034
L28.721904 35.236796
" />
<path d="M28.721904 35.236796
L28.672380 35.261557
" />
<path d="M28.672380 35.261557
L28.622857 35.261557
" />
<path d="M28.622857 35.261557
L28.573333 35.236796
" />
<path d="M28.573333 35.236796
L28.548571 35.212034
" />
<path d="M28.548571 35.212034
L28.523809 35.162510
" />
<path d="M28.523809 35.162510
L28.499047 35.063462
" />
<path d="M28.499047 35.063462
L28.499047 34.939653
" />
<path d="M28.499047 34.939653
L28.523809 34.840605
" />
<path d="M28.523809 34.840605
L28.548571 34.791081
" />
<path d="M28.548571 34.791081
L28.573333 34.766319
" />
<path d="M28.573333 34.766319
L28.622857 34.741557
" />
</g></g>
<g style="fill:none; 
stroke:#AFAFAF; stroke-width:0.100000; stroke-opacity:1; 
stroke-linecap:round; stroke-linejoin:round;">
<circle cx="28.400000" cy="35.023250" r="0.780000" /> 
</g>
<g style="fill:none; 
stroke:#AFAFAF; stroke-width:0.043333; stroke-opacity:1; 
stroke-linecap:round; stroke-linejoin:round;">
<text x="28.400000" y="37.823250"
textLength="1.016476" font-size="0.693333" lengthAdjust="spacingAndGlyphs"
text-anchor="middle" opacity="0" stroke-opacity="0">31</text>
<g class="stroked-text"><desc>31</desc>
<path d="M27.979047 37.281557
L28.300952 37.281557
" />
<path d="M28.300952 37.281557
L28.127619 37.479653
" />
<path d="M28.127619 37.479653
L28.201904 37.479653
" />
<path d="M28.201904 37.479653
L28.251428 37.504415
" />
<path d="M28.251428 37.504415
L28.276190 37.529176
" />
<path d="M28.276190 37.529176
L28.300952 37.578700
" />
<path d="M28.300952 37.578700
L28.300952 37.702510
" />
<path d="M28.300952 37.702510
L28.276190 37.752034
" />
<path d="M28.276190 37.752034
L28.251428 37.776796
" />
<path d="M28.251428 37.776796
L28.201904 37.801557
" />
<path d="M28.201904 37.801557
L28.053333 37.801557
" />
<path d="M28.053333 37.801557
L28.003809 37.776796
" />
<path d="M28.003809 37.776796
L27.979047 37.752034
" />
<path d="M28.796190 37.801557
L28.499047 37.801557
" />
<path d="M28.647619 37.801557
L28.647619 37.281557
" />
<path d="M28.647619 37.281557
L28.598095 37.355843
" />
<path d="M28.598095 37.355843
L28.548571 37.405367
" />
<path d="M28.548571 37.405367
L28.499047 37.430129
" />
</g></g>
<g style="fill:none; 
stroke:#AFAFAF; stroke-width:0.100000; stroke-opacity:1; 
stroke-linecap:round; stroke-linejoin:round;">
<circle cx="28.400000" cy="37.563250" r="0.780000" /> 
</g>
<g style="fill:none; 
stroke:#AFAFAF; stroke-width:0.043333; stroke-opacity:1; 
stroke-linecap:round; stroke-linejoin:round;">
<text x="28.400000" y="40.363250"
textLength="1.016476" font-size="0.693333" lengthAdjust="spacingAndGlyphs"
text-anchor="middle" opacity="0" stroke-opacity="0">32</text>
<g class="stroked-text"><desc>32</desc>
<path d="M27.979047 39.821557
L28.300952 39.821557
" />
<path d="M28.300952 39.821557
L28.127619 40.019653
" />
<path d="M28.127619 40.019653
L28.201904 40.019653
" />
<path d="M28.201904 40.019653
L28.251428 40.044415
" />
<path d="M28.251428 40.044415
L28.276190 40.069176
" />
<path d="M28.276190 40.069176
L28.300952 40.118700
" />
<path d="M28.300952 40.118700
L28.300952 40.242510
" />
<path d="M28.300952 40.242510
L28.276190 40.292034
" />
<path d="M28.276190 40.292034
L28.251428 40.316796
" />
<path d="M28.251428 40.316796
L28.201904 40.341557
" />
<path d="M28.201904 40.341557
L28.053333 40.341557
" />
<path d="M28.053333 40.341557
L28.003809 40.316796
" />
<path d="M28.003809 40.316796
L27.979047 40.292034
" />
<path d="M28.499047 39.871081
L28.523809 39.846319
" />
<path d="M28.523809 39.846319
L28.573333 39.821557
" />
<path d="M28.573333 39.821557
L28.697142 39.821557
" />
<path d="M28.697142 39.821557
L28.746666 39.846319
" />
<path d="M28.746666 39.846319
L28.771428 39.871081
" />
<path d="M28.771428 39.871081
L28.796190 39.920605
" />
<path d="M28.796190 39.920605
L28.796190 39.970129
" />
<path d="M28.796190 39.970129
L28.771428 40.044415
" />
<path d="M28.771428 40.044415
L28.474285 40.341557
" />
<path d="M28.474285 40.341557
L28.796190 40.341557
" />
</g></g>
<g style="fill:none; 
stroke:#AFAFAF; stroke-width:0.100000; stroke-opacity:1; 
stroke-linecap:round; stroke-linejoin:round;">
<circle cx="28.400000" cy="40.103250" r="0.780000" /> 
</g>
<g style="fill:none; 
stroke:#AFAFAF; stroke-width:0.043333; stroke-opacity:1; 
stroke-linecap:round; stroke-linejoin:round;">
<text x="28.400000" y="42.903250"
textLength="1.016476" font-size="0.693333" lengthAdjust="spacingAndGlyphs"
text-anchor="middle" opacity="0" stroke-opacity="0">33</text>
<g class="stroked-text"><desc>33</desc>
<path d="M27.979047 42.361557
L28.300952 42.361557
" />
<path d="M28.300952 42.361557
L28.127619 42.559653
" />
<path d="M28.127619 42.559653
L28.201904 42.559653
" />
<path d="M28.201904 42.559653
L28.251428 42.584415
" />
<path d="M28.251428 42.584415
L28.276190 42.609176
" />
<path d="M28.276190 42.609176
L28.300952 42.658700
" />
<path d="M28.300952 42.658700
L28.300952 42.782510
" />
<path d="M28.300952 42.782510
L28.276190 42.832034
" />
<path d="M28.276190 42.832034
L28.251428 42.856796
" />
<path d="M28.251428 42.856796
L28.201904 42.881557
" />
<path d="M28.201904 42.881557
L28.053333 42.881557
" />
<path d="M28.053333 42.881557
L28.003809 42.856796
" />
<path d="M28.003809 42.856796
L27.979047 42.832034
" />
<path d="M28.474285 42.361557
L28.796190 42.361557
" />
<path d="M28.796190 42.361557
L28.622857 42.559653
" />
<path d="M28.622857 42.559653
L28.697142 42.559653
" />
<path d="M28.697142 42.559653
L28.746666 42.584415
" />
<path d="M28.746666 42.584415
L28.771428 42.609176
" />
<path d="M28.771428 42.609176
L28.796190 42.658700
" />
<path d="M28.796190 42.658700
L28.796190 42.782510
" />
<path d="M28.796190 42.782510
L28.771428 42.832034
" />
<path d="M28.771428 42.832034
L28.746666 42.856796
" />
<path d="M28.746666 42.856796
L28.697142 42.881557
" />
<path d="M28.697142 42.881557
L28.548571 42.881557
" />
<path d="M28.548571 42.881557
L28.499047 42.856796
" />
<path d="M28.499047 42.856796
L28.474285 42.832034
" />
</g></g>
<g style="fill:none; 
stroke:#AFAFAF; stroke-width:0.100000; stroke-opacity:1; 
stroke-linecap:round; stroke-linejoin:round;">
<circle cx="28.400000" cy="42.643250" r="0.780000" /> 
</g>
<g style="fill:none; 
stroke:#AFAFAF; stroke-width:0.043333; stroke-opacity:1; 
stroke-linecap:round; stroke-linejoin:round;">
<text x="28.400000" y="45.443250"
textLength="1.016476" font-size="0.693333" lengthAdjust="spacingAndGlyphs"
text-anchor="middle" opacity="0" stroke-opacity="0">34</text>
<g class="stroked-text"><desc>34</desc>
<path d="M27.979047 44.901557
L28.300952 44.901557
" />
<path d="M28.300952 44.901557
L28.127619 45.099653
" />
<path d="M28.127619 45.099653
L28.201904 45.099653
" />
<path d="M28.201904 45.099653
L28.251428 45.124415
" />
<path d="M28.251428 45.124415
L28.276190 45.149176
" />
<path d="M28.276190 45.149176
L28.300952 45.198700
" />
<path d="M28.300952 45.198700
L28.300952 45.322510
" />
<path d="M28.300952 45.322510
L28.276190 45.372034
" />
<path d="M28.276190 45.372034
L28.251428 45.396796
" />
<path d="M28.251428 45.396796
L28.201904 45.421557
" />
<path d="M28.201904 45.421557
L28.053333 45.421557
" />
<path d="M28.053333 45.421557
L28.003809 45.396796
" />
<path d="M28.003809 45.396796
L27.979047 45.372034
" />
<path d="M28.746666 45.074891
L28.746666 45.421557
" />
<path d="M28.622857 44.876796
L28.499047 45.248224
" />
<path d="M28.499047 45.248224
L28.820952 45.248224
" />
</g></g>
<g style="fill:none; 
stroke:#AFAFAF; stroke-width:0.100000; stroke-opacity:1; 
stroke-linecap:round; stroke-linejoin:round;">
<circle cx="28.400000" cy="45.183250" r="0.780000" /> 
</g>
<g style="fill:none; 
stroke:#AFAFAF; stroke-width:0.043333; stroke-opacity:1; 
stroke-linecap:round; stroke-linejoin:round;">
<text x="28.400000" y="47.983250"
textLength="1.016476" font-size="0.693333" lengthAdjust="spacingAndGlyphs"
text-anchor="middle" opacity="0" stroke-opacity="0">35</text>
<g class="stroked-text"><desc>35</desc>
<path d="M27.979047 47.441557
L28.300952 47.441557
" />
<path d="M28.300952 47.441557
L28.127619 47.639653
" />
<path d="M28.127619 47.639653
L28.201904 47.639653
" />
<path d="M28.201904 47.639653
L28.251428 47.664415
" />
<path d="M28.251428 47.664415
L28.276190 47.689176
" />
<path d="M28.276190 47.689176
L28.300952 47.738700
" />
<path d="M28.300952 47.738700
L28.300952 47.862510
" />
<path d="M28.300952 47.862510
L28.276190 47.912034
" />
<path d="M28.276190 47.912034
L28.251428 47.936796
" />
<path d="M28.251428 47.936796
L28.201904 47.961557
" />
<path d="M28.201904 47.961557
L28.053333 47.961557
" />
<path d="M28.053333 47.961557
L28.003809 47.936796
" />
<path d="M28.003809 47.936796
L27.979047 47.912034
" />
<path d="M28.771428 47.441557
L28.523809 47.441557
" />
<path d="M28.523809 47.441557
L28.499047 47.689176
" />
<path d="M28.499047 47.689176
L28.523809 47.664415
" />
<path d="M28.523809 47.664415
L28.573333 47.639653
" />
<path d="M28.573333 47.639653
L28.697142 47.639653
" />
<path d="M28.697142 47.639653
L28.746666 47.664415
" />
<path d="M28.746666 47.664415
L28.771428 47.689176
" />
<path d="M28.771428 47.689176
L28.796190 47.738700
" />
<path d="M28.796190 47.738700
L28.796190 47.862510
" />
<path d="M28.796190 47.862510
L28.771428 47.912034
" />
<path d="M28.771428 47.912034
L28.746666 47.936796
" />
<path d="M28.746666 47.936796
L28.697142 47.961557
" />
<path d="M28.697142 47.961557
L28.573333 47.961557
" />
<path d="M28.573333 47.961557
L28.523809 47.936796
" />
<path d="M28.523809 47.936796
L28.499047 47.912034
" />
</g></g>
<g style="fill:none; 
stroke:#AFAFAF; stroke-width:0.100000; stroke-opacity:1; 
stroke-linecap:round; stroke-linejoin:round;">
<circle cx="28.400000" cy="47.723250" r="0.780000" /> 
</g>
<g style="fill:none; 
stroke:#AFAFAF; stroke-width:0.043333; stroke-opacity:1; 
stroke-linecap:round; stroke-linejoin:round;">
<text x="28.400000" y="50.523250"
textLength="1.016476" font-size="0.693333" lengthAdjust="spacingAndGlyphs"
text-anchor="middle" opacity="0" stroke-opacity="0">36</text>
<g class="stroked-text"><desc>36</desc>
<path d="M27.979047 49.981557
L28.300952 49.981557
" />
<path d="M28.300952 49.981557
L28.127619 50.179653
" />
<path d="M28.127619 50.179653
L28.201904 50.179653
" />
<path d="M28.201904 50.179653
L28.251428 50.204415
" />
<path d="M28.251428 50.204415
L28.276190 50.229176
" />
<path d="M28.276190 50.229176
L28.300952 50.278700
" />
<path d="M28.300952 50.278700
L28.300952 50.402510
" />
<path d="M28.300952 50.402510
L28.276190 50.452034
" />
<path d="M28.276190 50.452034
L28.251428 50.476796
" />
<path d="M28.251428 50.476796
L28.201904 50.501557
" />
<path d="M28.201904 50.501557
L28.053333 50.501557
" />
<path d="M28.053333 50.501557
L28.003809 50.476796
" />
<path d="M28.003809 50.476796
L27.979047 50.452034
" />
<path d="M28.746666 49.981557
L28.647619 49.981557
" />
<path d="M28.647619 49.981557
L28.598095 50.006319
" />
<path d="M28.598095 50.006319
L28.573333 50.031081
" />
<path d="M28.573333 50.031081
L28.523809 50.105367
" />
<path d="M28.523809 50.105367
L28.499047 50.204415
" />
<path d="M28.499047 50.204415
L28.499047 50.402510
" />
<path d="M28.499047 50.402510
L28.523809 50.452034
" />
<path d="M28.523809 50.452034
L28.548571 50.476796
" />
<path d="M28.548571 50.476796
L28.598095 50.501557
" />
<path d="M28.598095 50.501557
L28.697142 50.501557
" />
<path d="M28.697142 50.501557
L28.746666 50.476796
" />
<path d="M28.746666 50.476796
L28.771428 50.452034
" />
<path d="M28.771428 50.452034
L28.796190 50.402510
" />
<path d="M28.796190 50.402510
L28.796190 50.278700
" />
<path d="M28.796190 50.278700
L28.771428 50.229176
" />
<path d="M28.771428 50.229176
L28.746666 50.204415
" />
<path d="M28.746666 50.204415
L28.697142 50.179653
" />
<path d="M28.697142 50.179653
L28.598095 50.179653
" />
<path d="M28.598095 50.179653
L28.548571 50.204415
" />
<path d="M28.548571 50.204415
L28.523809 50.229176
" />
<path d="M28.523809 50.229176
L28.499047 50.278700
" />
</g></g>
<g style="fill:none; 
stroke:#AFAFAF; stroke-width:0.100000; stroke-opacity:1; 
stroke-linecap:round; stroke-linejoin:round;">
<circle cx="28.400000" cy="50.263250" r="0.780000" /> 
</g>
<g style="fill:none; 
stroke:#AFAFAF; stroke-width:0.043333; stroke-opacity:1; 
stroke-linecap:round; stroke-linejoin:round;">
<text x="28.400000" y="53.063250"
textLength="1.016476" font-size="0.693333" lengthAdjust="spacingAndGlyphs"
text-anchor="middle" opacity="0" stroke-opacity="0">37</text>
<g class="stroked-text"><desc>37</desc>
<path d="M27.979047 52.521557
L28.300952 52.521557
" />
<path d="M28.300952 52.521557
L28.127619 52.719653
" />
<path d="M28.127619 52.719653
L28.201904 52.719653
" />
<path d="M28.201904 52.719653
L28.251428 52.744415
" />
<path d="M28.251428 52.744415
L28.276190 52.769176
" />
<path d="M28.276190 52.769176
L28.300952 52.818700
" />
<path d="M28.300952 52.818700
L28.300952 52.942510
" />
<path d="M28.300952 52.942510
L28.276190 52.992034
" />
<path d="M28.276190 52.992034
L28.251428 53.016796
" />
<path d="M28.251428 53.016796
L28.201904 53.041557
" />
<path d="M28.201904 53.041557
L28.053333 53.041557
" />
<path d="M28.053333 53.041557
L28.003809 53.016796
" />
<path d="M28.003809 53.016796
L27.979047 52.992034
" />
<path d="M28.474285 52.521557
L28.820952 52.521557
" />
<path d="M28.820952 52.521557
L28.598095 53.041557
" />
</g></g>
<g style="fill:none; 
stroke:#AFAFAF; stroke-width:0.100000; stroke-opacity:1; 
stroke-linecap:round; stroke-linejoin:round;">
<circle cx="28.400000" cy="52.803250" r="0.780000" /> 
</g>
<g style="fill:none; 
stroke:#AFAFAF; stroke-width:0.043333; stroke-opacity:1; 
stroke-linecap:round; stroke-linejoin:round;">
<text x="28.400000" y="55.603250"
textLength="1.016476" font-size="0.693333" lengthAdjust="spacingAndGlyphs"
text-anchor="middle" opacity="0" stroke-opacity="0">38</text>
<g class="stroked-text"><desc>38</desc>
<path d="M27.979047 55.061557
L28.300952 55.061557
" />
<path d="M28.300952 55.061557
L28.127619 55.259653
" />
<path d="M28.127619 55.259653
L28.201904 55.259653
" />
<path d="M28.201904 55.259653
L28.251428 55.284415
" />
<path d="M28.251428 55.284415
L28.276190 55.309176
" />
<path d="M28.276190 55.309176
L28.300952 55.358700
" />
<path d="M28.300952 55.358700
L28.300952 55.482510
" />
<path d="M28.300952 55.482510
L28.276190 55.532034
" />
<path d="M28.276190 55.532034
L28.251428 55.556796
" />
<path d="M28.251428 55.556796
L28.201904 55.581557
" />
<path d="M28.201904 55.581557
L28.053333 55.581557
" />
<path d="M28.053333 55.581557
L28.003809 55.556796
" />
<path d="M28.003809 55.556796
L27.979047 55.532034
" />
<path d="M28.598095 55.284415
L28.548571 55.259653
" />
<path d="M28.548571 55.259653
L28.523809 55.234891
" />
<path d="M28.523809 55.234891
L28.499047 55.185367
" />
<path d="M28.499047 55.185367
L28.499047 55.160605
" />
<path d="M28.499047 55.160605
L28.523809 55.111081
" />
<path d="M28.523809 55.111081
L28.548571 55.086319
" />
<path d="M28.548571 55.086319
L28.598095 55.061557
" />
<path d="M28.598095 55.061557
L28.697142 55.061557
" />
<path d="M28.697142 55.061557
L28.746666 55.086319
" />
<path d="M28.746666 55.086319
L28.771428 55.111081
" />
<path d="M28.771428 55.111081
L28.796190 55.160605
" />
<path d="M28.796190 55.160605
L28.796190 55.185367
" />
<path d="M28.796190 55.185367
L28.771428 55.234891
" />
<path d="M28.771428 55.234891
L28.746666 55.259653
" />
<path d="M28.746666 55.259653
L28.697142 55.284415
" />
<path d="M28.697142 55.284415
L28.598095 55.284415
" />
<path d="M28.598095 55.284415
L28.548571 55.309176
" />
<path d="M28.548571 55.309176
L28.523809 55.333938
" />
<path d="M28.523809 55.333938
L28.499047 55.383462
" />
<path d="M28.499047 55.383462
L28.499047 55.482510
" />
<path d="M28.499047 55.482510
L28.523809 55.532034
" />
<path d="M28.523809 55.532034
L28.548571 55.556796
" />
<path d="M28.548571 55.556796
L28.598095 55.581557
" />
<path d="M28.598095 55.581557
L28.697142 55.581557
" />
<path d="M28.697142 55.581557
L28.746666 55.556796
" />
<path d="M28.746666 55.556796
L28.771428 55.532034
" />
<path d="M28.771428 55.532034
L28.796190 55.482510
" />
<path d="M28.796190 55.482510
L28.796190 55.383462
" />
<path d="M28.796190 55.383462
L28.771428 55.333938
" />
<path d="M28.771428 55.333938
L28.746666 55.309176
" />
<path d="M28.746666 55.309176
L28.697142 55.284415
" />
</g></g>
<g style="fill:none; 
stroke:#AFAFAF; stroke-width:0.100000; stroke-opacity:1; 
stroke-linecap:round; stroke-linejoin:round;">
<circle cx="28.400000" cy="55.343250" r="0.780000" /> 
</g>
<g style="fill:#FFFFFF; fill-opacity:1.000000; stroke:none;">
<circle cx="3.000000" cy="9.623250" r="0.520000" /> 
</g>
<g style="fill:#FFFFFF; fill-opacity:1.000000; stroke:none;">
<circle cx="3.000000" cy="12.163250" r="0.520000" /> 
</g>
<g style="fill:#FFFFFF; fill-opacity:1.000000; stroke:none;">
<circle cx="3.000000" cy="14.703250" r="0.520000" /> 
</g>
<g style="fill:#FFFFFF; fill-opacity:1.000000; stroke:none;">
<circle cx="3.000000" cy="17.243250" r="0.520000" /> 
</g>
<g style="fill:#FFFFFF; fill-opacity:1.000000; stroke:none;">
<circle cx="3.000000" cy="19.783250" r="0.520000" /> 
</g>
<g style="fill:#FFFFFF; fill-opacity:1.000000; stroke:none;">
<circle cx="3.000000" cy="22.323250" r="0.520000" /> 
</g>
<g style="fill:#FFFFFF; fill-opacity:1.000000; stroke:none;">
<circle cx="3.000000" cy="24.863250" r="0.520000" /> 
</g>
<g style="fill:#FFFFFF; fill-opacity:1.000000; stroke:none;">
<circle cx="3.000000" cy="27.403250" r="0.520000" /> 
</g>
<g style="fill:#FFFFFF; fill-opacity:1.000000; stroke:none;">
<circle cx="3.000000" cy="29.943250" r="0.520000" /> 
</g>
<g style="fill:#FFFFFF; fill-opacity:1.000000; stroke:none;">
<circle cx="3.000000" cy="32.483250" r="0.520000" /> 
</g>
<g style="fill:#FFFFFF; fill-opacity:1.000000; stroke:none;">
<circle cx="3.000000" cy="35.023250" r="0.520000" /> 
</g>
<g style="fill:#FFFFFF; fill-opacity:1.000000; stroke:none;">
<circle cx="3.000000" cy="37.563250" r="0.520000" /> 
</g>
<g style="fill:#FFFFFF; fill-opacity:1.000000; stroke:none;">
<circle cx="3.000000" cy="40.103250" r="0.520000" /> 
</g>
<g style="fill:#FFFFFF; fill-opacity:1.000000; stroke:none;">
<circle cx="3.000000" cy="42.643250" r="0.520000" /> 
</g>
<g style="fill:#FFFFFF; fill-opacity:1.000000; stroke:none;">
<circle cx="3.000000" cy="45.183250" r="0.520000" /> 
</g>
<g style="fill:#FFFFFF; fill-opacity:1.000000; stroke:none;">
<circle cx="3.000000" cy="47.723250" r="0.520000" /> 
</g>
<g style="fill:#FFFFFF; fill-opacity:1.000000; stroke:none;">
<circle cx="3.000000" cy="50.263250" r="0.520000" /> 
</g>
<g style="fill:#FFFFFF; fill-opacity:1.000000; stroke:none;">
<circle cx="3.000000" cy="52.803250" r="0.520000" /> 
</g>
<g style="fill:#FFFFFF; fill-opacity:1.000000; stroke:none;">
<circle cx="3.000000" cy="55.343250" r="0.520000" /> 
</g>
<g style="fill:#FFFFFF; fill-opacity:1.000000; stroke:none;">
<circle cx="28.400000" cy="9.623250" r="0.520000" /> 
</g>
<g style="fill:#FFFFFF; fill-opacity:1.000000; stroke:none;">
<circle cx="28.400000" cy="12.163250" r="0.520000" /> 
</g>
<g style="fill:#FFFFFF; fill-opacity:1.000000; stroke:none;">
<circle cx="28.400000" cy="14.703250" r="0.520000" /> 
</g>
<g style="fill:#FFFFFF; fill-opacity:1.000000; stroke:none;">
<circle cx="28.400000" cy="17.243250" r="0.520000" /> 
</g>
<g style="fill:#FFFFFF; fill-opacity:1.000000; stroke:none;">
<circle cx="28.400000" cy="19.783250" r="0.520000" /> 
</g>
<g style="fill:#FFFFFF; fill-opacity:1.000000; stroke:none;">
<circle cx="28.400000" cy="22.323250" r="0.520000" /> 
</g>
<g style="fill:#FFFFFF; fill-opacity:1.000000; stroke:none;">
<circle cx="28.400000" cy="24.863250" r="0.520000" /> 
</g>
<g style="fill:#FFFFFF; fill-opacity:1.000000; stroke:none;">
<circle cx="28.400000" cy="27.403250" r="0.520000" /> 
</g>
<g style="fill:#FFFFFF; fill-opacity:1.000000; stroke:none;">
<circle cx="28.400000" cy="29.943250" r="0.520000" /> 
</g>
<g style="fill:#FFFFFF; fill-opacity:1.000000; stroke:none;">
<circle cx="28.400000" cy="32.483250" r="0.520000" /> 
</g>
<g style="fill:#FFFFFF; fill-opacity:1.000000; stroke:none;">
<circle cx="28.400000" cy="35.023250" r="0.520000" /> 
</g>
<g style="fill:#FFFFFF; fill-opacity:1.000000; stroke:none;">
<circle cx="28.400000" cy="37.563250" r="0.520000" /> 
</g>
<g style="fill:#FFFFFF; fill-opacity:1.000000; stroke:none;">
<circle cx="28.400000" cy="40.103250" r="0.520000" /> 
</g>
<g style="fill:#FFFFFF; fill-opacity:1.000000; stroke:none;">
<circle cx="28.400000" cy="42.643250" r="0.520000" /> 
</g>
<g style="fill:#FFFFFF; fill-opacity:1.000000; stroke:none;">
<circle cx="28.400000" cy="45.183250" r="0.520000" /> 
</g>
<g style="fill:#FFFFFF; fill-opacity:1.000000; stroke:none;">
<circle cx="28.400000" cy="47.723250" r="0.520000" /> 
</g>
<g style="fill:#FFFFFF; fill-opacity:1.000000; stroke:none;">
<circle cx="28.400000" cy="50.263250" r="0.520000" /> 
</g>
<g style="fill:#FFFFFF; fill-opacity:1.000000; stroke:none;">
<circle cx="28.400000" cy="52.803250" r="0.520000" /> 
</g>
<g style="fill:#FFFFFF; fill-opacity:1.000000; stroke:none;">
<circle cx="28.400000" cy="55.343250" r="0.520000" /> 
</g> 
</svg>
