%TF.GenerationSoftware,KiCad,Pcbnew,10.0.6*%
%TF.CreationDate,2026-10-05T21:38:19-03:00*%
%TF.ProjectId,EmisorASV,456d6973-6f72-4415-9356-2e6b69636164,rev?*%
%TF.SameCoordinates,Original*%
%TF.FileFunction,Copper,L2,Bot*%
%TF.FilePolarity,Positive*%
%FSLAX46Y46*%
G04 Gerber Fmt 4.6, Leading zero omitted, Abs format (unit mm)*
G04 Created by KiCad (PCBNEW 10.0.6) date 2026-10-05 21:38:19*
%MOMM*%
%LPD*%
G01*
G04 APERTURE LIST*
G04 Aperture macros list*
%AMRoundRect*
0 Rectangle with rounded corners*
0 $1 Rounding radius*
0 $2 $3 $4 $5 $6 $7 $8 $9 X,Y pos of 4 corners*
0 Add a 4 corners polygon primitive as box body*
4,1,4,$2,$3,$4,$5,$6,$7,$8,$9,$2,$3,0*
0 Add four circle primitives for the rounded corners*
1,1,$1+$1,$2,$3*
1,1,$1+$1,$4,$5*
1,1,$1+$1,$6,$7*
1,1,$1+$1,$8,$9*
0 Add four rect primitives between the rounded corners*
20,1,$1+$1,$2,$3,$4,$5,0*
20,1,$1+$1,$4,$5,$6,$7,0*
20,1,$1+$1,$6,$7,$8,$9,0*
20,1,$1+$1,$8,$9,$2,$3,0*%
G04 Aperture macros list end*
%TA.AperFunction,ComponentPad*%
%ADD10RoundRect,0.250000X0.550000X-0.550000X0.550000X0.550000X-0.550000X0.550000X-0.550000X-0.550000X0*%
%TD*%
%TA.AperFunction,ComponentPad*%
%ADD11C,1.600000*%
%TD*%
%TA.AperFunction,ComponentPad*%
%ADD12R,1.560000X1.560000*%
%TD*%
%TA.AperFunction,ComponentPad*%
%ADD13C,1.560000*%
%TD*%
%TA.AperFunction,ComponentPad*%
%ADD14C,2.050000*%
%TD*%
%TA.AperFunction,ComponentPad*%
%ADD15C,2.250000*%
%TD*%
%TA.AperFunction,ComponentPad*%
%ADD16RoundRect,0.250000X0.550000X0.550000X-0.550000X0.550000X-0.550000X-0.550000X0.550000X-0.550000X0*%
%TD*%
%TA.AperFunction,ComponentPad*%
%ADD17R,1.905000X2.000000*%
%TD*%
%TA.AperFunction,ComponentPad*%
%ADD18O,1.905000X2.000000*%
%TD*%
%TA.AperFunction,ComponentPad*%
%ADD19C,1.000000*%
%TD*%
%TA.AperFunction,ComponentPad*%
%ADD20R,1.700000X1.700000*%
%TD*%
%TA.AperFunction,ComponentPad*%
%ADD21C,1.700000*%
%TD*%
%TA.AperFunction,SMDPad,CuDef*%
%ADD22RoundRect,0.180000X1.020000X0.270000X-1.020000X0.270000X-1.020000X-0.270000X1.020000X-0.270000X0*%
%TD*%
%TA.AperFunction,SMDPad,CuDef*%
%ADD23RoundRect,0.180000X0.270000X-1.020000X0.270000X1.020000X-0.270000X1.020000X-0.270000X-1.020000X0*%
%TD*%
%TA.AperFunction,Conductor*%
%ADD24C,0.700000*%
%TD*%
%TA.AperFunction,Conductor*%
%ADD25C,0.500000*%
%TD*%
%TA.AperFunction,Conductor*%
%ADD26C,0.800000*%
%TD*%
G04 APERTURE END LIST*
D10*
%TO.P,C8,1*%
%TO.N,/LORA_3V3*%
X49000000Y-58600000D03*
D11*
%TO.P,C8,2*%
%TO.N,/GND*%
X49000000Y-56600000D03*
%TD*%
%TO.P,R1,1*%
%TO.N,/LORA_3V3*%
X49000000Y-75000000D03*
%TO.P,R1,2*%
%TO.N,/LORA_NSS*%
X49000000Y-67380000D03*
%TD*%
D12*
%TO.P,U3,1*%
%TO.N,unconnected-(U3-3V3-Pad1)*%
X71300000Y-48140000D03*
D13*
%TO.P,U3,2*%
%TO.N,unconnected-(U3-EN-Pad2)*%
X71300000Y-50680000D03*
%TO.P,U3,3*%
%TO.N,unconnected-(U3-GPIO36-Pad3)*%
X71300000Y-53220000D03*
%TO.P,U3,4*%
%TO.N,unconnected-(U3-GPIO39-Pad4)*%
X71300000Y-55760000D03*
%TO.P,U3,5*%
%TO.N,unconnected-(U3-GPIO34-Pad5)*%
X71300000Y-58300000D03*
%TO.P,U3,6*%
%TO.N,unconnected-(U3-GPIO35-Pad6)*%
X71300000Y-60840000D03*
%TO.P,U3,7*%
%TO.N,unconnected-(U3-GPIO32-Pad7)*%
X71300000Y-63380000D03*
%TO.P,U3,8*%
%TO.N,/LORA_DIO2*%
X71300000Y-65920000D03*
%TO.P,U3,9*%
%TO.N,/LORA_DIO1*%
X71300000Y-68460000D03*
%TO.P,U3,10*%
%TO.N,/LORA_DIO0*%
X71300000Y-71000000D03*
%TO.P,U3,11*%
%TO.N,/LORA_NSS*%
X71300000Y-73540000D03*
%TO.P,U3,12*%
%TO.N,/LORA_RESET*%
X71300000Y-76080000D03*
%TO.P,U3,13*%
%TO.N,unconnected-(U3-GPIO12-Pad13)*%
X71300000Y-78620000D03*
%TO.P,U3,14*%
%TO.N,/GND*%
X71300000Y-81160000D03*
%TO.P,U3,15*%
%TO.N,unconnected-(U3-GPIO13-Pad15)*%
X71300000Y-83700000D03*
%TO.P,U3,16*%
%TO.N,unconnected-(U3-SD2-Pad16)*%
X71300000Y-86240000D03*
%TO.P,U3,17*%
%TO.N,unconnected-(U3-SD3-Pad17)*%
X71300000Y-88780000D03*
%TO.P,U3,18*%
%TO.N,unconnected-(U3-CMD-Pad18)*%
X71300000Y-91320000D03*
%TO.P,U3,19*%
%TO.N,/SYS_5V*%
X71300000Y-93860000D03*
%TO.P,U3,20*%
%TO.N,/GND*%
X96700000Y-48140000D03*
%TO.P,U3,21*%
%TO.N,/LORA_MOSI*%
X96700000Y-50680000D03*
%TO.P,U3,22*%
%TO.N,unconnected-(U3-22_{slash}_RX1-Pad22)*%
X96700000Y-53220000D03*
%TO.P,U3,23*%
%TO.N,unconnected-(U3-TX0-Pad23)*%
X96700000Y-55760000D03*
%TO.P,U3,24*%
%TO.N,unconnected-(U3-RX0-Pad24)*%
X96700000Y-58300000D03*
%TO.P,U3,25*%
%TO.N,unconnected-(U3-21_{slash}_TX1-Pad25)*%
X96700000Y-60840000D03*
%TO.P,U3,26*%
%TO.N,/GND*%
X96700000Y-63380000D03*
%TO.P,U3,27*%
%TO.N,/LORA_MISO*%
X96700000Y-65920000D03*
%TO.P,U3,28*%
%TO.N,/LORA_SCK*%
X96700000Y-68460000D03*
%TO.P,U3,29*%
%TO.N,unconnected-(U3-GPIO5-Pad29)*%
X96700000Y-71000000D03*
%TO.P,U3,30*%
%TO.N,unconnected-(U3-17_{slash}_TX2-Pad30)*%
X96700000Y-73540000D03*
%TO.P,U3,31*%
%TO.N,unconnected-(U3-16_{slash}_RX2-Pad31)*%
X96700000Y-76080000D03*
%TO.P,U3,32*%
%TO.N,unconnected-(U3-GPIO4-Pad32)*%
X96700000Y-78620000D03*
%TO.P,U3,33*%
%TO.N,unconnected-(U3-GPIO0-Pad33)*%
X96700000Y-81160000D03*
%TO.P,U3,34*%
%TO.N,unconnected-(U3-GPIO2-Pad34)*%
X96700000Y-83700000D03*
%TO.P,U3,35*%
%TO.N,unconnected-(U3-GPIO15-Pad35)*%
X96700000Y-86240000D03*
%TO.P,U3,36*%
%TO.N,unconnected-(U3-SD1-Pad36)*%
X96700000Y-88780000D03*
%TO.P,U3,37*%
%TO.N,unconnected-(U3-SD0-Pad37)*%
X96700000Y-91320000D03*
%TO.P,U3,38*%
%TO.N,unconnected-(U3-CLK-Pad38)*%
X96700000Y-93860000D03*
%TD*%
D11*
%TO.P,R2,1*%
%TO.N,/LORA_3V3*%
X56000000Y-75000000D03*
%TO.P,R2,2*%
%TO.N,/LORA_RESET*%
X56000000Y-67380000D03*
%TD*%
D14*
%TO.P,J4,1*%
%TO.N,/RF_SMA*%
X31000000Y-34000000D03*
D15*
%TO.P,J4,2*%
%TO.N,/GND*%
X28460000Y-31460000D03*
X28460000Y-36540000D03*
X33540000Y-31460000D03*
X33540000Y-36540000D03*
%TD*%
D16*
%TO.P,C6,1*%
%TO.N,/LORA_3V3*%
X56540000Y-37000000D03*
D11*
%TO.P,C6,2*%
%TO.N,/GND*%
X54540000Y-37000000D03*
%TD*%
%TO.P,C5,1*%
%TO.N,/SYS_5V*%
X59080000Y-50000000D03*
%TO.P,C5,2*%
%TO.N,/GND*%
X54080000Y-50000000D03*
%TD*%
D17*
%TO.P,U2,1*%
%TO.N,/GND*%
X54000000Y-46000000D03*
D18*
%TO.P,U2,2*%
%TO.N,/LORA_3V3*%
X56540000Y-46000000D03*
%TO.P,U2,3*%
%TO.N,/SYS_5V*%
X59080000Y-46000000D03*
%TD*%
D16*
%TO.P,C4,1*%
%TO.N,/SYS_5V*%
X66000000Y-93000000D03*
D11*
%TO.P,C4,2*%
%TO.N,/GND*%
X64000000Y-93000000D03*
%TD*%
%TO.P,C7,1*%
%TO.N,/LORA_3V3*%
X44000000Y-58600000D03*
%TO.P,C7,2*%
%TO.N,/GND*%
X44000000Y-53600000D03*
%TD*%
D19*
%TO.P,W1,1*%
%TO.N,/LORA_DIO1*%
X41606900Y-55248800D03*
X69034200Y-67403500D03*
%TD*%
%TO.P,W2,1*%
%TO.N,/LORA_DIO2*%
X41478500Y-56988200D03*
X68885200Y-65272999D03*
%TD*%
D20*
%TO.P,JP2,1*%
%TO.N,/RF_433*%
X24237000Y-50000000D03*
D21*
%TO.P,JP2,2*%
%TO.N,/RF_SMA*%
X24237000Y-47460000D03*
%TD*%
D22*
%TO.P,U4,1*%
%TO.N,/GND*%
X39785000Y-54300000D03*
%TO.P,U4,2*%
%TO.N,/LORA_DIO1*%
X39785000Y-55570000D03*
%TO.P,U4,3*%
%TO.N,/LORA_DIO2*%
X39785000Y-56840000D03*
%TO.P,U4,4*%
%TO.N,unconnected-(U4-DIO3-Pad4)*%
X39785000Y-58110000D03*
%TO.P,U4,5*%
%TO.N,/LORA_3V3*%
X39785000Y-59380000D03*
%TO.P,U4,6*%
%TO.N,/LORA_MISO*%
X39785000Y-60650000D03*
%TO.P,U4,7*%
%TO.N,/LORA_MOSI*%
X39785000Y-61920000D03*
%TO.P,U4,8*%
%TO.N,/LORA_SCK*%
X39785000Y-63190000D03*
%TO.P,U4,9*%
%TO.N,/LORA_NSS*%
X39785000Y-64460000D03*
%TO.P,U4,10*%
%TO.N,/LORA_DIO0*%
X39785000Y-65730000D03*
%TO.P,U4,11*%
%TO.N,/LORA_RESET*%
X39785000Y-67000000D03*
%TO.P,U4,12*%
%TO.N,/GND*%
X39785000Y-68270000D03*
D23*
%TO.P,U4,13*%
%TO.N,unconnected-(U4-DIO4-Pad13)*%
X38615000Y-70329000D03*
%TO.P,U4,14*%
%TO.N,unconnected-(U4-DIO5-Pad14)*%
X37345000Y-70329000D03*
D22*
%TO.P,U4,15*%
%TO.N,/GND*%
X24237000Y-55570000D03*
%TO.P,U4,16*%
%TO.N,/RF_433*%
X24237000Y-54300000D03*
%TD*%
%TO.N,/LORA_3V3*%
D24*
X39785000Y-59380000D02*
X36200000Y-59380000D01*
X49000000Y-75000000D02*
X56000000Y-75000000D01*
X36200000Y-59380000D02*
X36200000Y-73000000D01*
X38200000Y-75000000D02*
X40200000Y-75000000D01*
X56000000Y-75000000D02*
X49000000Y-75000000D01*
X36200000Y-73000000D02*
X38200000Y-75000000D01*
X56540000Y-46000000D02*
X56540000Y-51060000D01*
X44000000Y-58600000D02*
X49000000Y-58600000D01*
X40200000Y-75000000D02*
X49000000Y-75000000D01*
X56540000Y-51060000D02*
X49000000Y-58600000D01*
X56540000Y-46000000D02*
X56540000Y-37000000D01*
X39785000Y-59380000D02*
X44000000Y-58600000D01*
%TO.N,/GND*%
X54540000Y-37369500D02*
X54221100Y-37050500D01*
D25*
X100000000Y-48140000D02*
X96700000Y-48140000D01*
D24*
X64000000Y-88460000D02*
X71300000Y-81160000D01*
X96700000Y-63380000D02*
X89080000Y-63380000D01*
X91319700Y-46312500D02*
X93147200Y-48140000D01*
X28460000Y-31460000D02*
X33540000Y-31460000D01*
X47000000Y-56600000D02*
X44000000Y-53600000D01*
X89080000Y-63380000D02*
X71300000Y-81160000D01*
X28460000Y-36540000D02*
X28460000Y-31460000D01*
X54080000Y-48040000D02*
X49560000Y-48040000D01*
D25*
X100000000Y-79890000D02*
X100000000Y-48140000D01*
D24*
X88553000Y-46312500D02*
X91319700Y-46312500D01*
D25*
X74000000Y-79890000D02*
X100000000Y-79890000D01*
D24*
X64000000Y-93000000D02*
X64000000Y-88460000D01*
X77825700Y-35585200D02*
X88553000Y-46312500D01*
D25*
X71300000Y-81160000D02*
X74000000Y-79890000D01*
D24*
X54540000Y-45460000D02*
X54540000Y-37000000D01*
X54080000Y-46080000D02*
X54080000Y-50000000D01*
X52342400Y-35171900D02*
X54221100Y-37050500D01*
X33382700Y-54300000D02*
X32112700Y-55570000D01*
X51127000Y-35171900D02*
X52342400Y-35171900D01*
X54540000Y-37455500D02*
X54540000Y-37369500D01*
X33540000Y-31460000D02*
X36129800Y-34049800D01*
X49000000Y-56600000D02*
X47000000Y-56600000D01*
X49560000Y-48040000D02*
X44000000Y-53600000D01*
X38230000Y-41230000D02*
X33540000Y-36540000D01*
X54000000Y-46000000D02*
X54540000Y-45460000D01*
X39785000Y-54300000D02*
X33382700Y-54300000D01*
X39785000Y-54300000D02*
X44000000Y-53600000D01*
X50004900Y-34049800D02*
X51127000Y-35171900D01*
X93147200Y-48140000D02*
X96700000Y-48140000D01*
X54540000Y-41230000D02*
X38230000Y-41230000D01*
X32112700Y-55570000D02*
X24237000Y-55570000D01*
X36129800Y-34049800D02*
X50004900Y-34049800D01*
X54221100Y-37050500D02*
X55686400Y-35585200D01*
X54000000Y-46000000D02*
X54080000Y-46080000D01*
%TO.N,/LORA_NSS*%
D25*
X50999400Y-65380600D02*
X49000000Y-67380000D01*
X63140600Y-65380600D02*
X50999400Y-65380600D01*
X71300000Y-73540000D02*
X63140600Y-65380600D01*
X39785000Y-64460000D02*
X46080000Y-64460000D01*
X46080000Y-64460000D02*
X49000000Y-67380000D01*
%TO.N,/LORA_DIO2*%
X39785000Y-56840000D02*
X41478500Y-56988200D01*
X71300000Y-65920000D02*
X68885200Y-65272999D01*
%TO.N,/LORA_DIO1*%
X71300000Y-68460000D02*
X69034200Y-67403500D01*
X39785000Y-55570000D02*
X41606900Y-55248800D01*
%TO.N,/LORA_DIO0*%
X48448600Y-68688200D02*
X45490400Y-65730000D01*
X71300000Y-71000000D02*
X72589100Y-72289100D01*
X71802000Y-74810000D02*
X66188900Y-74810000D01*
X57481200Y-66102300D02*
X52886600Y-66102300D01*
X72589100Y-74022900D02*
X71802000Y-74810000D01*
X66188900Y-74810000D02*
X57481200Y-66102300D01*
X72589100Y-72289100D02*
X72589100Y-74022900D01*
X52886600Y-66102300D02*
X50300700Y-68688200D01*
X45490400Y-65730000D02*
X39785000Y-65730000D01*
X50300700Y-68688200D02*
X48448600Y-68688200D01*
%TO.N,/LORA_RESET*%
X53968600Y-69411400D02*
X47790800Y-69411400D01*
X56000000Y-67380000D02*
X53968600Y-69411400D01*
X47790800Y-69411400D02*
X45379400Y-67000000D01*
X64700000Y-76080000D02*
X56000000Y-67380000D01*
X45379400Y-67000000D02*
X39785000Y-67000000D01*
X71300000Y-76080000D02*
X64700000Y-76080000D01*
%TO.N,/SYS_5V*%
D24*
X66000000Y-93000000D02*
X69680000Y-93000000D01*
X71300000Y-97500000D02*
X113000000Y-97500000D01*
X64000000Y-41080000D02*
X59080000Y-46000000D01*
X69680000Y-93000000D02*
X71300000Y-93860000D01*
X113000000Y-22000000D02*
X64000000Y-22000000D01*
X113000000Y-97500000D02*
X113000000Y-22000000D01*
X64000000Y-22000000D02*
X64000000Y-41080000D01*
X59080000Y-46000000D02*
X59080000Y-50000000D01*
X71300000Y-93860000D02*
X71300000Y-97500000D01*
%TO.N,/LORA_MOSI*%
D25*
X53828800Y-57030000D02*
X90350000Y-57030000D01*
X39785000Y-61920000D02*
X48938800Y-61920000D01*
X90350000Y-57030000D02*
X96700000Y-50680000D01*
X48938800Y-61920000D02*
X53828800Y-57030000D01*
%TO.N,/LORA_MISO*%
X75404400Y-54490000D02*
X80484400Y-49410000D01*
X55258200Y-54490000D02*
X75404400Y-54490000D01*
X98675000Y-50817800D02*
X98675000Y-68321600D01*
X95359200Y-68942000D02*
X95359200Y-67260800D01*
X97268100Y-69728500D02*
X96145700Y-69728500D01*
X97267200Y-49410000D02*
X98675000Y-50817800D01*
X98675000Y-68321600D02*
X97268100Y-69728500D01*
X39785000Y-60650000D02*
X49098200Y-60650000D01*
X95359200Y-67260800D02*
X96700000Y-65920000D01*
X80484400Y-49410000D02*
X97267200Y-49410000D01*
X96145700Y-69728500D02*
X95359200Y-68942000D01*
X49098200Y-60650000D02*
X55258200Y-54490000D01*
%TO.N,/LORA_SCK*%
X97951700Y-62844400D02*
X97951700Y-67208300D01*
X97217300Y-62110000D02*
X97951700Y-62844400D01*
X58334100Y-63190000D02*
X59414100Y-62110000D01*
X39785000Y-63190000D02*
X58334100Y-63190000D01*
X97951700Y-67208300D02*
X96700000Y-68460000D01*
X59414100Y-62110000D02*
X97217300Y-62110000D01*
%TO.N,/RF_SMA*%
D26*
X24237000Y-44763000D02*
X31000000Y-38000000D01*
X24237000Y-47460000D02*
X24237000Y-44763000D01*
X31000000Y-38000000D02*
X31000000Y-34000000D01*
%TO.N,/RF_433*%
X24237000Y-54300000D02*
X24237000Y-50000000D01*
%TD*%
%TA.AperFunction,Conductor*%
%TO.N,/GND*%
G36*
X114458691Y-20519407D02*
G01*
X114494655Y-20568907D01*
X114499500Y-20599500D01*
X114499500Y-99400500D01*
X114480593Y-99458691D01*
X114431093Y-99494655D01*
X114400500Y-99499500D01*
X20599500Y-99499500D01*
X20541309Y-99480593D01*
X20505345Y-99431093D01*
X20500500Y-99400500D01*
X20500500Y-94878710D01*
X23149500Y-94878710D01*
X23149500Y-95121289D01*
X23181161Y-95361781D01*
X23181161Y-95361786D01*
X23243944Y-95596092D01*
X23243948Y-95596105D01*
X23336772Y-95820204D01*
X23336774Y-95820208D01*
X23336776Y-95820212D01*
X23458064Y-96030289D01*
X23458066Y-96030292D01*
X23605729Y-96222731D01*
X23605731Y-96222733D01*
X23605735Y-96222738D01*
X23777262Y-96394265D01*
X23777266Y-96394268D01*
X23777268Y-96394270D01*
X23969707Y-96541933D01*
X23969711Y-96541936D01*
X24179788Y-96663224D01*
X24403900Y-96756054D01*
X24638211Y-96818838D01*
X24878712Y-96850500D01*
X24878713Y-96850500D01*
X25121287Y-96850500D01*
X25121288Y-96850500D01*
X25361789Y-96818838D01*
X25596100Y-96756054D01*
X25820212Y-96663224D01*
X26030289Y-96541936D01*
X26222738Y-96394265D01*
X26394265Y-96222738D01*
X26541936Y-96030289D01*
X26663224Y-95820212D01*
X26756054Y-95596100D01*
X26818838Y-95361789D01*
X26850500Y-95121288D01*
X26850500Y-94878712D01*
X26818838Y-94638211D01*
X26756054Y-94403900D01*
X26663224Y-94179788D01*
X26541936Y-93969711D01*
X26394265Y-93777262D01*
X26222738Y-93605735D01*
X26222733Y-93605731D01*
X26222731Y-93605729D01*
X26030292Y-93458066D01*
X26030289Y-93458064D01*
X25820212Y-93336776D01*
X25820208Y-93336774D01*
X25820204Y-93336772D01*
X25596105Y-93243948D01*
X25596104Y-93243947D01*
X25596100Y-93243946D01*
X25361789Y-93181162D01*
X25361786Y-93181161D01*
X25361784Y-93181161D01*
X25121289Y-93149500D01*
X25121288Y-93149500D01*
X24878712Y-93149500D01*
X24878710Y-93149500D01*
X24638218Y-93181161D01*
X24638213Y-93181161D01*
X24403907Y-93243944D01*
X24403894Y-93243948D01*
X24179795Y-93336772D01*
X23969707Y-93458066D01*
X23777268Y-93605729D01*
X23605729Y-93777268D01*
X23458066Y-93969707D01*
X23336772Y-94179795D01*
X23243948Y-94403894D01*
X23243944Y-94403907D01*
X23181161Y-94638213D01*
X23181161Y-94638218D01*
X23149500Y-94878710D01*
X20500500Y-94878710D01*
X20500500Y-91221456D01*
X70299500Y-91221456D01*
X70299500Y-91418543D01*
X70337949Y-91611834D01*
X70337949Y-91611836D01*
X70413367Y-91793913D01*
X70413368Y-91793914D01*
X70522861Y-91957782D01*
X70662218Y-92097139D01*
X70826086Y-92206632D01*
X71008165Y-92282051D01*
X71201459Y-92320500D01*
X71201460Y-92320500D01*
X71398540Y-92320500D01*
X71398541Y-92320500D01*
X71591835Y-92282051D01*
X71773914Y-92206632D01*
X71937782Y-92097139D01*
X72077139Y-91957782D01*
X72186632Y-91793914D01*
X72262051Y-91611835D01*
X72300500Y-91418541D01*
X72300500Y-91221459D01*
X72300499Y-91221456D01*
X95699500Y-91221456D01*
X95699500Y-91418543D01*
X95737949Y-91611834D01*
X95737949Y-91611836D01*
X95813367Y-91793913D01*
X95813368Y-91793914D01*
X95922861Y-91957782D01*
X96062218Y-92097139D01*
X96226086Y-92206632D01*
X96408165Y-92282051D01*
X96601459Y-92320500D01*
X96601460Y-92320500D01*
X96798540Y-92320500D01*
X96798541Y-92320500D01*
X96991835Y-92282051D01*
X97173914Y-92206632D01*
X97337782Y-92097139D01*
X97477139Y-91957782D01*
X97586632Y-91793914D01*
X97662051Y-91611835D01*
X97700500Y-91418541D01*
X97700500Y-91221459D01*
X97662051Y-91028165D01*
X97586632Y-90846086D01*
X97477139Y-90682218D01*
X97337782Y-90542861D01*
X97173914Y-90433368D01*
X97173915Y-90433368D01*
X97173913Y-90433367D01*
X96991835Y-90357949D01*
X96798543Y-90319500D01*
X96798541Y-90319500D01*
X96601459Y-90319500D01*
X96601456Y-90319500D01*
X96408165Y-90357949D01*
X96408163Y-90357949D01*
X96226086Y-90433367D01*
X96062218Y-90542861D01*
X96062214Y-90542864D01*
X95922864Y-90682214D01*
X95922861Y-90682218D01*
X95813367Y-90846086D01*
X95737949Y-91028163D01*
X95737949Y-91028165D01*
X95699500Y-91221456D01*
X72300499Y-91221456D01*
X72262051Y-91028165D01*
X72186632Y-90846086D01*
X72077139Y-90682218D01*
X71937782Y-90542861D01*
X71773914Y-90433368D01*
X71773915Y-90433368D01*
X71773913Y-90433367D01*
X71591835Y-90357949D01*
X71398543Y-90319500D01*
X71398541Y-90319500D01*
X71201459Y-90319500D01*
X71201456Y-90319500D01*
X71008165Y-90357949D01*
X71008163Y-90357949D01*
X70826086Y-90433367D01*
X70662218Y-90542861D01*
X70662214Y-90542864D01*
X70522864Y-90682214D01*
X70522861Y-90682218D01*
X70413367Y-90846086D01*
X70337949Y-91028163D01*
X70337949Y-91028165D01*
X70299500Y-91221456D01*
X20500500Y-91221456D01*
X20500500Y-88681456D01*
X70299500Y-88681456D01*
X70299500Y-88878543D01*
X70337949Y-89071834D01*
X70337949Y-89071836D01*
X70413367Y-89253913D01*
X70413368Y-89253914D01*
X70522861Y-89417782D01*
X70662218Y-89557139D01*
X70826086Y-89666632D01*
X71008165Y-89742051D01*
X71201459Y-89780500D01*
X71201460Y-89780500D01*
X71398540Y-89780500D01*
X71398541Y-89780500D01*
X71591835Y-89742051D01*
X71773914Y-89666632D01*
X71937782Y-89557139D01*
X72077139Y-89417782D01*
X72186632Y-89253914D01*
X72262051Y-89071835D01*
X72300500Y-88878541D01*
X72300500Y-88681459D01*
X72300499Y-88681456D01*
X95699500Y-88681456D01*
X95699500Y-88878543D01*
X95737949Y-89071834D01*
X95737949Y-89071836D01*
X95813367Y-89253913D01*
X95813368Y-89253914D01*
X95922861Y-89417782D01*
X96062218Y-89557139D01*
X96226086Y-89666632D01*
X96408165Y-89742051D01*
X96601459Y-89780500D01*
X96601460Y-89780500D01*
X96798540Y-89780500D01*
X96798541Y-89780500D01*
X96991835Y-89742051D01*
X97173914Y-89666632D01*
X97337782Y-89557139D01*
X97477139Y-89417782D01*
X97586632Y-89253914D01*
X97662051Y-89071835D01*
X97700500Y-88878541D01*
X97700500Y-88681459D01*
X97662051Y-88488165D01*
X97586632Y-88306086D01*
X97477139Y-88142218D01*
X97337782Y-88002861D01*
X97173914Y-87893368D01*
X97173915Y-87893368D01*
X97173913Y-87893367D01*
X96991835Y-87817949D01*
X96798543Y-87779500D01*
X96798541Y-87779500D01*
X96601459Y-87779500D01*
X96601456Y-87779500D01*
X96408165Y-87817949D01*
X96408163Y-87817949D01*
X96226086Y-87893367D01*
X96062218Y-88002861D01*
X96062214Y-88002864D01*
X95922864Y-88142214D01*
X95922861Y-88142218D01*
X95813367Y-88306086D01*
X95737949Y-88488163D01*
X95737949Y-88488165D01*
X95699500Y-88681456D01*
X72300499Y-88681456D01*
X72262051Y-88488165D01*
X72186632Y-88306086D01*
X72077139Y-88142218D01*
X71937782Y-88002861D01*
X71773914Y-87893368D01*
X71773915Y-87893368D01*
X71773913Y-87893367D01*
X71591835Y-87817949D01*
X71398543Y-87779500D01*
X71398541Y-87779500D01*
X71201459Y-87779500D01*
X71201456Y-87779500D01*
X71008165Y-87817949D01*
X71008163Y-87817949D01*
X70826086Y-87893367D01*
X70662218Y-88002861D01*
X70662214Y-88002864D01*
X70522864Y-88142214D01*
X70522861Y-88142218D01*
X70413367Y-88306086D01*
X70337949Y-88488163D01*
X70337949Y-88488165D01*
X70299500Y-88681456D01*
X20500500Y-88681456D01*
X20500500Y-86141456D01*
X70299500Y-86141456D01*
X70299500Y-86338543D01*
X70337949Y-86531834D01*
X70337949Y-86531836D01*
X70413367Y-86713913D01*
X70413368Y-86713914D01*
X70522861Y-86877782D01*
X70662218Y-87017139D01*
X70826086Y-87126632D01*
X71008165Y-87202051D01*
X71201459Y-87240500D01*
X71201460Y-87240500D01*
X71398540Y-87240500D01*
X71398541Y-87240500D01*
X71591835Y-87202051D01*
X71773914Y-87126632D01*
X71937782Y-87017139D01*
X72077139Y-86877782D01*
X72186632Y-86713914D01*
X72262051Y-86531835D01*
X72300500Y-86338541D01*
X72300500Y-86141459D01*
X72300499Y-86141456D01*
X95699500Y-86141456D01*
X95699500Y-86338543D01*
X95737949Y-86531834D01*
X95737949Y-86531836D01*
X95813367Y-86713913D01*
X95813368Y-86713914D01*
X95922861Y-86877782D01*
X96062218Y-87017139D01*
X96226086Y-87126632D01*
X96408165Y-87202051D01*
X96601459Y-87240500D01*
X96601460Y-87240500D01*
X96798540Y-87240500D01*
X96798541Y-87240500D01*
X96991835Y-87202051D01*
X97173914Y-87126632D01*
X97337782Y-87017139D01*
X97477139Y-86877782D01*
X97586632Y-86713914D01*
X97662051Y-86531835D01*
X97700500Y-86338541D01*
X97700500Y-86141459D01*
X97662051Y-85948165D01*
X97586632Y-85766086D01*
X97477139Y-85602218D01*
X97337782Y-85462861D01*
X97173914Y-85353368D01*
X97173915Y-85353368D01*
X97173913Y-85353367D01*
X96991835Y-85277949D01*
X96798543Y-85239500D01*
X96798541Y-85239500D01*
X96601459Y-85239500D01*
X96601456Y-85239500D01*
X96408165Y-85277949D01*
X96408163Y-85277949D01*
X96226086Y-85353367D01*
X96062218Y-85462861D01*
X96062214Y-85462864D01*
X95922864Y-85602214D01*
X95922861Y-85602218D01*
X95813367Y-85766086D01*
X95737949Y-85948163D01*
X95737949Y-85948165D01*
X95699500Y-86141456D01*
X72300499Y-86141456D01*
X72262051Y-85948165D01*
X72186632Y-85766086D01*
X72077139Y-85602218D01*
X71937782Y-85462861D01*
X71773914Y-85353368D01*
X71773915Y-85353368D01*
X71773913Y-85353367D01*
X71591835Y-85277949D01*
X71398543Y-85239500D01*
X71398541Y-85239500D01*
X71201459Y-85239500D01*
X71201456Y-85239500D01*
X71008165Y-85277949D01*
X71008163Y-85277949D01*
X70826086Y-85353367D01*
X70662218Y-85462861D01*
X70662214Y-85462864D01*
X70522864Y-85602214D01*
X70522861Y-85602218D01*
X70413367Y-85766086D01*
X70337949Y-85948163D01*
X70337949Y-85948165D01*
X70299500Y-86141456D01*
X20500500Y-86141456D01*
X20500500Y-83601456D01*
X70299500Y-83601456D01*
X70299500Y-83798543D01*
X70337949Y-83991834D01*
X70337949Y-83991836D01*
X70413367Y-84173913D01*
X70413368Y-84173914D01*
X70522861Y-84337782D01*
X70662218Y-84477139D01*
X70826086Y-84586632D01*
X71008165Y-84662051D01*
X71201459Y-84700500D01*
X71201460Y-84700500D01*
X71398540Y-84700500D01*
X71398541Y-84700500D01*
X71591835Y-84662051D01*
X71773914Y-84586632D01*
X71937782Y-84477139D01*
X72077139Y-84337782D01*
X72186632Y-84173914D01*
X72262051Y-83991835D01*
X72300500Y-83798541D01*
X72300500Y-83601459D01*
X72300499Y-83601456D01*
X95699500Y-83601456D01*
X95699500Y-83798543D01*
X95737949Y-83991834D01*
X95737949Y-83991836D01*
X95813367Y-84173913D01*
X95813368Y-84173914D01*
X95922861Y-84337782D01*
X96062218Y-84477139D01*
X96226086Y-84586632D01*
X96408165Y-84662051D01*
X96601459Y-84700500D01*
X96601460Y-84700500D01*
X96798540Y-84700500D01*
X96798541Y-84700500D01*
X96991835Y-84662051D01*
X97173914Y-84586632D01*
X97337782Y-84477139D01*
X97477139Y-84337782D01*
X97586632Y-84173914D01*
X97662051Y-83991835D01*
X97700500Y-83798541D01*
X97700500Y-83601459D01*
X97662051Y-83408165D01*
X97586632Y-83226086D01*
X97477139Y-83062218D01*
X97337782Y-82922861D01*
X97173914Y-82813368D01*
X97173915Y-82813368D01*
X97173913Y-82813367D01*
X96991835Y-82737949D01*
X96798543Y-82699500D01*
X96798541Y-82699500D01*
X96601459Y-82699500D01*
X96601456Y-82699500D01*
X96408165Y-82737949D01*
X96408163Y-82737949D01*
X96226086Y-82813367D01*
X96062218Y-82922861D01*
X96062214Y-82922864D01*
X95922864Y-83062214D01*
X95922861Y-83062218D01*
X95813367Y-83226086D01*
X95737949Y-83408163D01*
X95737949Y-83408165D01*
X95699500Y-83601456D01*
X72300499Y-83601456D01*
X72262051Y-83408165D01*
X72186632Y-83226086D01*
X72077139Y-83062218D01*
X71937782Y-82922861D01*
X71773914Y-82813368D01*
X71773915Y-82813368D01*
X71773913Y-82813367D01*
X71591835Y-82737949D01*
X71398543Y-82699500D01*
X71398541Y-82699500D01*
X71201459Y-82699500D01*
X71201456Y-82699500D01*
X71008165Y-82737949D01*
X71008163Y-82737949D01*
X70826086Y-82813367D01*
X70662218Y-82922861D01*
X70662214Y-82922864D01*
X70522864Y-83062214D01*
X70522861Y-83062218D01*
X70413367Y-83226086D01*
X70337949Y-83408163D01*
X70337949Y-83408165D01*
X70299500Y-83601456D01*
X20500500Y-83601456D01*
X20500500Y-81074998D01*
X70220000Y-81074998D01*
X70220000Y-81245001D01*
X70246592Y-81412898D01*
X70299123Y-81574574D01*
X70376303Y-81726047D01*
X70378026Y-81728418D01*
X70800706Y-81305737D01*
X70815437Y-81360712D01*
X70883896Y-81479287D01*
X70980713Y-81576104D01*
X71099288Y-81644563D01*
X71154259Y-81659292D01*
X70731580Y-82081972D01*
X70733950Y-82083695D01*
X70733954Y-82083697D01*
X70885422Y-82160875D01*
X71047101Y-82213407D01*
X71214999Y-82240000D01*
X71385001Y-82240000D01*
X71552898Y-82213407D01*
X71714574Y-82160876D01*
X71866048Y-82083696D01*
X71868418Y-82081972D01*
X71445738Y-81659292D01*
X71500712Y-81644563D01*
X71619287Y-81576104D01*
X71716104Y-81479287D01*
X71784563Y-81360712D01*
X71799292Y-81305738D01*
X72221972Y-81728418D01*
X72223696Y-81726048D01*
X72300876Y-81574574D01*
X72353407Y-81412898D01*
X72380000Y-81245001D01*
X72380000Y-81074998D01*
X72379538Y-81072082D01*
X72377855Y-81061456D01*
X95699500Y-81061456D01*
X95699500Y-81258543D01*
X95737949Y-81451834D01*
X95737949Y-81451836D01*
X95813367Y-81633913D01*
X95813368Y-81633914D01*
X95922861Y-81797782D01*
X96062218Y-81937139D01*
X96226086Y-82046632D01*
X96408165Y-82122051D01*
X96601459Y-82160500D01*
X96601460Y-82160500D01*
X96798540Y-82160500D01*
X96798541Y-82160500D01*
X96991835Y-82122051D01*
X97173914Y-82046632D01*
X97337782Y-81937139D01*
X97477139Y-81797782D01*
X97586632Y-81633914D01*
X97662051Y-81451835D01*
X97700500Y-81258541D01*
X97700500Y-81061459D01*
X97662051Y-80868165D01*
X97586632Y-80686086D01*
X97477139Y-80522218D01*
X97337782Y-80382861D01*
X97173914Y-80273368D01*
X97173915Y-80273368D01*
X97173913Y-80273367D01*
X96991835Y-80197949D01*
X96798543Y-80159500D01*
X96798541Y-80159500D01*
X96601459Y-80159500D01*
X96601456Y-80159500D01*
X96408165Y-80197949D01*
X96408163Y-80197949D01*
X96226086Y-80273367D01*
X96062218Y-80382861D01*
X96062214Y-80382864D01*
X95922864Y-80522214D01*
X95922861Y-80522218D01*
X95813367Y-80686086D01*
X95737949Y-80868163D01*
X95737949Y-80868165D01*
X95699500Y-81061456D01*
X72377855Y-81061456D01*
X72353407Y-80907101D01*
X72300875Y-80745422D01*
X72223697Y-80593954D01*
X72223695Y-80593950D01*
X72221972Y-80591580D01*
X71799292Y-81014259D01*
X71784563Y-80959288D01*
X71716104Y-80840713D01*
X71619287Y-80743896D01*
X71500712Y-80675437D01*
X71445737Y-80660706D01*
X71868418Y-80238026D01*
X71866047Y-80236303D01*
X71714574Y-80159123D01*
X71552898Y-80106592D01*
X71385001Y-80080000D01*
X71214999Y-80080000D01*
X71047101Y-80106592D01*
X70885425Y-80159123D01*
X70733961Y-80236298D01*
X70733953Y-80236302D01*
X70731580Y-80238026D01*
X71154261Y-80660707D01*
X71099288Y-80675437D01*
X70980713Y-80743896D01*
X70883896Y-80840713D01*
X70815437Y-80959288D01*
X70800707Y-81014261D01*
X70378026Y-80591580D01*
X70376302Y-80593953D01*
X70376298Y-80593961D01*
X70299123Y-80745425D01*
X70246592Y-80907101D01*
X70220000Y-81074998D01*
X20500500Y-81074998D01*
X20500500Y-78521456D01*
X70299500Y-78521456D01*
X70299500Y-78718543D01*
X70337949Y-78911834D01*
X70337949Y-78911836D01*
X70413367Y-79093913D01*
X70413368Y-79093914D01*
X70522861Y-79257782D01*
X70662218Y-79397139D01*
X70826086Y-79506632D01*
X71008165Y-79582051D01*
X71201459Y-79620500D01*
X71201460Y-79620500D01*
X71398540Y-79620500D01*
X71398541Y-79620500D01*
X71591835Y-79582051D01*
X71773914Y-79506632D01*
X71937782Y-79397139D01*
X72077139Y-79257782D01*
X72186632Y-79093914D01*
X72262051Y-78911835D01*
X72300500Y-78718541D01*
X72300500Y-78521459D01*
X72300499Y-78521456D01*
X95699500Y-78521456D01*
X95699500Y-78718543D01*
X95737949Y-78911834D01*
X95737949Y-78911836D01*
X95813367Y-79093913D01*
X95813368Y-79093914D01*
X95922861Y-79257782D01*
X96062218Y-79397139D01*
X96226086Y-79506632D01*
X96408165Y-79582051D01*
X96601459Y-79620500D01*
X96601460Y-79620500D01*
X96798540Y-79620500D01*
X96798541Y-79620500D01*
X96991835Y-79582051D01*
X97173914Y-79506632D01*
X97337782Y-79397139D01*
X97477139Y-79257782D01*
X97586632Y-79093914D01*
X97662051Y-78911835D01*
X97700500Y-78718541D01*
X97700500Y-78521459D01*
X97662051Y-78328165D01*
X97586632Y-78146086D01*
X97477139Y-77982218D01*
X97337782Y-77842861D01*
X97173914Y-77733368D01*
X97173915Y-77733368D01*
X97173913Y-77733367D01*
X96991835Y-77657949D01*
X96798543Y-77619500D01*
X96798541Y-77619500D01*
X96601459Y-77619500D01*
X96601456Y-77619500D01*
X96408165Y-77657949D01*
X96408163Y-77657949D01*
X96226086Y-77733367D01*
X96062218Y-77842861D01*
X96062214Y-77842864D01*
X95922864Y-77982214D01*
X95922861Y-77982218D01*
X95813367Y-78146086D01*
X95737949Y-78328163D01*
X95737949Y-78328165D01*
X95699500Y-78521456D01*
X72300499Y-78521456D01*
X72262051Y-78328165D01*
X72186632Y-78146086D01*
X72077139Y-77982218D01*
X71937782Y-77842861D01*
X71773914Y-77733368D01*
X71773915Y-77733368D01*
X71773913Y-77733367D01*
X71591835Y-77657949D01*
X71398543Y-77619500D01*
X71398541Y-77619500D01*
X71201459Y-77619500D01*
X71201456Y-77619500D01*
X71008165Y-77657949D01*
X71008163Y-77657949D01*
X70826086Y-77733367D01*
X70662218Y-77842861D01*
X70662214Y-77842864D01*
X70522864Y-77982214D01*
X70522861Y-77982218D01*
X70413367Y-78146086D01*
X70337949Y-78328163D01*
X70337949Y-78328165D01*
X70299500Y-78521456D01*
X20500500Y-78521456D01*
X20500500Y-78099000D01*
X20519407Y-78040809D01*
X20568907Y-78004845D01*
X20599500Y-78000000D01*
X26999999Y-78000000D01*
X27000000Y-78000000D01*
X27000000Y-59304892D01*
X35629500Y-59304892D01*
X35629500Y-72924892D01*
X35629500Y-73075108D01*
X35663786Y-73203069D01*
X35668379Y-73220209D01*
X35743482Y-73350290D01*
X35743484Y-73350292D01*
X35743486Y-73350295D01*
X37849705Y-75456514D01*
X37849707Y-75456515D01*
X37849709Y-75456517D01*
X37979791Y-75531620D01*
X37979789Y-75531620D01*
X37979793Y-75531621D01*
X37979795Y-75531622D01*
X38124892Y-75570500D01*
X38275108Y-75570500D01*
X40124892Y-75570500D01*
X48100935Y-75570500D01*
X48159126Y-75589407D01*
X48183248Y-75614496D01*
X48207326Y-75650531D01*
X48349469Y-75792674D01*
X48516612Y-75904356D01*
X48702331Y-75981283D01*
X48899489Y-76020500D01*
X48899490Y-76020500D01*
X49100510Y-76020500D01*
X49100511Y-76020500D01*
X49297669Y-75981283D01*
X49483388Y-75904356D01*
X49650531Y-75792674D01*
X49792674Y-75650531D01*
X49816751Y-75614497D01*
X49864800Y-75576619D01*
X49899065Y-75570500D01*
X55100935Y-75570500D01*
X55159126Y-75589407D01*
X55183248Y-75614496D01*
X55207326Y-75650531D01*
X55349469Y-75792674D01*
X55516612Y-75904356D01*
X55702331Y-75981283D01*
X55899489Y-76020500D01*
X55899490Y-76020500D01*
X56100510Y-76020500D01*
X56100511Y-76020500D01*
X56297669Y-75981283D01*
X56483388Y-75904356D01*
X56650531Y-75792674D01*
X56792674Y-75650531D01*
X56904356Y-75483388D01*
X56981283Y-75297669D01*
X57020500Y-75100511D01*
X57020500Y-74899489D01*
X56981283Y-74702331D01*
X56904357Y-74516614D01*
X56904357Y-74516613D01*
X56792674Y-74349469D01*
X56650530Y-74207325D01*
X56483385Y-74095642D01*
X56297669Y-74018717D01*
X56100513Y-73979500D01*
X56100511Y-73979500D01*
X55899489Y-73979500D01*
X55899486Y-73979500D01*
X55702331Y-74018717D01*
X55702329Y-74018717D01*
X55516614Y-74095642D01*
X55516613Y-74095642D01*
X55349469Y-74207325D01*
X55207329Y-74349465D01*
X55207326Y-74349469D01*
X55183250Y-74385502D01*
X55135200Y-74423381D01*
X55100935Y-74429500D01*
X49899065Y-74429500D01*
X49840874Y-74410593D01*
X49816750Y-74385502D01*
X49792674Y-74349469D01*
X49650531Y-74207326D01*
X49646312Y-74204507D01*
X49483385Y-74095642D01*
X49297669Y-74018717D01*
X49100513Y-73979500D01*
X49100511Y-73979500D01*
X48899489Y-73979500D01*
X48899486Y-73979500D01*
X48702331Y-74018717D01*
X48702329Y-74018717D01*
X48516614Y-74095642D01*
X48516613Y-74095642D01*
X48349469Y-74207325D01*
X48207329Y-74349465D01*
X48207326Y-74349469D01*
X48183250Y-74385502D01*
X48135200Y-74423381D01*
X48100935Y-74429500D01*
X38477317Y-74429500D01*
X38419126Y-74410593D01*
X38407313Y-74400504D01*
X36799496Y-72792687D01*
X36771719Y-72738170D01*
X36770500Y-72722683D01*
X36770500Y-71804894D01*
X36789407Y-71746703D01*
X36838907Y-71710739D01*
X36900093Y-71710739D01*
X36914444Y-71716684D01*
X36949696Y-71734646D01*
X37043481Y-71749500D01*
X37646518Y-71749499D01*
X37646520Y-71749499D01*
X37646521Y-71749498D01*
X37693411Y-71742072D01*
X37740299Y-71734647D01*
X37740299Y-71734646D01*
X37740304Y-71734646D01*
X37853342Y-71677050D01*
X37909998Y-71620393D01*
X37964513Y-71592618D01*
X38024945Y-71602189D01*
X38050000Y-71620392D01*
X38106658Y-71677050D01*
X38219696Y-71734646D01*
X38313481Y-71749500D01*
X38916518Y-71749499D01*
X38916520Y-71749499D01*
X38916521Y-71749498D01*
X38963411Y-71742072D01*
X39010299Y-71734647D01*
X39010299Y-71734646D01*
X39010304Y-71734646D01*
X39123342Y-71677050D01*
X39213050Y-71587342D01*
X39270646Y-71474304D01*
X39285500Y-71380519D01*
X39285499Y-69277482D01*
X39285499Y-69277478D01*
X39285498Y-69277476D01*
X39270647Y-69183700D01*
X39270645Y-69183694D01*
X39260582Y-69163943D01*
X39251011Y-69103511D01*
X39278789Y-69048995D01*
X39333306Y-69021218D01*
X39348792Y-69019999D01*
X39534999Y-69019999D01*
X39535000Y-69019998D01*
X39535000Y-68520001D01*
X40035000Y-68520001D01*
X40035000Y-69019998D01*
X40035001Y-69019999D01*
X40850907Y-69019999D01*
X40850912Y-69019998D01*
X40908078Y-69013854D01*
X40908080Y-69013853D01*
X41037404Y-68965618D01*
X41147899Y-68882904D01*
X41147904Y-68882899D01*
X41230618Y-68772404D01*
X41278853Y-68643081D01*
X41278854Y-68643080D01*
X41284999Y-68585909D01*
X41285000Y-68585909D01*
X41285000Y-68520001D01*
X41284999Y-68520000D01*
X40035001Y-68520000D01*
X40035000Y-68520001D01*
X39535000Y-68520001D01*
X39534999Y-68520000D01*
X38285002Y-68520000D01*
X38285001Y-68520001D01*
X38285001Y-68585912D01*
X38291145Y-68643078D01*
X38291146Y-68643080D01*
X38341856Y-68779039D01*
X38340115Y-68779688D01*
X38349707Y-68830769D01*
X38323497Y-68886056D01*
X38269796Y-68915378D01*
X38267010Y-68915860D01*
X38219699Y-68923352D01*
X38219695Y-68923354D01*
X38106659Y-68980949D01*
X38106658Y-68980949D01*
X38106658Y-68980950D01*
X38050001Y-69037606D01*
X37995487Y-69065382D01*
X37935055Y-69055811D01*
X37909999Y-69037607D01*
X37853342Y-68980950D01*
X37740304Y-68923354D01*
X37740305Y-68923354D01*
X37646522Y-68908500D01*
X37043479Y-68908500D01*
X37043476Y-68908501D01*
X36949700Y-68923352D01*
X36949694Y-68923354D01*
X36914444Y-68941315D01*
X36854012Y-68950886D01*
X36799496Y-68923108D01*
X36771719Y-68868591D01*
X36770500Y-68853105D01*
X36770500Y-60049500D01*
X36789407Y-59991309D01*
X36838907Y-59955345D01*
X36869500Y-59950500D01*
X38389101Y-59950500D01*
X38447292Y-59969407D01*
X38483256Y-60018907D01*
X38483256Y-60080093D01*
X38459106Y-60119501D01*
X38436950Y-60141658D01*
X38436949Y-60141659D01*
X38379354Y-60254695D01*
X38364500Y-60348477D01*
X38364500Y-60951520D01*
X38364501Y-60951523D01*
X38379352Y-61045299D01*
X38379354Y-61045304D01*
X38436950Y-61158342D01*
X38493606Y-61214998D01*
X38521382Y-61269513D01*
X38511811Y-61329945D01*
X38493607Y-61355000D01*
X38436950Y-61411658D01*
X38436949Y-61411659D01*
X38379354Y-61524695D01*
X38364500Y-61618477D01*
X38364500Y-62221520D01*
X38364501Y-62221523D01*
X38379352Y-62315299D01*
X38379354Y-62315304D01*
X38436950Y-62428342D01*
X38493606Y-62484998D01*
X38521382Y-62539513D01*
X38511811Y-62599945D01*
X38493607Y-62625000D01*
X38436950Y-62681658D01*
X38436949Y-62681659D01*
X38379354Y-62794695D01*
X38364500Y-62888477D01*
X38364500Y-63491520D01*
X38364501Y-63491523D01*
X38379352Y-63585299D01*
X38379354Y-63585304D01*
X38436950Y-63698342D01*
X38493606Y-63754998D01*
X38521382Y-63809513D01*
X38511811Y-63869945D01*
X38493607Y-63895000D01*
X38442561Y-63946047D01*
X38436949Y-63951659D01*
X38379354Y-64064695D01*
X38364500Y-64158477D01*
X38364500Y-64761520D01*
X38364501Y-64761523D01*
X38379352Y-64855299D01*
X38379354Y-64855304D01*
X38436950Y-64968342D01*
X38493606Y-65024998D01*
X38521382Y-65079513D01*
X38511811Y-65139945D01*
X38493607Y-65165000D01*
X38462181Y-65196427D01*
X38436949Y-65221659D01*
X38379354Y-65334695D01*
X38364500Y-65428477D01*
X38364500Y-66031520D01*
X38364501Y-66031523D01*
X38379352Y-66125299D01*
X38379354Y-66125304D01*
X38436950Y-66238342D01*
X38493606Y-66294998D01*
X38521382Y-66349513D01*
X38511811Y-66409945D01*
X38493607Y-66435000D01*
X38453163Y-66475445D01*
X38436949Y-66491659D01*
X38379354Y-66604695D01*
X38364500Y-66698477D01*
X38364500Y-67301520D01*
X38364501Y-67301523D01*
X38379352Y-67395299D01*
X38379354Y-67395304D01*
X38436950Y-67508342D01*
X38436952Y-67508344D01*
X38441531Y-67514647D01*
X38439789Y-67515912D01*
X38462652Y-67560783D01*
X38453081Y-67621215D01*
X38427094Y-67652088D01*
X38427101Y-67652095D01*
X38427022Y-67652173D01*
X38424209Y-67655516D01*
X38422101Y-67657094D01*
X38422096Y-67657098D01*
X38339381Y-67767595D01*
X38291146Y-67896918D01*
X38291145Y-67896919D01*
X38285000Y-67954090D01*
X38285000Y-68019999D01*
X38285001Y-68020000D01*
X41284998Y-68020000D01*
X41284999Y-68019999D01*
X41284999Y-67954093D01*
X41284998Y-67954087D01*
X41278854Y-67896921D01*
X41278853Y-67896919D01*
X41230618Y-67767595D01*
X41147903Y-67657100D01*
X41147893Y-67657090D01*
X41145797Y-67655521D01*
X41144538Y-67653735D01*
X41142894Y-67652091D01*
X41143178Y-67651806D01*
X41110545Y-67605512D01*
X41111421Y-67544332D01*
X41129466Y-67515358D01*
X41128475Y-67514638D01*
X41130900Y-67511301D01*
X41132895Y-67509851D01*
X41135135Y-67506256D01*
X41138569Y-67502823D01*
X41140252Y-67504507D01*
X41180404Y-67475342D01*
X41210987Y-67470500D01*
X45143505Y-67470500D01*
X45201696Y-67489407D01*
X45213509Y-67499496D01*
X47414304Y-69700291D01*
X47414306Y-69700294D01*
X47501906Y-69787894D01*
X47609194Y-69849836D01*
X47609196Y-69849836D01*
X47609197Y-69849837D01*
X47669026Y-69865868D01*
X47728855Y-69881900D01*
X47728857Y-69881901D01*
X47728858Y-69881901D01*
X47858806Y-69881901D01*
X47858822Y-69881900D01*
X54030541Y-69881900D01*
X54030543Y-69881900D01*
X54150206Y-69849836D01*
X54257494Y-69787894D01*
X54345094Y-69700294D01*
X54345095Y-69700291D01*
X55649711Y-68395674D01*
X55704227Y-68367899D01*
X55739025Y-68368581D01*
X55899489Y-68400500D01*
X55899490Y-68400500D01*
X56100510Y-68400500D01*
X56100511Y-68400500D01*
X56260973Y-68368582D01*
X56321732Y-68375774D01*
X56350289Y-68395676D01*
X64323504Y-76368891D01*
X64323506Y-76368894D01*
X64411106Y-76456494D01*
X64518394Y-76518436D01*
X64638057Y-76550500D01*
X70358170Y-76550500D01*
X70416361Y-76569407D01*
X70440485Y-76594498D01*
X70522861Y-76717782D01*
X70662218Y-76857139D01*
X70826086Y-76966632D01*
X71008165Y-77042051D01*
X71201459Y-77080500D01*
X71201460Y-77080500D01*
X71398540Y-77080500D01*
X71398541Y-77080500D01*
X71591835Y-77042051D01*
X71773914Y-76966632D01*
X71937782Y-76857139D01*
X72077139Y-76717782D01*
X72186632Y-76553914D01*
X72262051Y-76371835D01*
X72300500Y-76178541D01*
X72300500Y-75981459D01*
X72300499Y-75981456D01*
X95699500Y-75981456D01*
X95699500Y-75981459D01*
X95699500Y-76178541D01*
X95737363Y-76368891D01*
X95737949Y-76371834D01*
X95737949Y-76371836D01*
X95813367Y-76553913D01*
X95813368Y-76553914D01*
X95922861Y-76717782D01*
X96062218Y-76857139D01*
X96226086Y-76966632D01*
X96408165Y-77042051D01*
X96601459Y-77080500D01*
X96601460Y-77080500D01*
X96798540Y-77080500D01*
X96798541Y-77080500D01*
X96991835Y-77042051D01*
X97173914Y-76966632D01*
X97337782Y-76857139D01*
X97477139Y-76717782D01*
X97586632Y-76553914D01*
X97662051Y-76371835D01*
X97700500Y-76178541D01*
X97700500Y-75981459D01*
X97662051Y-75788165D01*
X97586632Y-75606086D01*
X97477139Y-75442218D01*
X97337782Y-75302861D01*
X97214613Y-75220562D01*
X97173913Y-75193367D01*
X96991835Y-75117949D01*
X96798543Y-75079500D01*
X96798541Y-75079500D01*
X96601459Y-75079500D01*
X96601456Y-75079500D01*
X96408165Y-75117949D01*
X96408163Y-75117949D01*
X96226086Y-75193367D01*
X96062218Y-75302861D01*
X96062214Y-75302864D01*
X95922864Y-75442214D01*
X95922861Y-75442218D01*
X95813367Y-75606086D01*
X95737949Y-75788163D01*
X95737949Y-75788165D01*
X95699500Y-75981456D01*
X72300499Y-75981456D01*
X72262051Y-75788165D01*
X72186632Y-75606086D01*
X72077139Y-75442218D01*
X72011281Y-75376360D01*
X71983504Y-75321843D01*
X71993075Y-75261411D01*
X72031884Y-75220562D01*
X72032504Y-75220205D01*
X72090894Y-75186494D01*
X72178494Y-75098894D01*
X72178494Y-75098892D01*
X72186644Y-75090743D01*
X72186645Y-75090740D01*
X72965594Y-74311794D01*
X73027536Y-74204507D01*
X73059600Y-74084843D01*
X73059600Y-73960958D01*
X73059600Y-73441456D01*
X95699500Y-73441456D01*
X95699500Y-73638543D01*
X95737949Y-73831834D01*
X95737949Y-73831836D01*
X95813367Y-74013913D01*
X95813368Y-74013914D01*
X95922861Y-74177782D01*
X96062218Y-74317139D01*
X96226086Y-74426632D01*
X96408165Y-74502051D01*
X96601459Y-74540500D01*
X96601460Y-74540500D01*
X96798540Y-74540500D01*
X96798541Y-74540500D01*
X96991835Y-74502051D01*
X97173914Y-74426632D01*
X97337782Y-74317139D01*
X97477139Y-74177782D01*
X97586632Y-74013914D01*
X97662051Y-73831835D01*
X97700500Y-73638541D01*
X97700500Y-73441459D01*
X97662051Y-73248165D01*
X97586632Y-73066086D01*
X97477139Y-72902218D01*
X97337782Y-72762861D01*
X97173914Y-72653368D01*
X97173915Y-72653368D01*
X97173913Y-72653367D01*
X96991835Y-72577949D01*
X96798543Y-72539500D01*
X96798541Y-72539500D01*
X96601459Y-72539500D01*
X96601456Y-72539500D01*
X96408165Y-72577949D01*
X96408163Y-72577949D01*
X96226086Y-72653367D01*
X96062218Y-72762861D01*
X96062214Y-72762864D01*
X95922864Y-72902214D01*
X95922861Y-72902218D01*
X95813367Y-73066086D01*
X95737949Y-73248163D01*
X95737949Y-73248165D01*
X95699500Y-73441456D01*
X73059600Y-73441456D01*
X73059600Y-72359030D01*
X73059601Y-72359017D01*
X73059601Y-72227157D01*
X73059600Y-72227155D01*
X73027537Y-72107497D01*
X73027536Y-72107496D01*
X73027536Y-72107494D01*
X72965594Y-72000206D01*
X72877994Y-71912606D01*
X72877991Y-71912604D01*
X72298667Y-71333280D01*
X72270890Y-71278763D01*
X72271572Y-71243965D01*
X72300500Y-71098541D01*
X72300500Y-70901459D01*
X72262051Y-70708165D01*
X72186632Y-70526086D01*
X72077139Y-70362218D01*
X71937782Y-70222861D01*
X71773914Y-70113368D01*
X71773915Y-70113368D01*
X71773913Y-70113367D01*
X71591835Y-70037949D01*
X71398543Y-69999500D01*
X71398541Y-69999500D01*
X71201459Y-69999500D01*
X71201456Y-69999500D01*
X71008165Y-70037949D01*
X71008163Y-70037949D01*
X70826086Y-70113367D01*
X70662218Y-70222861D01*
X70662214Y-70222864D01*
X70522864Y-70362214D01*
X70522861Y-70362218D01*
X70413367Y-70526086D01*
X70337949Y-70708163D01*
X70337949Y-70708165D01*
X70299500Y-70901456D01*
X70299500Y-71098543D01*
X70337949Y-71291834D01*
X70337949Y-71291836D01*
X70413367Y-71473913D01*
X70440702Y-71514823D01*
X70522861Y-71637782D01*
X70662218Y-71777139D01*
X70826086Y-71886632D01*
X71008165Y-71962051D01*
X71201459Y-72000500D01*
X71201460Y-72000500D01*
X71398540Y-72000500D01*
X71398541Y-72000500D01*
X71543963Y-71971573D01*
X71604723Y-71978765D01*
X71633280Y-71998667D01*
X72089604Y-72454991D01*
X72117381Y-72509508D01*
X72118600Y-72524995D01*
X72118600Y-72704671D01*
X72099693Y-72762862D01*
X72050193Y-72798826D01*
X71989007Y-72798826D01*
X71949596Y-72774675D01*
X71937785Y-72762864D01*
X71937782Y-72762861D01*
X71773914Y-72653368D01*
X71773915Y-72653368D01*
X71773913Y-72653367D01*
X71591835Y-72577949D01*
X71398543Y-72539500D01*
X71398541Y-72539500D01*
X71201459Y-72539500D01*
X71201456Y-72539500D01*
X71056038Y-72568426D01*
X70995277Y-72561234D01*
X70966720Y-72541332D01*
X68424888Y-69999500D01*
X65757923Y-67332536D01*
X68313700Y-67332536D01*
X68313700Y-67474463D01*
X68341389Y-67613663D01*
X68395698Y-67744780D01*
X68395704Y-67744791D01*
X68474550Y-67862791D01*
X68574908Y-67963149D01*
X68692908Y-68041995D01*
X68692919Y-68042001D01*
X68780330Y-68078207D01*
X68824038Y-68096311D01*
X68963237Y-68124000D01*
X68963238Y-68124000D01*
X69105162Y-68124000D01*
X69105163Y-68124000D01*
X69244362Y-68096311D01*
X69290072Y-68077376D01*
X69351067Y-68072575D01*
X69369792Y-68079114D01*
X69663444Y-68216038D01*
X70243958Y-68486721D01*
X70288707Y-68528448D01*
X70299219Y-68557131D01*
X70337949Y-68751836D01*
X70413367Y-68933913D01*
X70413368Y-68933914D01*
X70522861Y-69097782D01*
X70662218Y-69237139D01*
X70826086Y-69346632D01*
X71008165Y-69422051D01*
X71201459Y-69460500D01*
X71201460Y-69460500D01*
X71398540Y-69460500D01*
X71398541Y-69460500D01*
X71591835Y-69422051D01*
X71773914Y-69346632D01*
X71937782Y-69237139D01*
X72077139Y-69097782D01*
X72186632Y-68933914D01*
X72262051Y-68751835D01*
X72300500Y-68558541D01*
X72300500Y-68361459D01*
X72262051Y-68168165D01*
X72186632Y-67986086D01*
X72077139Y-67822218D01*
X71937782Y-67682861D01*
X71773914Y-67573368D01*
X71773915Y-67573368D01*
X71773913Y-67573367D01*
X71591835Y-67497949D01*
X71398543Y-67459500D01*
X71398541Y-67459500D01*
X71201459Y-67459500D01*
X71201456Y-67459500D01*
X71008165Y-67497949D01*
X71008163Y-67497949D01*
X70826088Y-67573366D01*
X70743264Y-67628707D01*
X70684375Y-67645315D01*
X70646426Y-67636116D01*
X69769129Y-67227049D01*
X69724380Y-67185322D01*
X69719502Y-67175209D01*
X69672701Y-67062219D01*
X69672695Y-67062208D01*
X69593849Y-66944208D01*
X69493491Y-66843850D01*
X69375491Y-66765004D01*
X69375480Y-66764998D01*
X69244363Y-66710689D01*
X69105163Y-66683000D01*
X68963237Y-66683000D01*
X68963236Y-66683000D01*
X68824036Y-66710689D01*
X68692919Y-66764998D01*
X68692908Y-66765004D01*
X68574908Y-66843850D01*
X68474550Y-66944208D01*
X68395704Y-67062208D01*
X68395698Y-67062219D01*
X68341389Y-67193336D01*
X68313700Y-67332536D01*
X65757923Y-67332536D01*
X63627422Y-65202035D01*
X68164700Y-65202035D01*
X68164700Y-65343962D01*
X68192389Y-65483162D01*
X68246698Y-65614279D01*
X68246704Y-65614290D01*
X68325550Y-65732290D01*
X68425908Y-65832648D01*
X68543908Y-65911494D01*
X68543919Y-65911500D01*
X68631330Y-65947706D01*
X68675038Y-65965810D01*
X68814237Y-65993499D01*
X68814238Y-65993499D01*
X68956162Y-65993499D01*
X68956163Y-65993499D01*
X69095362Y-65965810D01*
X69226485Y-65911498D01*
X69253244Y-65893617D01*
X69312130Y-65877008D01*
X69333859Y-65880303D01*
X70265350Y-66129879D01*
X70316664Y-66163202D01*
X70336824Y-66206186D01*
X70337945Y-66211823D01*
X70337949Y-66211836D01*
X70413367Y-66393913D01*
X70427466Y-66415013D01*
X70522861Y-66557782D01*
X70662218Y-66697139D01*
X70826086Y-66806632D01*
X71008165Y-66882051D01*
X71201459Y-66920500D01*
X71201460Y-66920500D01*
X71398540Y-66920500D01*
X71398541Y-66920500D01*
X71591835Y-66882051D01*
X71773914Y-66806632D01*
X71937782Y-66697139D01*
X72077139Y-66557782D01*
X72186632Y-66393914D01*
X72262051Y-66211835D01*
X72300500Y-66018541D01*
X72300500Y-65821459D01*
X72262051Y-65628165D01*
X72186632Y-65446086D01*
X72077139Y-65282218D01*
X71937782Y-65142861D01*
X71798888Y-65050055D01*
X71773913Y-65033367D01*
X71591835Y-64957949D01*
X71398543Y-64919500D01*
X71398541Y-64919500D01*
X71201459Y-64919500D01*
X71201456Y-64919500D01*
X71008165Y-64957949D01*
X71008163Y-64957949D01*
X70826088Y-65033366D01*
X70662217Y-65142860D01*
X70608650Y-65196427D01*
X70554133Y-65224203D01*
X70513026Y-65222049D01*
X69580252Y-64972129D01*
X69528938Y-64938806D01*
X69523559Y-64931504D01*
X69472643Y-64855304D01*
X69444849Y-64813707D01*
X69344492Y-64713350D01*
X69344491Y-64713349D01*
X69226491Y-64634503D01*
X69226480Y-64634497D01*
X69095363Y-64580188D01*
X68956163Y-64552499D01*
X68814237Y-64552499D01*
X68814236Y-64552499D01*
X68675036Y-64580188D01*
X68543919Y-64634497D01*
X68543908Y-64634503D01*
X68425908Y-64713349D01*
X68325550Y-64813707D01*
X68246704Y-64931707D01*
X68246698Y-64931718D01*
X68192389Y-65062835D01*
X68164700Y-65202035D01*
X63627422Y-65202035D01*
X63517095Y-65091708D01*
X63517094Y-65091706D01*
X63429494Y-65004106D01*
X63322206Y-64942164D01*
X63202543Y-64910100D01*
X63202541Y-64910100D01*
X51067422Y-64910100D01*
X51067406Y-64910099D01*
X51061343Y-64910099D01*
X50937458Y-64910099D01*
X50937455Y-64910099D01*
X50817797Y-64942162D01*
X50817796Y-64942163D01*
X50817794Y-64942163D01*
X50817794Y-64942164D01*
X50765893Y-64972129D01*
X50710503Y-65004108D01*
X50622905Y-65091705D01*
X50622906Y-65091706D01*
X50622904Y-65091708D01*
X49350288Y-66364323D01*
X49295771Y-66392100D01*
X49260970Y-66391417D01*
X49100513Y-66359500D01*
X49100511Y-66359500D01*
X48899489Y-66359500D01*
X48899485Y-66359500D01*
X48739028Y-66391417D01*
X48678266Y-66384225D01*
X48649710Y-66364323D01*
X46456495Y-64171108D01*
X46456494Y-64171106D01*
X46368894Y-64083506D01*
X46261606Y-64021564D01*
X46141943Y-63989500D01*
X46141941Y-63989500D01*
X41210987Y-63989500D01*
X41152796Y-63970593D01*
X41138964Y-63956762D01*
X41138559Y-63957168D01*
X41133051Y-63951660D01*
X41133050Y-63951658D01*
X41076393Y-63895001D01*
X41048618Y-63840487D01*
X41058189Y-63780055D01*
X41076392Y-63754999D01*
X41133050Y-63698342D01*
X41133051Y-63698339D01*
X41138559Y-63692832D01*
X41140242Y-63694515D01*
X41180399Y-63665344D01*
X41210987Y-63660500D01*
X58396041Y-63660500D01*
X58396043Y-63660500D01*
X58515706Y-63628436D01*
X58540087Y-63614359D01*
X58556738Y-63604747D01*
X58598367Y-63580712D01*
X58622994Y-63566494D01*
X58710594Y-63478894D01*
X58710594Y-63478892D01*
X58718744Y-63470743D01*
X58718746Y-63470740D01*
X59579992Y-62609496D01*
X59634508Y-62581719D01*
X59649995Y-62580500D01*
X70446262Y-62580500D01*
X70504453Y-62599407D01*
X70540417Y-62648907D01*
X70540417Y-62710093D01*
X70525188Y-62737924D01*
X70525563Y-62738175D01*
X70522862Y-62742216D01*
X70522861Y-62742218D01*
X70487797Y-62794695D01*
X70413367Y-62906086D01*
X70337949Y-63088163D01*
X70337949Y-63088165D01*
X70299500Y-63281456D01*
X70299500Y-63478543D01*
X70337949Y-63671834D01*
X70337949Y-63671836D01*
X70413367Y-63853913D01*
X70440823Y-63895004D01*
X70522861Y-64017782D01*
X70662218Y-64157139D01*
X70826086Y-64266632D01*
X71008165Y-64342051D01*
X71201459Y-64380500D01*
X71201460Y-64380500D01*
X71398540Y-64380500D01*
X71398541Y-64380500D01*
X71591835Y-64342051D01*
X71773914Y-64266632D01*
X71937782Y-64157139D01*
X72077139Y-64017782D01*
X72186632Y-63853914D01*
X72262051Y-63671835D01*
X72300500Y-63478541D01*
X72300500Y-63281459D01*
X72262051Y-63088165D01*
X72186632Y-62906086D01*
X72077139Y-62742218D01*
X72077137Y-62742216D01*
X72074437Y-62738175D01*
X72075352Y-62737563D01*
X72054909Y-62685323D01*
X72070362Y-62626121D01*
X72117661Y-62587308D01*
X72153738Y-62580500D01*
X95751618Y-62580500D01*
X95809809Y-62599407D01*
X95845773Y-62648907D01*
X95845773Y-62710093D01*
X95831711Y-62737691D01*
X95776299Y-62813958D01*
X95699123Y-62965425D01*
X95646592Y-63127101D01*
X95620000Y-63294998D01*
X95620000Y-63465001D01*
X95646592Y-63632898D01*
X95699123Y-63794574D01*
X95776303Y-63946047D01*
X95778026Y-63948418D01*
X96200706Y-63525737D01*
X96215437Y-63580712D01*
X96283896Y-63699287D01*
X96380713Y-63796104D01*
X96499288Y-63864563D01*
X96554260Y-63879292D01*
X96131580Y-64301972D01*
X96133950Y-64303695D01*
X96133954Y-64303697D01*
X96285422Y-64380875D01*
X96447101Y-64433407D01*
X96614999Y-64460000D01*
X96785001Y-64460000D01*
X96952898Y-64433407D01*
X97114574Y-64380876D01*
X97266043Y-64303699D01*
X97266049Y-64303695D01*
X97324009Y-64261585D01*
X97382199Y-64242677D01*
X97440390Y-64261584D01*
X97476354Y-64311084D01*
X97481200Y-64341677D01*
X97481200Y-65053474D01*
X97462293Y-65111665D01*
X97412793Y-65147629D01*
X97351607Y-65147629D01*
X97327199Y-65135789D01*
X97173916Y-65033369D01*
X97173914Y-65033367D01*
X96991835Y-64957949D01*
X96798543Y-64919500D01*
X96798541Y-64919500D01*
X96601459Y-64919500D01*
X96601456Y-64919500D01*
X96408165Y-64957949D01*
X96408163Y-64957949D01*
X96226086Y-65033367D01*
X96062218Y-65142861D01*
X96062214Y-65142864D01*
X95922864Y-65282214D01*
X95922861Y-65282218D01*
X95813367Y-65446086D01*
X95737949Y-65628163D01*
X95737949Y-65628165D01*
X95699500Y-65821456D01*
X95699500Y-66018543D01*
X95728426Y-66163961D01*
X95721234Y-66224722D01*
X95701332Y-66253279D01*
X95070308Y-66884304D01*
X95070306Y-66884306D01*
X95070305Y-66884305D01*
X94982708Y-66971903D01*
X94982706Y-66971905D01*
X94982706Y-66971906D01*
X94963071Y-67005914D01*
X94920764Y-67079193D01*
X94920764Y-67079194D01*
X94888700Y-67198857D01*
X94888700Y-69003943D01*
X94920764Y-69123606D01*
X94982706Y-69230894D01*
X95070306Y-69318494D01*
X95070308Y-69318495D01*
X95769204Y-70017391D01*
X95769206Y-70017394D01*
X95856806Y-70104994D01*
X95950023Y-70158812D01*
X95990963Y-70204281D01*
X95997359Y-70265131D01*
X95970526Y-70314551D01*
X95922869Y-70362208D01*
X95922861Y-70362218D01*
X95813367Y-70526086D01*
X95737949Y-70708163D01*
X95737949Y-70708165D01*
X95699500Y-70901456D01*
X95699500Y-71098543D01*
X95737949Y-71291834D01*
X95737949Y-71291836D01*
X95813367Y-71473913D01*
X95840702Y-71514823D01*
X95922861Y-71637782D01*
X96062218Y-71777139D01*
X96226086Y-71886632D01*
X96408165Y-71962051D01*
X96601459Y-72000500D01*
X96601460Y-72000500D01*
X96798540Y-72000500D01*
X96798541Y-72000500D01*
X96991835Y-71962051D01*
X97173914Y-71886632D01*
X97337782Y-71777139D01*
X97477139Y-71637782D01*
X97586632Y-71473914D01*
X97662051Y-71291835D01*
X97700500Y-71098541D01*
X97700500Y-70901459D01*
X97662051Y-70708165D01*
X97586632Y-70526086D01*
X97477139Y-70362218D01*
X97434524Y-70319603D01*
X97406747Y-70265086D01*
X97416318Y-70204654D01*
X97455027Y-70163863D01*
X97556994Y-70104994D01*
X97644594Y-70017394D01*
X97644595Y-70017391D01*
X98963891Y-68698095D01*
X98963894Y-68698094D01*
X99051494Y-68610494D01*
X99113436Y-68503206D01*
X99145500Y-68383543D01*
X99145500Y-50755857D01*
X99113436Y-50636194D01*
X99051494Y-50528906D01*
X98963894Y-50441306D01*
X98963891Y-50441304D01*
X97643695Y-49121108D01*
X97643694Y-49121106D01*
X97556094Y-49033506D01*
X97448806Y-48971564D01*
X97329143Y-48939500D01*
X97186955Y-48939500D01*
X97128764Y-48920593D01*
X97116951Y-48910504D01*
X96845739Y-48639292D01*
X96900712Y-48624563D01*
X97019287Y-48556104D01*
X97116104Y-48459287D01*
X97184563Y-48340712D01*
X97199292Y-48285738D01*
X97621972Y-48708418D01*
X97623696Y-48706048D01*
X97700876Y-48554574D01*
X97753407Y-48392898D01*
X97780000Y-48225001D01*
X97780000Y-48054998D01*
X97753407Y-47887101D01*
X97700875Y-47725422D01*
X97623697Y-47573954D01*
X97623695Y-47573950D01*
X97621972Y-47571580D01*
X97199292Y-47994259D01*
X97184563Y-47939288D01*
X97116104Y-47820713D01*
X97019287Y-47723896D01*
X96900712Y-47655437D01*
X96845737Y-47640706D01*
X97268418Y-47218026D01*
X97266047Y-47216303D01*
X97114574Y-47139123D01*
X96952898Y-47086592D01*
X96785001Y-47060000D01*
X96614999Y-47060000D01*
X96447101Y-47086592D01*
X96285425Y-47139123D01*
X96133961Y-47216298D01*
X96133953Y-47216302D01*
X96131580Y-47218026D01*
X96554261Y-47640707D01*
X96499288Y-47655437D01*
X96380713Y-47723896D01*
X96283896Y-47820713D01*
X96215437Y-47939288D01*
X96200707Y-47994261D01*
X95778026Y-47571580D01*
X95776302Y-47573953D01*
X95776298Y-47573961D01*
X95699123Y-47725425D01*
X95646592Y-47887101D01*
X95620000Y-48054998D01*
X95620000Y-48225001D01*
X95646592Y-48392898D01*
X95699123Y-48554574D01*
X95776299Y-48706041D01*
X95831711Y-48782309D01*
X95850618Y-48840500D01*
X95831711Y-48898691D01*
X95782211Y-48934655D01*
X95751618Y-48939500D01*
X80422457Y-48939500D01*
X80342681Y-48960876D01*
X80302793Y-48971564D01*
X80195503Y-49033508D01*
X80107905Y-49121105D01*
X80107906Y-49121106D01*
X80107904Y-49121108D01*
X77662381Y-51566632D01*
X75238509Y-53990504D01*
X75183992Y-54018281D01*
X75168505Y-54019500D01*
X72153738Y-54019500D01*
X72095547Y-54000593D01*
X72059583Y-53951093D01*
X72059583Y-53889907D01*
X72074811Y-53862075D01*
X72074437Y-53861825D01*
X72077137Y-53857783D01*
X72077139Y-53857782D01*
X72186632Y-53693914D01*
X72262051Y-53511835D01*
X72300500Y-53318541D01*
X72300500Y-53121459D01*
X72262051Y-52928165D01*
X72186632Y-52746086D01*
X72077139Y-52582218D01*
X71937782Y-52442861D01*
X71773914Y-52333368D01*
X71773915Y-52333368D01*
X71773913Y-52333367D01*
X71591835Y-52257949D01*
X71398543Y-52219500D01*
X71398541Y-52219500D01*
X71201459Y-52219500D01*
X71201456Y-52219500D01*
X71008165Y-52257949D01*
X71008163Y-52257949D01*
X70826086Y-52333367D01*
X70662218Y-52442861D01*
X70662214Y-52442864D01*
X70522864Y-52582214D01*
X70522861Y-52582218D01*
X70413367Y-52746086D01*
X70337949Y-52928163D01*
X70337949Y-52928165D01*
X70299500Y-53121456D01*
X70299500Y-53318543D01*
X70337949Y-53511834D01*
X70337949Y-53511836D01*
X70413367Y-53693913D01*
X70413368Y-53693914D01*
X70522861Y-53857782D01*
X70522862Y-53857783D01*
X70525563Y-53861825D01*
X70524647Y-53862436D01*
X70545091Y-53914677D01*
X70529638Y-53973879D01*
X70482339Y-54012692D01*
X70446262Y-54019500D01*
X55326222Y-54019500D01*
X55326206Y-54019499D01*
X55320143Y-54019499D01*
X55196258Y-54019499D01*
X55196255Y-54019499D01*
X55076597Y-54051562D01*
X55076596Y-54051563D01*
X55076594Y-54051563D01*
X55076594Y-54051564D01*
X54981213Y-54106632D01*
X54969303Y-54113508D01*
X54881705Y-54201105D01*
X54881706Y-54201106D01*
X50189504Y-58893308D01*
X50134987Y-58921085D01*
X50074555Y-58911514D01*
X50031290Y-58868249D01*
X50020500Y-58823304D01*
X50020500Y-58427316D01*
X50039407Y-58369125D01*
X50049490Y-58357318D01*
X56996514Y-51410295D01*
X57049927Y-51317782D01*
X57071620Y-51280209D01*
X57071620Y-51280207D01*
X57071622Y-51280205D01*
X57110500Y-51135108D01*
X57110500Y-50984892D01*
X57110500Y-47133320D01*
X57129407Y-47075129D01*
X57152318Y-47053960D01*
X57151639Y-47053025D01*
X57154783Y-47050740D01*
X57154786Y-47050739D01*
X57304158Y-46942214D01*
X57434714Y-46811658D01*
X57543239Y-46662286D01*
X57627062Y-46497776D01*
X57684117Y-46322178D01*
X57695549Y-46250000D01*
X57712219Y-46144751D01*
X57739996Y-46090234D01*
X57794513Y-46062457D01*
X57854945Y-46072028D01*
X57898210Y-46115293D01*
X57907781Y-46144751D01*
X57935881Y-46322173D01*
X57935883Y-46322178D01*
X57992938Y-46497776D01*
X58076761Y-46662286D01*
X58185286Y-46811658D01*
X58315842Y-46942214D01*
X58465214Y-47050739D01*
X58465215Y-47050740D01*
X58468361Y-47053025D01*
X58467150Y-47054690D01*
X58501945Y-47095389D01*
X58509500Y-47133320D01*
X58509500Y-49100933D01*
X58490593Y-49159124D01*
X58465503Y-49183247D01*
X58429471Y-49207324D01*
X58429470Y-49207324D01*
X58287327Y-49349466D01*
X58175642Y-49516613D01*
X58175642Y-49516614D01*
X58098717Y-49702329D01*
X58098717Y-49702331D01*
X58059500Y-49899486D01*
X58059500Y-50100513D01*
X58098717Y-50297668D01*
X58098717Y-50297670D01*
X58175642Y-50483385D01*
X58175642Y-50483386D01*
X58277746Y-50636194D01*
X58287326Y-50650531D01*
X58429469Y-50792674D01*
X58596612Y-50904356D01*
X58782331Y-50981283D01*
X58979489Y-51020500D01*
X58979490Y-51020500D01*
X59180510Y-51020500D01*
X59180511Y-51020500D01*
X59377669Y-50981283D01*
X59563388Y-50904356D01*
X59730531Y-50792674D01*
X59872674Y-50650531D01*
X59918829Y-50581456D01*
X70299500Y-50581456D01*
X70299500Y-50778543D01*
X70324526Y-50904356D01*
X70331776Y-50940804D01*
X70337949Y-50971834D01*
X70337949Y-50971836D01*
X70413367Y-51153913D01*
X70413368Y-51153914D01*
X70522861Y-51317782D01*
X70662218Y-51457139D01*
X70826086Y-51566632D01*
X71008165Y-51642051D01*
X71201459Y-51680500D01*
X71201460Y-51680500D01*
X71398540Y-51680500D01*
X71398541Y-51680500D01*
X71591835Y-51642051D01*
X71773914Y-51566632D01*
X71937782Y-51457139D01*
X72077139Y-51317782D01*
X72186632Y-51153914D01*
X72262051Y-50971835D01*
X72300500Y-50778541D01*
X72300500Y-50581459D01*
X72262051Y-50388165D01*
X72186632Y-50206086D01*
X72077139Y-50042218D01*
X71937782Y-49902861D01*
X71773914Y-49793368D01*
X71773915Y-49793368D01*
X71773913Y-49793367D01*
X71591835Y-49717949D01*
X71398543Y-49679500D01*
X71398541Y-49679500D01*
X71201459Y-49679500D01*
X71201456Y-49679500D01*
X71008165Y-49717949D01*
X71008163Y-49717949D01*
X70826086Y-49793367D01*
X70662218Y-49902861D01*
X70662214Y-49902864D01*
X70522864Y-50042214D01*
X70522861Y-50042218D01*
X70413367Y-50206086D01*
X70337949Y-50388163D01*
X70337949Y-50388165D01*
X70299500Y-50581456D01*
X59918829Y-50581456D01*
X59984356Y-50483388D01*
X60061283Y-50297669D01*
X60100500Y-50100511D01*
X60100500Y-49899489D01*
X60061283Y-49702331D01*
X60018896Y-49600000D01*
X59984357Y-49516614D01*
X59984357Y-49516613D01*
X59872672Y-49349466D01*
X59730529Y-49207324D01*
X59694497Y-49183247D01*
X59656618Y-49135196D01*
X59650500Y-49100933D01*
X59650500Y-47338278D01*
X70299500Y-47338278D01*
X70299500Y-48941714D01*
X70299501Y-48941724D01*
X70312292Y-49006033D01*
X70312293Y-49006036D01*
X70351001Y-49063966D01*
X70361028Y-49078972D01*
X70385451Y-49095291D01*
X70433964Y-49127707D01*
X70449933Y-49130883D01*
X70498281Y-49140500D01*
X72101718Y-49140499D01*
X72101722Y-49140498D01*
X72101724Y-49140498D01*
X72128381Y-49135196D01*
X72166035Y-49127707D01*
X72238972Y-49078972D01*
X72287707Y-49006035D01*
X72300500Y-48941719D01*
X72300499Y-47338282D01*
X72292885Y-47299998D01*
X72287927Y-47275069D01*
X72287707Y-47273965D01*
X72287706Y-47273963D01*
X72238973Y-47201030D01*
X72238972Y-47201028D01*
X72238639Y-47200805D01*
X72166035Y-47152292D01*
X72101720Y-47139500D01*
X70498285Y-47139500D01*
X70498275Y-47139501D01*
X70433966Y-47152292D01*
X70433963Y-47152293D01*
X70361030Y-47201026D01*
X70361026Y-47201030D01*
X70312292Y-47273964D01*
X70299500Y-47338278D01*
X59650500Y-47338278D01*
X59650500Y-47133320D01*
X59669407Y-47075129D01*
X59692318Y-47053960D01*
X59691639Y-47053025D01*
X59694783Y-47050740D01*
X59694786Y-47050739D01*
X59844158Y-46942214D01*
X59974714Y-46811658D01*
X60083239Y-46662286D01*
X60167062Y-46497776D01*
X60224117Y-46322178D01*
X60235549Y-46250000D01*
X60253000Y-46139820D01*
X60253000Y-45860180D01*
X60229939Y-45714582D01*
X60239510Y-45654150D01*
X60257713Y-45629094D01*
X64456514Y-41430295D01*
X64531622Y-41300205D01*
X64570500Y-41155108D01*
X64570500Y-41004892D01*
X64570500Y-24878710D01*
X108149500Y-24878710D01*
X108149500Y-25121289D01*
X108181161Y-25361781D01*
X108181161Y-25361786D01*
X108243944Y-25596092D01*
X108243948Y-25596105D01*
X108336772Y-25820204D01*
X108336774Y-25820208D01*
X108336776Y-25820212D01*
X108458064Y-26030289D01*
X108458066Y-26030292D01*
X108605729Y-26222731D01*
X108605731Y-26222733D01*
X108605735Y-26222738D01*
X108777262Y-26394265D01*
X108777266Y-26394268D01*
X108777268Y-26394270D01*
X108969707Y-26541933D01*
X108969711Y-26541936D01*
X109179788Y-26663224D01*
X109403900Y-26756054D01*
X109638211Y-26818838D01*
X109878712Y-26850500D01*
X109878713Y-26850500D01*
X110121287Y-26850500D01*
X110121288Y-26850500D01*
X110361789Y-26818838D01*
X110596100Y-26756054D01*
X110820212Y-26663224D01*
X111030289Y-26541936D01*
X111222738Y-26394265D01*
X111394265Y-26222738D01*
X111541936Y-26030289D01*
X111663224Y-25820212D01*
X111756054Y-25596100D01*
X111818838Y-25361789D01*
X111850500Y-25121288D01*
X111850500Y-24878712D01*
X111818838Y-24638211D01*
X111756054Y-24403900D01*
X111663224Y-24179788D01*
X111541936Y-23969711D01*
X111394265Y-23777262D01*
X111222738Y-23605735D01*
X111222733Y-23605731D01*
X111222731Y-23605729D01*
X111030292Y-23458066D01*
X111030289Y-23458064D01*
X110820212Y-23336776D01*
X110820208Y-23336774D01*
X110820204Y-23336772D01*
X110596105Y-23243948D01*
X110596104Y-23243947D01*
X110596100Y-23243946D01*
X110361789Y-23181162D01*
X110361786Y-23181161D01*
X110361784Y-23181161D01*
X110121289Y-23149500D01*
X110121288Y-23149500D01*
X109878712Y-23149500D01*
X109878710Y-23149500D01*
X109638218Y-23181161D01*
X109638213Y-23181161D01*
X109403907Y-23243944D01*
X109403894Y-23243948D01*
X109179795Y-23336772D01*
X108969707Y-23458066D01*
X108777268Y-23605729D01*
X108605729Y-23777268D01*
X108458066Y-23969707D01*
X108336772Y-24179795D01*
X108243948Y-24403894D01*
X108243944Y-24403907D01*
X108181161Y-24638213D01*
X108181161Y-24638218D01*
X108149500Y-24878710D01*
X64570500Y-24878710D01*
X64570500Y-22669500D01*
X64589407Y-22611309D01*
X64638907Y-22575345D01*
X64669500Y-22570500D01*
X112330500Y-22570500D01*
X112388691Y-22589407D01*
X112424655Y-22638907D01*
X112429500Y-22669500D01*
X112429500Y-96830500D01*
X112410593Y-96888691D01*
X112361093Y-96924655D01*
X112330500Y-96929500D01*
X110675070Y-96929500D01*
X110616879Y-96910593D01*
X110580915Y-96861093D01*
X110580915Y-96799907D01*
X110616879Y-96750407D01*
X110637185Y-96739036D01*
X110820212Y-96663224D01*
X111030289Y-96541936D01*
X111222738Y-96394265D01*
X111394265Y-96222738D01*
X111541936Y-96030289D01*
X111663224Y-95820212D01*
X111756054Y-95596100D01*
X111818838Y-95361789D01*
X111850500Y-95121288D01*
X111850500Y-94878712D01*
X111818838Y-94638211D01*
X111756054Y-94403900D01*
X111663224Y-94179788D01*
X111541936Y-93969711D01*
X111533365Y-93958541D01*
X111394270Y-93777268D01*
X111394268Y-93777266D01*
X111394265Y-93777262D01*
X111222738Y-93605735D01*
X111222733Y-93605731D01*
X111222731Y-93605729D01*
X111030292Y-93458066D01*
X111030289Y-93458064D01*
X110820212Y-93336776D01*
X110820208Y-93336774D01*
X110820204Y-93336772D01*
X110596105Y-93243948D01*
X110596104Y-93243947D01*
X110596100Y-93243946D01*
X110361789Y-93181162D01*
X110361786Y-93181161D01*
X110361784Y-93181161D01*
X110121289Y-93149500D01*
X110121288Y-93149500D01*
X109878712Y-93149500D01*
X109878710Y-93149500D01*
X109638218Y-93181161D01*
X109638213Y-93181161D01*
X109403907Y-93243944D01*
X109403894Y-93243948D01*
X109179795Y-93336772D01*
X108969707Y-93458066D01*
X108777268Y-93605729D01*
X108605729Y-93777268D01*
X108458066Y-93969707D01*
X108336772Y-94179795D01*
X108243948Y-94403894D01*
X108243944Y-94403907D01*
X108181161Y-94638213D01*
X108181161Y-94638218D01*
X108149500Y-94878710D01*
X108149500Y-95121289D01*
X108181161Y-95361781D01*
X108181161Y-95361786D01*
X108243944Y-95596092D01*
X108243948Y-95596105D01*
X108336772Y-95820204D01*
X108336774Y-95820208D01*
X108336776Y-95820212D01*
X108458064Y-96030289D01*
X108458066Y-96030292D01*
X108605729Y-96222731D01*
X108605731Y-96222733D01*
X108605735Y-96222738D01*
X108777262Y-96394265D01*
X108777266Y-96394268D01*
X108777268Y-96394270D01*
X108969707Y-96541933D01*
X108969711Y-96541936D01*
X109179788Y-96663224D01*
X109179794Y-96663226D01*
X109179795Y-96663227D01*
X109362815Y-96739036D01*
X109409341Y-96778772D01*
X109423625Y-96838267D01*
X109400210Y-96894795D01*
X109348041Y-96926765D01*
X109324930Y-96929500D01*
X71969500Y-96929500D01*
X71911309Y-96910593D01*
X71875345Y-96861093D01*
X71870500Y-96830500D01*
X71870500Y-94735012D01*
X71889407Y-94676821D01*
X71914499Y-94652696D01*
X71937782Y-94637139D01*
X72077139Y-94497782D01*
X72186632Y-94333914D01*
X72262051Y-94151835D01*
X72300500Y-93958541D01*
X72300500Y-93761459D01*
X72300499Y-93761456D01*
X95699500Y-93761456D01*
X95699500Y-93958543D01*
X95737949Y-94151834D01*
X95737949Y-94151836D01*
X95813367Y-94333913D01*
X95813368Y-94333914D01*
X95922861Y-94497782D01*
X96062218Y-94637139D01*
X96226086Y-94746632D01*
X96408165Y-94822051D01*
X96601459Y-94860500D01*
X96601460Y-94860500D01*
X96798540Y-94860500D01*
X96798541Y-94860500D01*
X96991835Y-94822051D01*
X97173914Y-94746632D01*
X97337782Y-94637139D01*
X97477139Y-94497782D01*
X97586632Y-94333914D01*
X97662051Y-94151835D01*
X97700500Y-93958541D01*
X97700500Y-93761459D01*
X97662051Y-93568165D01*
X97586632Y-93386086D01*
X97477139Y-93222218D01*
X97337782Y-93082861D01*
X97173914Y-92973368D01*
X97173915Y-92973368D01*
X97173913Y-92973367D01*
X96991835Y-92897949D01*
X96798543Y-92859500D01*
X96798541Y-92859500D01*
X96601459Y-92859500D01*
X96601456Y-92859500D01*
X96408165Y-92897949D01*
X96408163Y-92897949D01*
X96226086Y-92973367D01*
X96062218Y-93082861D01*
X96062214Y-93082864D01*
X95922864Y-93222214D01*
X95922861Y-93222218D01*
X95813367Y-93386086D01*
X95737949Y-93568163D01*
X95737949Y-93568165D01*
X95699500Y-93761456D01*
X72300499Y-93761456D01*
X72262051Y-93568165D01*
X72186632Y-93386086D01*
X72077139Y-93222218D01*
X71937782Y-93082861D01*
X71773914Y-92973368D01*
X71773915Y-92973368D01*
X71773913Y-92973367D01*
X71591835Y-92897949D01*
X71398543Y-92859500D01*
X71398541Y-92859500D01*
X71201459Y-92859500D01*
X71201456Y-92859500D01*
X71008166Y-92897948D01*
X70880672Y-92950757D01*
X70819676Y-92955556D01*
X70796368Y-92946734D01*
X69958054Y-92501703D01*
X69954976Y-92499999D01*
X69900203Y-92468377D01*
X69894724Y-92466107D01*
X69886782Y-92462982D01*
X69881159Y-92460884D01*
X69819571Y-92446707D01*
X69816158Y-92445857D01*
X69755110Y-92429500D01*
X69749106Y-92428709D01*
X69740744Y-92427760D01*
X69734770Y-92427188D01*
X69671601Y-92429437D01*
X69668080Y-92429500D01*
X67111839Y-92429500D01*
X67053648Y-92410593D01*
X67017684Y-92361093D01*
X67015493Y-92353267D01*
X67014476Y-92348964D01*
X67003859Y-92320499D01*
X66967194Y-92222195D01*
X66955544Y-92206632D01*
X66886117Y-92113887D01*
X66886112Y-92113882D01*
X66777804Y-92032805D01*
X66687591Y-91999158D01*
X66651040Y-91985525D01*
X66651036Y-91985524D01*
X66651034Y-91985524D01*
X66621676Y-91982368D01*
X66595000Y-91979500D01*
X65405000Y-91979500D01*
X65381977Y-91981975D01*
X65348965Y-91985524D01*
X65348961Y-91985524D01*
X65348960Y-91985525D01*
X65348957Y-91985525D01*
X65348957Y-91985526D01*
X65222195Y-92032805D01*
X65113887Y-92113882D01*
X65113882Y-92113887D01*
X65032805Y-92222195D01*
X64983361Y-92354763D01*
X64981839Y-92354195D01*
X64959748Y-92393802D01*
X64400000Y-92953551D01*
X64400000Y-92947339D01*
X64372741Y-92845606D01*
X64320080Y-92754394D01*
X64245606Y-92679920D01*
X64154394Y-92627259D01*
X64052661Y-92600000D01*
X64046444Y-92600000D01*
X64582736Y-92063708D01*
X64576524Y-92059196D01*
X64422248Y-91980588D01*
X64257579Y-91927084D01*
X64086575Y-91900000D01*
X63913425Y-91900000D01*
X63742420Y-91927084D01*
X63577751Y-91980588D01*
X63423478Y-92059194D01*
X63417262Y-92063708D01*
X63953554Y-92600000D01*
X63947339Y-92600000D01*
X63845606Y-92627259D01*
X63754394Y-92679920D01*
X63679920Y-92754394D01*
X63627259Y-92845606D01*
X63600000Y-92947339D01*
X63600000Y-92953554D01*
X63063708Y-92417262D01*
X63059194Y-92423478D01*
X62980588Y-92577751D01*
X62927084Y-92742420D01*
X62900000Y-92913424D01*
X62900000Y-93086575D01*
X62927084Y-93257579D01*
X62980588Y-93422248D01*
X63059196Y-93576524D01*
X63063708Y-93582735D01*
X63600000Y-93046443D01*
X63600000Y-93052661D01*
X63627259Y-93154394D01*
X63679920Y-93245606D01*
X63754394Y-93320080D01*
X63845606Y-93372741D01*
X63947339Y-93400000D01*
X63953552Y-93400000D01*
X63417262Y-93936289D01*
X63417262Y-93936290D01*
X63423469Y-93940800D01*
X63423475Y-93940804D01*
X63577751Y-94019411D01*
X63742420Y-94072915D01*
X63913425Y-94100000D01*
X64086575Y-94100000D01*
X64257579Y-94072915D01*
X64422248Y-94019411D01*
X64576523Y-93940804D01*
X64576530Y-93940800D01*
X64582736Y-93936290D01*
X64046446Y-93400000D01*
X64052661Y-93400000D01*
X64154394Y-93372741D01*
X64245606Y-93320080D01*
X64320080Y-93245606D01*
X64372741Y-93154394D01*
X64400000Y-93052661D01*
X64400000Y-93046446D01*
X64959747Y-93606193D01*
X64981840Y-93645804D01*
X64983361Y-93645237D01*
X65032805Y-93777804D01*
X65113882Y-93886112D01*
X65113887Y-93886117D01*
X65222195Y-93967194D01*
X65348960Y-94014475D01*
X65405000Y-94020500D01*
X65405003Y-94020500D01*
X66594997Y-94020500D01*
X66595000Y-94020500D01*
X66651040Y-94014475D01*
X66777805Y-93967194D01*
X66886115Y-93886115D01*
X66967194Y-93777805D01*
X67014475Y-93651040D01*
X67014476Y-93651035D01*
X67015493Y-93646733D01*
X67047275Y-93594450D01*
X67103719Y-93570834D01*
X67111839Y-93570500D01*
X69513310Y-93570500D01*
X69559730Y-93582058D01*
X70261600Y-93954655D01*
X70304132Y-93998640D01*
X70312278Y-94022782D01*
X70337949Y-94151836D01*
X70413367Y-94333913D01*
X70413368Y-94333914D01*
X70522861Y-94497782D01*
X70522864Y-94497785D01*
X70522868Y-94497790D01*
X70662218Y-94637139D01*
X70685501Y-94652696D01*
X70723381Y-94700746D01*
X70729500Y-94735012D01*
X70729500Y-97575108D01*
X70763786Y-97703069D01*
X70768379Y-97720209D01*
X70843482Y-97850290D01*
X70843484Y-97850292D01*
X70843486Y-97850295D01*
X70949705Y-97956514D01*
X70949707Y-97956515D01*
X70949709Y-97956517D01*
X71079791Y-98031620D01*
X71079789Y-98031620D01*
X71079793Y-98031621D01*
X71079795Y-98031622D01*
X71224892Y-98070500D01*
X71224894Y-98070500D01*
X113075106Y-98070500D01*
X113075108Y-98070500D01*
X113220205Y-98031622D01*
X113220207Y-98031620D01*
X113220209Y-98031620D01*
X113350290Y-97956517D01*
X113350290Y-97956516D01*
X113350295Y-97956514D01*
X113456514Y-97850295D01*
X113531622Y-97720205D01*
X113570500Y-97575108D01*
X113570500Y-21924892D01*
X113531622Y-21779795D01*
X113531620Y-21779792D01*
X113531620Y-21779790D01*
X113456517Y-21649709D01*
X113456515Y-21649707D01*
X113456514Y-21649705D01*
X113350295Y-21543486D01*
X113350292Y-21543484D01*
X113350290Y-21543482D01*
X113220208Y-21468379D01*
X113220210Y-21468379D01*
X113163911Y-21453294D01*
X113075108Y-21429500D01*
X64075108Y-21429500D01*
X63924892Y-21429500D01*
X63836088Y-21453294D01*
X63779790Y-21468379D01*
X63649709Y-21543482D01*
X63543482Y-21649709D01*
X63468379Y-21779790D01*
X63429500Y-21924893D01*
X63429500Y-40802682D01*
X63410593Y-40860873D01*
X63400504Y-40872686D01*
X59480697Y-44792492D01*
X59426180Y-44820269D01*
X59380101Y-44816643D01*
X59354675Y-44808382D01*
X59172320Y-44779500D01*
X59172317Y-44779500D01*
X58987683Y-44779500D01*
X58987680Y-44779500D01*
X58805326Y-44808381D01*
X58629726Y-44865437D01*
X58465216Y-44949259D01*
X58315843Y-45057785D01*
X58185285Y-45188343D01*
X58076759Y-45337716D01*
X57992937Y-45502226D01*
X57935881Y-45677826D01*
X57907781Y-45855248D01*
X57880004Y-45909765D01*
X57825487Y-45937542D01*
X57765055Y-45927971D01*
X57721790Y-45884706D01*
X57712219Y-45855248D01*
X57684118Y-45677826D01*
X57679071Y-45662292D01*
X57627062Y-45502224D01*
X57543239Y-45337714D01*
X57434714Y-45188342D01*
X57304158Y-45057786D01*
X57154786Y-44949261D01*
X57154784Y-44949259D01*
X57151639Y-44946975D01*
X57152819Y-44945350D01*
X57117971Y-44904408D01*
X57110500Y-44866679D01*
X57110500Y-38111839D01*
X57129407Y-38053648D01*
X57178907Y-38017684D01*
X57186733Y-38015493D01*
X57191035Y-38014476D01*
X57191036Y-38014475D01*
X57191040Y-38014475D01*
X57317805Y-37967194D01*
X57426115Y-37886115D01*
X57507194Y-37777805D01*
X57554475Y-37651040D01*
X57560500Y-37595000D01*
X57560500Y-36405000D01*
X57554475Y-36348960D01*
X57507194Y-36222195D01*
X57480432Y-36186445D01*
X57426117Y-36113887D01*
X57426112Y-36113882D01*
X57317804Y-36032805D01*
X57211057Y-35992991D01*
X57191040Y-35985525D01*
X57191036Y-35985524D01*
X57191034Y-35985524D01*
X57161676Y-35982368D01*
X57135000Y-35979500D01*
X55945000Y-35979500D01*
X55921977Y-35981975D01*
X55888965Y-35985524D01*
X55888961Y-35985524D01*
X55888960Y-35985525D01*
X55888957Y-35985525D01*
X55888957Y-35985526D01*
X55762195Y-36032805D01*
X55653887Y-36113882D01*
X55653882Y-36113887D01*
X55572805Y-36222195D01*
X55523361Y-36354763D01*
X55521839Y-36354195D01*
X55499748Y-36393802D01*
X54940000Y-36953551D01*
X54940000Y-36947339D01*
X54912741Y-36845606D01*
X54860080Y-36754394D01*
X54785606Y-36679920D01*
X54694394Y-36627259D01*
X54592661Y-36600000D01*
X54586444Y-36600000D01*
X55122736Y-36063708D01*
X55116524Y-36059196D01*
X54962248Y-35980588D01*
X54797579Y-35927084D01*
X54626575Y-35900000D01*
X54453425Y-35900000D01*
X54282420Y-35927084D01*
X54117751Y-35980588D01*
X53963478Y-36059194D01*
X53957262Y-36063708D01*
X54493554Y-36600000D01*
X54487339Y-36600000D01*
X54385606Y-36627259D01*
X54294394Y-36679920D01*
X54219920Y-36754394D01*
X54167259Y-36845606D01*
X54140000Y-36947339D01*
X54140000Y-36953554D01*
X53603708Y-36417262D01*
X53599194Y-36423478D01*
X53520588Y-36577751D01*
X53467084Y-36742420D01*
X53440000Y-36913424D01*
X53440000Y-37086575D01*
X53467084Y-37257579D01*
X53520588Y-37422248D01*
X53599196Y-37576524D01*
X53603708Y-37582735D01*
X54140000Y-37046443D01*
X54140000Y-37052661D01*
X54167259Y-37154394D01*
X54219920Y-37245606D01*
X54294394Y-37320080D01*
X54385606Y-37372741D01*
X54487339Y-37400000D01*
X54493552Y-37400000D01*
X53957262Y-37936289D01*
X53957262Y-37936290D01*
X53963469Y-37940800D01*
X53963475Y-37940804D01*
X54117751Y-38019411D01*
X54282420Y-38072915D01*
X54453425Y-38100000D01*
X54626575Y-38100000D01*
X54797579Y-38072915D01*
X54962248Y-38019411D01*
X55116523Y-37940804D01*
X55116530Y-37940800D01*
X55122736Y-37936290D01*
X54586446Y-37400000D01*
X54592661Y-37400000D01*
X54694394Y-37372741D01*
X54785606Y-37320080D01*
X54860080Y-37245606D01*
X54912741Y-37154394D01*
X54940000Y-37052661D01*
X54940000Y-37046446D01*
X55499747Y-37606193D01*
X55521840Y-37645804D01*
X55523361Y-37645237D01*
X55572805Y-37777804D01*
X55653882Y-37886112D01*
X55653887Y-37886117D01*
X55759264Y-37965000D01*
X55762195Y-37967194D01*
X55888960Y-38014475D01*
X55888961Y-38014475D01*
X55888964Y-38014476D01*
X55893267Y-38015493D01*
X55945550Y-38047275D01*
X55969166Y-38103719D01*
X55969500Y-38111839D01*
X55969500Y-44866679D01*
X55950593Y-44924870D01*
X55927701Y-44946066D01*
X55928361Y-44946975D01*
X55925215Y-44949260D01*
X55925214Y-44949261D01*
X55851474Y-45002836D01*
X55775843Y-45057785D01*
X55645285Y-45188343D01*
X55536759Y-45337716D01*
X55452935Y-45502230D01*
X55445653Y-45524642D01*
X55409689Y-45574141D01*
X55351498Y-45593048D01*
X55293307Y-45574140D01*
X55257344Y-45524639D01*
X55252499Y-45494048D01*
X55252499Y-44955210D01*
X55252498Y-44955208D01*
X55249590Y-44930125D01*
X55204286Y-44827522D01*
X55124977Y-44748213D01*
X55022372Y-44702909D01*
X54997297Y-44700000D01*
X54250001Y-44700000D01*
X54250000Y-44700001D01*
X54250000Y-45509252D01*
X54212292Y-45487482D01*
X54072409Y-45450000D01*
X53927591Y-45450000D01*
X53787708Y-45487482D01*
X53750000Y-45509252D01*
X53750000Y-44700001D01*
X53749999Y-44700000D01*
X53002710Y-44700000D01*
X53002707Y-44700001D01*
X52977625Y-44702909D01*
X52875022Y-44748213D01*
X52795713Y-44827522D01*
X52750409Y-44930127D01*
X52747500Y-44955202D01*
X52747500Y-45749999D01*
X52747501Y-45750000D01*
X53509252Y-45750000D01*
X53487482Y-45787708D01*
X53450000Y-45927591D01*
X53450000Y-46072409D01*
X53487482Y-46212292D01*
X53509252Y-46250000D01*
X52747502Y-46250000D01*
X52747501Y-46250001D01*
X52747501Y-47044791D01*
X52750409Y-47069874D01*
X52795713Y-47172477D01*
X52875022Y-47251786D01*
X52977627Y-47297090D01*
X53002703Y-47299999D01*
X53749998Y-47299999D01*
X53750000Y-47299998D01*
X53750000Y-46490747D01*
X53787708Y-46512518D01*
X53927591Y-46550000D01*
X54072409Y-46550000D01*
X54212292Y-46512518D01*
X54250000Y-46490747D01*
X54250000Y-47299998D01*
X54250001Y-47299999D01*
X54997290Y-47299999D01*
X54997291Y-47299998D01*
X55022374Y-47297090D01*
X55124977Y-47251786D01*
X55204286Y-47172477D01*
X55249590Y-47069872D01*
X55252499Y-47044797D01*
X55252499Y-46505952D01*
X55271406Y-46447761D01*
X55320906Y-46411797D01*
X55382092Y-46411797D01*
X55431592Y-46447761D01*
X55445653Y-46475358D01*
X55452935Y-46497769D01*
X55452937Y-46497772D01*
X55452938Y-46497776D01*
X55536761Y-46662286D01*
X55645286Y-46811658D01*
X55775842Y-46942214D01*
X55925214Y-47050739D01*
X55925215Y-47050740D01*
X55928361Y-47053025D01*
X55927150Y-47054690D01*
X55961945Y-47095389D01*
X55969500Y-47133320D01*
X55969500Y-50782682D01*
X55950593Y-50840873D01*
X55940504Y-50852686D01*
X50261968Y-56531221D01*
X50207451Y-56558998D01*
X50147019Y-56549427D01*
X50103754Y-56506162D01*
X50094183Y-56476704D01*
X50072915Y-56342420D01*
X50019411Y-56177751D01*
X49940804Y-56023475D01*
X49940800Y-56023469D01*
X49936290Y-56017262D01*
X49936289Y-56017262D01*
X49400000Y-56553553D01*
X49400000Y-56547339D01*
X49372741Y-56445606D01*
X49320080Y-56354394D01*
X49245606Y-56279920D01*
X49154394Y-56227259D01*
X49052661Y-56200000D01*
X49046444Y-56200000D01*
X49582736Y-55663708D01*
X49576524Y-55659196D01*
X49422248Y-55580588D01*
X49257579Y-55527084D01*
X49086575Y-55500000D01*
X48913425Y-55500000D01*
X48742420Y-55527084D01*
X48577751Y-55580588D01*
X48423478Y-55659194D01*
X48417262Y-55663708D01*
X48953554Y-56200000D01*
X48947339Y-56200000D01*
X48845606Y-56227259D01*
X48754394Y-56279920D01*
X48679920Y-56354394D01*
X48627259Y-56445606D01*
X48600000Y-56547339D01*
X48600000Y-56553554D01*
X48063708Y-56017262D01*
X48059194Y-56023478D01*
X47980588Y-56177751D01*
X47927084Y-56342420D01*
X47900000Y-56513424D01*
X47900000Y-56686575D01*
X47927084Y-56857579D01*
X47980588Y-57022248D01*
X48059196Y-57176524D01*
X48063708Y-57182735D01*
X48600000Y-56646443D01*
X48600000Y-56652661D01*
X48627259Y-56754394D01*
X48679920Y-56845606D01*
X48754394Y-56920080D01*
X48845606Y-56972741D01*
X48947339Y-57000000D01*
X48953553Y-57000000D01*
X48393802Y-57559748D01*
X48354195Y-57581839D01*
X48354763Y-57583361D01*
X48348961Y-57585524D01*
X48348960Y-57585525D01*
X48316104Y-57597779D01*
X48222195Y-57632805D01*
X48113887Y-57713882D01*
X48113882Y-57713887D01*
X48032805Y-57822195D01*
X47985523Y-57948964D01*
X47984507Y-57953267D01*
X47952725Y-58005550D01*
X47896281Y-58029166D01*
X47888161Y-58029500D01*
X44899065Y-58029500D01*
X44840874Y-58010593D01*
X44816750Y-57985502D01*
X44792674Y-57949469D01*
X44650531Y-57807326D01*
X44510690Y-57713887D01*
X44483385Y-57695642D01*
X44297669Y-57618717D01*
X44100513Y-57579500D01*
X44100511Y-57579500D01*
X43899489Y-57579500D01*
X43899486Y-57579500D01*
X43702331Y-57618717D01*
X43702329Y-57618717D01*
X43516614Y-57695642D01*
X43516613Y-57695642D01*
X43349469Y-57807325D01*
X43207325Y-57949469D01*
X43095643Y-58116613D01*
X43095642Y-58116615D01*
X43084567Y-58143350D01*
X43044829Y-58189875D01*
X43011119Y-58202808D01*
X41322311Y-58515328D01*
X41261652Y-58507325D01*
X41217281Y-58465196D01*
X41206712Y-58415409D01*
X41205500Y-58415409D01*
X41205499Y-57808479D01*
X41205498Y-57808475D01*
X41204830Y-57804253D01*
X41214402Y-57743821D01*
X41257668Y-57700557D01*
X41318100Y-57690987D01*
X41321899Y-57691665D01*
X41407537Y-57708700D01*
X41407538Y-57708700D01*
X41549462Y-57708700D01*
X41549463Y-57708700D01*
X41688662Y-57681011D01*
X41819785Y-57626699D01*
X41937792Y-57547849D01*
X42038149Y-57447492D01*
X42116999Y-57329485D01*
X42171311Y-57198362D01*
X42199000Y-57059163D01*
X42199000Y-56917237D01*
X42171311Y-56778038D01*
X42148120Y-56722050D01*
X42117001Y-56646919D01*
X42116995Y-56646907D01*
X42061960Y-56564543D01*
X42061958Y-56564541D01*
X42058590Y-56559500D01*
X42038149Y-56528908D01*
X41937792Y-56428551D01*
X41937791Y-56428550D01*
X41819791Y-56349704D01*
X41819780Y-56349698D01*
X41688663Y-56295389D01*
X41549463Y-56267700D01*
X41407537Y-56267700D01*
X41407536Y-56267700D01*
X41370818Y-56275004D01*
X41268338Y-56295389D01*
X41208141Y-56320323D01*
X41147145Y-56325122D01*
X41100255Y-56298863D01*
X41076393Y-56275001D01*
X41048618Y-56220487D01*
X41058189Y-56160055D01*
X41076392Y-56134999D01*
X41133050Y-56078342D01*
X41188610Y-55969300D01*
X41194184Y-55958361D01*
X41196970Y-55959781D01*
X41224708Y-55921565D01*
X41282889Y-55902630D01*
X41320821Y-55910165D01*
X41396738Y-55941611D01*
X41535937Y-55969300D01*
X41535938Y-55969300D01*
X41677862Y-55969300D01*
X41677863Y-55969300D01*
X41817062Y-55941611D01*
X41948185Y-55887299D01*
X42066192Y-55808449D01*
X42166549Y-55708092D01*
X42220667Y-55627098D01*
X42245395Y-55590092D01*
X42245401Y-55590080D01*
X42271494Y-55527084D01*
X42299711Y-55458962D01*
X42327400Y-55319763D01*
X42327400Y-55177837D01*
X42299711Y-55038638D01*
X42249822Y-54918193D01*
X42245401Y-54907519D01*
X42245395Y-54907508D01*
X42166549Y-54789508D01*
X42066191Y-54689150D01*
X41948191Y-54610304D01*
X41948180Y-54610298D01*
X41899227Y-54590022D01*
X41817063Y-54555989D01*
X41677863Y-54528300D01*
X41535937Y-54528300D01*
X41535936Y-54528300D01*
X41396736Y-54555989D01*
X41383072Y-54561649D01*
X41322075Y-54566447D01*
X41292709Y-54550000D01*
X38285002Y-54550000D01*
X38285001Y-54550001D01*
X38285001Y-54615912D01*
X38291145Y-54673078D01*
X38291146Y-54673080D01*
X38339381Y-54802404D01*
X38422096Y-54912899D01*
X38422100Y-54912903D01*
X38424201Y-54914476D01*
X38425462Y-54916265D01*
X38427106Y-54917909D01*
X38426821Y-54918193D01*
X38459453Y-54964485D01*
X38458579Y-55025665D01*
X38440542Y-55054634D01*
X38441531Y-55055353D01*
X38436950Y-55061658D01*
X38379354Y-55174695D01*
X38364500Y-55268477D01*
X38364500Y-55871520D01*
X38364501Y-55871523D01*
X38379352Y-55965299D01*
X38379354Y-55965304D01*
X38436950Y-56078342D01*
X38493606Y-56134998D01*
X38521382Y-56189513D01*
X38511811Y-56249945D01*
X38493607Y-56275000D01*
X38448285Y-56320323D01*
X38436949Y-56331659D01*
X38379354Y-56444695D01*
X38364500Y-56538477D01*
X38364500Y-57141520D01*
X38364501Y-57141523D01*
X38379352Y-57235299D01*
X38379354Y-57235304D01*
X38436950Y-57348342D01*
X38493606Y-57404998D01*
X38521382Y-57459513D01*
X38511811Y-57519945D01*
X38493607Y-57545000D01*
X38459108Y-57579500D01*
X38436949Y-57601659D01*
X38379354Y-57714695D01*
X38364500Y-57808477D01*
X38364500Y-58411520D01*
X38364501Y-58411523D01*
X38379352Y-58505299D01*
X38379354Y-58505304D01*
X38436950Y-58618342D01*
X38459106Y-58640498D01*
X38486882Y-58695013D01*
X38477311Y-58755445D01*
X38434046Y-58798710D01*
X38389101Y-58809500D01*
X36275108Y-58809500D01*
X36124892Y-58809500D01*
X36036088Y-58833294D01*
X35979790Y-58848379D01*
X35849709Y-58923482D01*
X35743482Y-59029709D01*
X35668379Y-59159790D01*
X35647180Y-59238907D01*
X35629500Y-59304892D01*
X27000000Y-59304892D01*
X27000000Y-53984090D01*
X38285000Y-53984090D01*
X38285000Y-54049999D01*
X38285001Y-54050000D01*
X39534999Y-54050000D01*
X39535000Y-54049999D01*
X39535000Y-53550001D01*
X40035000Y-53550001D01*
X40035000Y-54049999D01*
X40035001Y-54050000D01*
X41284998Y-54050000D01*
X41284999Y-54049999D01*
X41284999Y-53984093D01*
X41284998Y-53984087D01*
X41278854Y-53926921D01*
X41278853Y-53926919D01*
X41230618Y-53797595D01*
X41147904Y-53687100D01*
X41147899Y-53687095D01*
X41037404Y-53604381D01*
X41031813Y-53602296D01*
X40908081Y-53556146D01*
X40908080Y-53556145D01*
X40850909Y-53550000D01*
X40035001Y-53550000D01*
X40035000Y-53550001D01*
X39535000Y-53550001D01*
X39534999Y-53550000D01*
X38719093Y-53550000D01*
X38719087Y-53550001D01*
X38661921Y-53556145D01*
X38661919Y-53556146D01*
X38532595Y-53604381D01*
X38422100Y-53687095D01*
X38422095Y-53687100D01*
X38339381Y-53797595D01*
X38291146Y-53926918D01*
X38291145Y-53926919D01*
X38285000Y-53984090D01*
X27000000Y-53984090D01*
X27000000Y-53513424D01*
X42900000Y-53513424D01*
X42900000Y-53686575D01*
X42927084Y-53857579D01*
X42980588Y-54022248D01*
X43059196Y-54176524D01*
X43063708Y-54182735D01*
X43600000Y-53646443D01*
X43600000Y-53652661D01*
X43627259Y-53754394D01*
X43679920Y-53845606D01*
X43754394Y-53920080D01*
X43845606Y-53972741D01*
X43947339Y-54000000D01*
X43953552Y-54000000D01*
X43417262Y-54536289D01*
X43417262Y-54536290D01*
X43423469Y-54540800D01*
X43423475Y-54540804D01*
X43577751Y-54619411D01*
X43742420Y-54672915D01*
X43913425Y-54700000D01*
X44086575Y-54700000D01*
X44257579Y-54672915D01*
X44422248Y-54619411D01*
X44576523Y-54540804D01*
X44576530Y-54540800D01*
X44582736Y-54536290D01*
X44046446Y-54000000D01*
X44052661Y-54000000D01*
X44154394Y-53972741D01*
X44245606Y-53920080D01*
X44320080Y-53845606D01*
X44372741Y-53754394D01*
X44400000Y-53652661D01*
X44400000Y-53646446D01*
X44936290Y-54182736D01*
X44940800Y-54176530D01*
X44940804Y-54176523D01*
X45019411Y-54022248D01*
X45072915Y-53857579D01*
X45100000Y-53686575D01*
X45100000Y-53513424D01*
X45072915Y-53342420D01*
X45019411Y-53177751D01*
X44940804Y-53023475D01*
X44940800Y-53023469D01*
X44936290Y-53017262D01*
X44936289Y-53017262D01*
X44400000Y-53553551D01*
X44400000Y-53547339D01*
X44372741Y-53445606D01*
X44320080Y-53354394D01*
X44245606Y-53279920D01*
X44154394Y-53227259D01*
X44052661Y-53200000D01*
X44046444Y-53200000D01*
X44582736Y-52663708D01*
X44576524Y-52659196D01*
X44422248Y-52580588D01*
X44257579Y-52527084D01*
X44086575Y-52500000D01*
X43913425Y-52500000D01*
X43742420Y-52527084D01*
X43577751Y-52580588D01*
X43423478Y-52659194D01*
X43417262Y-52663708D01*
X43953554Y-53200000D01*
X43947339Y-53200000D01*
X43845606Y-53227259D01*
X43754394Y-53279920D01*
X43679920Y-53354394D01*
X43627259Y-53445606D01*
X43600000Y-53547339D01*
X43600000Y-53553554D01*
X43063708Y-53017262D01*
X43059194Y-53023478D01*
X42980588Y-53177751D01*
X42927084Y-53342420D01*
X42900000Y-53513424D01*
X27000000Y-53513424D01*
X27000000Y-50000000D01*
X26999999Y-50000000D01*
X25406499Y-50000000D01*
X25348308Y-49981093D01*
X25312344Y-49931593D01*
X25309467Y-49913424D01*
X52980000Y-49913424D01*
X52980000Y-50086575D01*
X53007084Y-50257579D01*
X53060588Y-50422248D01*
X53139196Y-50576524D01*
X53143708Y-50582735D01*
X53680000Y-50046443D01*
X53680000Y-50052661D01*
X53707259Y-50154394D01*
X53759920Y-50245606D01*
X53834394Y-50320080D01*
X53925606Y-50372741D01*
X54027339Y-50400000D01*
X54033552Y-50400000D01*
X53497262Y-50936289D01*
X53497262Y-50936290D01*
X53503469Y-50940800D01*
X53503475Y-50940804D01*
X53657751Y-51019411D01*
X53822420Y-51072915D01*
X53993425Y-51100000D01*
X54166575Y-51100000D01*
X54337579Y-51072915D01*
X54502248Y-51019411D01*
X54656523Y-50940804D01*
X54656530Y-50940800D01*
X54662736Y-50936290D01*
X54126446Y-50400000D01*
X54132661Y-50400000D01*
X54234394Y-50372741D01*
X54325606Y-50320080D01*
X54400080Y-50245606D01*
X54452741Y-50154394D01*
X54480000Y-50052661D01*
X54480000Y-50046446D01*
X55016290Y-50582736D01*
X55020800Y-50576530D01*
X55020804Y-50576523D01*
X55099411Y-50422248D01*
X55152915Y-50257579D01*
X55180000Y-50086575D01*
X55180000Y-49913424D01*
X55152915Y-49742420D01*
X55099411Y-49577751D01*
X55020804Y-49423475D01*
X55020800Y-49423469D01*
X55016290Y-49417262D01*
X55016289Y-49417262D01*
X54480000Y-49953551D01*
X54480000Y-49947339D01*
X54452741Y-49845606D01*
X54400080Y-49754394D01*
X54325606Y-49679920D01*
X54234394Y-49627259D01*
X54132661Y-49600000D01*
X54126444Y-49600000D01*
X54662736Y-49063708D01*
X54656524Y-49059196D01*
X54502248Y-48980588D01*
X54337579Y-48927084D01*
X54166575Y-48900000D01*
X53993425Y-48900000D01*
X53822420Y-48927084D01*
X53657751Y-48980588D01*
X53503478Y-49059194D01*
X53497262Y-49063708D01*
X54033554Y-49600000D01*
X54027339Y-49600000D01*
X53925606Y-49627259D01*
X53834394Y-49679920D01*
X53759920Y-49754394D01*
X53707259Y-49845606D01*
X53680000Y-49947339D01*
X53680000Y-49953554D01*
X53143708Y-49417262D01*
X53139194Y-49423478D01*
X53060588Y-49577751D01*
X53007084Y-49742420D01*
X52980000Y-49913424D01*
X25309467Y-49913424D01*
X25307499Y-49901000D01*
X25307499Y-49128285D01*
X25307499Y-49128282D01*
X25294707Y-49063965D01*
X25294535Y-49063708D01*
X25245973Y-48991030D01*
X25245972Y-48991028D01*
X25245639Y-48990805D01*
X25173035Y-48942292D01*
X25108720Y-48929500D01*
X23365285Y-48929500D01*
X23365275Y-48929501D01*
X23300966Y-48942292D01*
X23300963Y-48942293D01*
X23228030Y-48991026D01*
X23228026Y-48991030D01*
X23179292Y-49063964D01*
X23166500Y-49128278D01*
X23166500Y-49128280D01*
X23166500Y-49128281D01*
X23166500Y-49516614D01*
X23166501Y-49901000D01*
X23147594Y-49959191D01*
X23098094Y-49995155D01*
X23067501Y-50000000D01*
X20599500Y-50000000D01*
X20541309Y-49981093D01*
X20505345Y-49931593D01*
X20500500Y-49901000D01*
X20500500Y-47354562D01*
X23166500Y-47354562D01*
X23166500Y-47565437D01*
X23207637Y-47772251D01*
X23288334Y-47967070D01*
X23288338Y-47967079D01*
X23347085Y-48054998D01*
X23405488Y-48142404D01*
X23554596Y-48291512D01*
X23628229Y-48340712D01*
X23729920Y-48408661D01*
X23729926Y-48408663D01*
X23729928Y-48408665D01*
X23924747Y-48489362D01*
X24131565Y-48530500D01*
X24131566Y-48530500D01*
X24342434Y-48530500D01*
X24342435Y-48530500D01*
X24549253Y-48489362D01*
X24744072Y-48408665D01*
X24744075Y-48408662D01*
X24744079Y-48408661D01*
X24794704Y-48374833D01*
X24919404Y-48291512D01*
X25068512Y-48142404D01*
X25151833Y-48017704D01*
X25185661Y-47967079D01*
X25185662Y-47967075D01*
X25185665Y-47967072D01*
X25266362Y-47772253D01*
X25307500Y-47565435D01*
X25307500Y-47354565D01*
X25266362Y-47147747D01*
X25185665Y-46952928D01*
X25185663Y-46952926D01*
X25185661Y-46952920D01*
X25091270Y-46811656D01*
X25068512Y-46777596D01*
X24919404Y-46628488D01*
X24901496Y-46616522D01*
X24863618Y-46568470D01*
X24857500Y-46534208D01*
X24857500Y-45061027D01*
X24859968Y-45053429D01*
X24858719Y-45045540D01*
X24869243Y-45024884D01*
X24876407Y-45002836D01*
X24886490Y-44991029D01*
X31481974Y-38395546D01*
X31509173Y-38354839D01*
X31549880Y-38293917D01*
X31596654Y-38180993D01*
X31620500Y-38061114D01*
X31620500Y-36427847D01*
X32115000Y-36427847D01*
X32115000Y-36652152D01*
X32150088Y-36873685D01*
X32219400Y-37087008D01*
X32321230Y-37286861D01*
X32371033Y-37355411D01*
X32785884Y-36940559D01*
X32786740Y-36942626D01*
X32879762Y-37081844D01*
X32998156Y-37200238D01*
X33137374Y-37293260D01*
X33139437Y-37294114D01*
X32724587Y-37708965D01*
X32793133Y-37758767D01*
X32793137Y-37758769D01*
X32992991Y-37860599D01*
X33206314Y-37929911D01*
X33427847Y-37965000D01*
X33652153Y-37965000D01*
X33873685Y-37929911D01*
X34087008Y-37860599D01*
X34185633Y-37810348D01*
X34286862Y-37758769D01*
X34286868Y-37758765D01*
X34355411Y-37708965D01*
X34355411Y-37708964D01*
X33940561Y-37294114D01*
X33942626Y-37293260D01*
X34081844Y-37200238D01*
X34200238Y-37081844D01*
X34293260Y-36942626D01*
X34294114Y-36940561D01*
X34708964Y-37355411D01*
X34708965Y-37355411D01*
X34758765Y-37286868D01*
X34758769Y-37286862D01*
X34860598Y-37087010D01*
X34928203Y-36878945D01*
X34929912Y-36873684D01*
X34965000Y-36652152D01*
X34965000Y-36427847D01*
X34929911Y-36206314D01*
X34905776Y-36132030D01*
X34860598Y-35992989D01*
X34758769Y-35793137D01*
X34758767Y-35793133D01*
X34708965Y-35724587D01*
X34294114Y-36139437D01*
X34293260Y-36137374D01*
X34200238Y-35998156D01*
X34081844Y-35879762D01*
X33942626Y-35786740D01*
X33940559Y-35785884D01*
X34355411Y-35371033D01*
X34286861Y-35321230D01*
X34087008Y-35219400D01*
X33873685Y-35150088D01*
X33652153Y-35115000D01*
X33427847Y-35115000D01*
X33206314Y-35150088D01*
X32992991Y-35219400D01*
X32793131Y-35321234D01*
X32724587Y-35371033D01*
X33139438Y-35785884D01*
X33137374Y-35786740D01*
X32998156Y-35879762D01*
X32879762Y-35998156D01*
X32786740Y-36137374D01*
X32785884Y-36139438D01*
X32371033Y-35724587D01*
X32321234Y-35793131D01*
X32219400Y-35992991D01*
X32150088Y-36206314D01*
X32115000Y-36427847D01*
X31620500Y-36427847D01*
X31620500Y-35139145D01*
X31639407Y-35080954D01*
X31661308Y-35059053D01*
X31811389Y-34950014D01*
X31950014Y-34811389D01*
X32065247Y-34652784D01*
X32154250Y-34478106D01*
X32214831Y-34291655D01*
X32245500Y-34098023D01*
X32245500Y-33901977D01*
X32214831Y-33708345D01*
X32154250Y-33521894D01*
X32065247Y-33347216D01*
X31950014Y-33188611D01*
X31811389Y-33049986D01*
X31652784Y-32934753D01*
X31652783Y-32934752D01*
X31652781Y-32934751D01*
X31478104Y-32845749D01*
X31291652Y-32785168D01*
X31098026Y-32754500D01*
X31098023Y-32754500D01*
X30901977Y-32754500D01*
X30901974Y-32754500D01*
X30708347Y-32785168D01*
X30521895Y-32845749D01*
X30347218Y-32934751D01*
X30188612Y-33049985D01*
X30049985Y-33188612D01*
X29934751Y-33347218D01*
X29845749Y-33521895D01*
X29785168Y-33708347D01*
X29754500Y-33901974D01*
X29754500Y-34098025D01*
X29785168Y-34291652D01*
X29785169Y-34291655D01*
X29845750Y-34478106D01*
X29934753Y-34652784D01*
X30049986Y-34811389D01*
X30188611Y-34950014D01*
X30338690Y-35059053D01*
X30374654Y-35108552D01*
X30379500Y-35139145D01*
X30379500Y-37701972D01*
X30360593Y-37760163D01*
X30350504Y-37771976D01*
X23755026Y-44367454D01*
X23727826Y-44408160D01*
X23687120Y-44469083D01*
X23687119Y-44469085D01*
X23663733Y-44525544D01*
X23640346Y-44582003D01*
X23640344Y-44582009D01*
X23616500Y-44701882D01*
X23616500Y-46534208D01*
X23597593Y-46592399D01*
X23572504Y-46616522D01*
X23554595Y-46628488D01*
X23405491Y-46777592D01*
X23405488Y-46777596D01*
X23288338Y-46952920D01*
X23288334Y-46952929D01*
X23207637Y-47147748D01*
X23166500Y-47354562D01*
X20500500Y-47354562D01*
X20500500Y-36427847D01*
X27035000Y-36427847D01*
X27035000Y-36652152D01*
X27070088Y-36873685D01*
X27139400Y-37087008D01*
X27241230Y-37286861D01*
X27291033Y-37355411D01*
X27705884Y-36940559D01*
X27706740Y-36942626D01*
X27799762Y-37081844D01*
X27918156Y-37200238D01*
X28057374Y-37293260D01*
X28059437Y-37294114D01*
X27644587Y-37708965D01*
X27713133Y-37758767D01*
X27713137Y-37758769D01*
X27912991Y-37860599D01*
X28126314Y-37929911D01*
X28347847Y-37965000D01*
X28572153Y-37965000D01*
X28793685Y-37929911D01*
X29007008Y-37860599D01*
X29206862Y-37758769D01*
X29206868Y-37758765D01*
X29275411Y-37708965D01*
X29275411Y-37708964D01*
X28860561Y-37294114D01*
X28862626Y-37293260D01*
X29001844Y-37200238D01*
X29120238Y-37081844D01*
X29213260Y-36942626D01*
X29214114Y-36940561D01*
X29628964Y-37355411D01*
X29628965Y-37355411D01*
X29678765Y-37286868D01*
X29678769Y-37286862D01*
X29780599Y-37087008D01*
X29849911Y-36873685D01*
X29885000Y-36652152D01*
X29885000Y-36427847D01*
X29849911Y-36206314D01*
X29780599Y-35992991D01*
X29678769Y-35793137D01*
X29678767Y-35793133D01*
X29628965Y-35724587D01*
X29214114Y-36139437D01*
X29213260Y-36137374D01*
X29120238Y-35998156D01*
X29001844Y-35879762D01*
X28862626Y-35786740D01*
X28860559Y-35785884D01*
X29275411Y-35371033D01*
X29206861Y-35321230D01*
X29007008Y-35219400D01*
X28793685Y-35150088D01*
X28572153Y-35115000D01*
X28347847Y-35115000D01*
X28126314Y-35150088D01*
X27912991Y-35219400D01*
X27713131Y-35321234D01*
X27644587Y-35371033D01*
X28059438Y-35785884D01*
X28057374Y-35786740D01*
X27918156Y-35879762D01*
X27799762Y-35998156D01*
X27706740Y-36137374D01*
X27705884Y-36139438D01*
X27291033Y-35724587D01*
X27241234Y-35793131D01*
X27139400Y-35992991D01*
X27070088Y-36206314D01*
X27035000Y-36427847D01*
X20500500Y-36427847D01*
X20500500Y-31347847D01*
X27035000Y-31347847D01*
X27035000Y-31572152D01*
X27070088Y-31793685D01*
X27139400Y-32007008D01*
X27241230Y-32206861D01*
X27291033Y-32275411D01*
X27705884Y-31860559D01*
X27706740Y-31862626D01*
X27799762Y-32001844D01*
X27918156Y-32120238D01*
X28057374Y-32213260D01*
X28059437Y-32214114D01*
X27644587Y-32628965D01*
X27713133Y-32678767D01*
X27713137Y-32678769D01*
X27912991Y-32780599D01*
X28126314Y-32849911D01*
X28347847Y-32885000D01*
X28572153Y-32885000D01*
X28793685Y-32849911D01*
X29007008Y-32780599D01*
X29206862Y-32678769D01*
X29206868Y-32678765D01*
X29275411Y-32628965D01*
X29275411Y-32628964D01*
X28860561Y-32214114D01*
X28862626Y-32213260D01*
X29001844Y-32120238D01*
X29120238Y-32001844D01*
X29213260Y-31862626D01*
X29214114Y-31860561D01*
X29628964Y-32275411D01*
X29628965Y-32275411D01*
X29678765Y-32206868D01*
X29678769Y-32206862D01*
X29780599Y-32007008D01*
X29849911Y-31793685D01*
X29885000Y-31572152D01*
X29885000Y-31347847D01*
X32115000Y-31347847D01*
X32115000Y-31572152D01*
X32150088Y-31793685D01*
X32219400Y-32007008D01*
X32321230Y-32206861D01*
X32371033Y-32275411D01*
X32785884Y-31860559D01*
X32786740Y-31862626D01*
X32879762Y-32001844D01*
X32998156Y-32120238D01*
X33137374Y-32213260D01*
X33139437Y-32214114D01*
X32724587Y-32628965D01*
X32793133Y-32678767D01*
X32793137Y-32678769D01*
X32992991Y-32780599D01*
X33206314Y-32849911D01*
X33427847Y-32885000D01*
X33652153Y-32885000D01*
X33873685Y-32849911D01*
X34087008Y-32780599D01*
X34286862Y-32678769D01*
X34286868Y-32678765D01*
X34355411Y-32628965D01*
X34355411Y-32628964D01*
X33940561Y-32214114D01*
X33942626Y-32213260D01*
X34081844Y-32120238D01*
X34200238Y-32001844D01*
X34293260Y-31862626D01*
X34294114Y-31860561D01*
X34708964Y-32275411D01*
X34708965Y-32275411D01*
X34758765Y-32206868D01*
X34758769Y-32206862D01*
X34860599Y-32007008D01*
X34929911Y-31793685D01*
X34965000Y-31572152D01*
X34965000Y-31347847D01*
X34929911Y-31126314D01*
X34860599Y-30912991D01*
X34758769Y-30713137D01*
X34758767Y-30713133D01*
X34708965Y-30644587D01*
X34294114Y-31059437D01*
X34293260Y-31057374D01*
X34200238Y-30918156D01*
X34081844Y-30799762D01*
X33942626Y-30706740D01*
X33940559Y-30705884D01*
X34355411Y-30291033D01*
X34286861Y-30241230D01*
X34087008Y-30139400D01*
X33873685Y-30070088D01*
X33652153Y-30035000D01*
X33427847Y-30035000D01*
X33206314Y-30070088D01*
X32992991Y-30139400D01*
X32793131Y-30241234D01*
X32724587Y-30291033D01*
X33139438Y-30705884D01*
X33137374Y-30706740D01*
X32998156Y-30799762D01*
X32879762Y-30918156D01*
X32786740Y-31057374D01*
X32785884Y-31059438D01*
X32371033Y-30644587D01*
X32321234Y-30713131D01*
X32219400Y-30912991D01*
X32150088Y-31126314D01*
X32115000Y-31347847D01*
X29885000Y-31347847D01*
X29849911Y-31126314D01*
X29780599Y-30912991D01*
X29678769Y-30713137D01*
X29678767Y-30713133D01*
X29628965Y-30644587D01*
X29214114Y-31059437D01*
X29213260Y-31057374D01*
X29120238Y-30918156D01*
X29001844Y-30799762D01*
X28862626Y-30706740D01*
X28860559Y-30705884D01*
X29275411Y-30291033D01*
X29206861Y-30241230D01*
X29007008Y-30139400D01*
X28793685Y-30070088D01*
X28572153Y-30035000D01*
X28347847Y-30035000D01*
X28126314Y-30070088D01*
X27912991Y-30139400D01*
X27713131Y-30241234D01*
X27644587Y-30291033D01*
X28059438Y-30705884D01*
X28057374Y-30706740D01*
X27918156Y-30799762D01*
X27799762Y-30918156D01*
X27706740Y-31057374D01*
X27705884Y-31059438D01*
X27291033Y-30644587D01*
X27241234Y-30713131D01*
X27139400Y-30912991D01*
X27070088Y-31126314D01*
X27035000Y-31347847D01*
X20500500Y-31347847D01*
X20500500Y-24878710D01*
X23149500Y-24878710D01*
X23149500Y-25121289D01*
X23181161Y-25361781D01*
X23181161Y-25361786D01*
X23243944Y-25596092D01*
X23243948Y-25596105D01*
X23336772Y-25820204D01*
X23336774Y-25820208D01*
X23336776Y-25820212D01*
X23458064Y-26030289D01*
X23458066Y-26030292D01*
X23605729Y-26222731D01*
X23605731Y-26222733D01*
X23605735Y-26222738D01*
X23777262Y-26394265D01*
X23777266Y-26394268D01*
X23777268Y-26394270D01*
X23969707Y-26541933D01*
X23969711Y-26541936D01*
X24179788Y-26663224D01*
X24403900Y-26756054D01*
X24638211Y-26818838D01*
X24878712Y-26850500D01*
X24878713Y-26850500D01*
X25121287Y-26850500D01*
X25121288Y-26850500D01*
X25361789Y-26818838D01*
X25596100Y-26756054D01*
X25820212Y-26663224D01*
X26030289Y-26541936D01*
X26222738Y-26394265D01*
X26394265Y-26222738D01*
X26541936Y-26030289D01*
X26663224Y-25820212D01*
X26756054Y-25596100D01*
X26818838Y-25361789D01*
X26850500Y-25121288D01*
X26850500Y-24878712D01*
X26818838Y-24638211D01*
X26756054Y-24403900D01*
X26663224Y-24179788D01*
X26541936Y-23969711D01*
X26394265Y-23777262D01*
X26222738Y-23605735D01*
X26222733Y-23605731D01*
X26222731Y-23605729D01*
X26030292Y-23458066D01*
X26030289Y-23458064D01*
X25820212Y-23336776D01*
X25820208Y-23336774D01*
X25820204Y-23336772D01*
X25596105Y-23243948D01*
X25596104Y-23243947D01*
X25596100Y-23243946D01*
X25361789Y-23181162D01*
X25361786Y-23181161D01*
X25361784Y-23181161D01*
X25121289Y-23149500D01*
X25121288Y-23149500D01*
X24878712Y-23149500D01*
X24878710Y-23149500D01*
X24638218Y-23181161D01*
X24638213Y-23181161D01*
X24403907Y-23243944D01*
X24403894Y-23243948D01*
X24179795Y-23336772D01*
X23969707Y-23458066D01*
X23777268Y-23605729D01*
X23605729Y-23777268D01*
X23458066Y-23969707D01*
X23336772Y-24179795D01*
X23243948Y-24403894D01*
X23243944Y-24403907D01*
X23181161Y-24638213D01*
X23181161Y-24638218D01*
X23149500Y-24878710D01*
X20500500Y-24878710D01*
X20500500Y-20599500D01*
X20519407Y-20541309D01*
X20568907Y-20505345D01*
X20599500Y-20500500D01*
X114400500Y-20500500D01*
X114458691Y-20519407D01*
G37*
%TD.AperFunction*%
%TD*%
M02*
