M48
; DRILL file KiCad 10.0.6 date 2026-10-05T21:38:19
; FORMAT={-:-/ absolute / metric / decimal}
; #@! TF.CreationDate,2026-10-05T21:38:19-03:00
; #@! TF.GenerationSoftware,Kicad,Pcbnew,10.0.6
; #@! TF.FileFunction,MixedPlating,1,2
FMAT,2
METRIC
; #@! TA.AperFunction,Plated,PTH,ComponentDrill
T1C0.600
; #@! TA.AperFunction,Plated,PTH,ComponentDrill
T2C0.800
; #@! TA.AperFunction,Plated,PTH,ComponentDrill
T3C1.000
; #@! TA.AperFunction,Plated,PTH,ComponentDrill
T4C1.040
; #@! TA.AperFunction,Plated,PTH,ComponentDrill
T5C1.100
; #@! TA.AperFunction,Plated,PTH,ComponentDrill
T6C1.500
; #@! TA.AperFunction,Plated,PTH,ComponentDrill
T7C1.700
; #@! TA.AperFunction,NonPlated,NPTH,ComponentDrill
T8C3.200
%
G90
G05
T1
X41.478Y-56.988
X41.607Y-55.249
X68.885Y-65.273
X69.034Y-67.403
T2
X44.0Y-53.6
X44.0Y-58.6
X49.0Y-56.6
X49.0Y-58.6
X49.0Y-67.38
X49.0Y-75.0
X54.08Y-50.0
X54.54Y-37.0
X56.0Y-67.38
X56.0Y-75.0
X56.54Y-37.0
X59.08Y-50.0
X64.0Y-93.0
X66.0Y-93.0
T3
X24.237Y-47.46
X24.237Y-50.0
T4
X71.3Y-48.14
X71.3Y-50.68
X71.3Y-53.22
X71.3Y-55.76
X71.3Y-58.3
X71.3Y-60.84
X71.3Y-63.38
X71.3Y-65.92
X71.3Y-68.46
X71.3Y-71.0
X71.3Y-73.54
X71.3Y-76.08
X71.3Y-78.62
X71.3Y-81.16
X71.3Y-83.7
X71.3Y-86.24
X71.3Y-88.78
X71.3Y-91.32
X71.3Y-93.86
X96.7Y-48.14
X96.7Y-50.68
X96.7Y-53.22
X96.7Y-55.76
X96.7Y-58.3
X96.7Y-60.84
X96.7Y-63.38
X96.7Y-65.92
X96.7Y-68.46
X96.7Y-71.0
X96.7Y-73.54
X96.7Y-76.08
X96.7Y-78.62
X96.7Y-81.16
X96.7Y-83.7
X96.7Y-86.24
X96.7Y-88.78
X96.7Y-91.32
X96.7Y-93.86
T5
X54.0Y-46.0
X56.54Y-46.0
X59.08Y-46.0
T6
X31.0Y-34.0
T7
X28.46Y-31.46
X28.46Y-36.54
X33.54Y-31.46
X33.54Y-36.54
T8
X25.0Y-25.0
X25.0Y-95.0
X110.0Y-25.0
X110.0Y-95.0
M30
