%TF.GenerationSoftware,KiCad,Pcbnew,10.0.6*%
%TF.CreationDate,2026-10-05T21:38:19-03:00*%
%TF.ProjectId,EmisorASV,456d6973-6f72-4415-9356-2e6b69636164,rev?*%
%TF.SameCoordinates,Original*%
%TF.FileFunction,Soldermask,Bot*%
%TF.FilePolarity,Negative*%
%FSLAX46Y46*%
G04 Gerber Fmt 4.6, Leading zero omitted, Abs format (unit mm)*
G04 Created by KiCad (PCBNEW 10.0.6) date 2026-10-05 21:38:19*
%MOMM*%
%LPD*%
G01*
G04 APERTURE LIST*
G04 Aperture macros list*
%AMRoundRect*
0 Rectangle with rounded corners*
0 $1 Rounding radius*
0 $2 $3 $4 $5 $6 $7 $8 $9 X,Y pos of 4 corners*
0 Add a 4 corners polygon primitive as box body*
4,1,4,$2,$3,$4,$5,$6,$7,$8,$9,$2,$3,0*
0 Add four circle primitives for the rounded corners*
1,1,$1+$1,$2,$3*
1,1,$1+$1,$4,$5*
1,1,$1+$1,$6,$7*
1,1,$1+$1,$8,$9*
0 Add four rect primitives between the rounded corners*
20,1,$1+$1,$2,$3,$4,$5,0*
20,1,$1+$1,$4,$5,$6,$7,0*
20,1,$1+$1,$6,$7,$8,$9,0*
20,1,$1+$1,$8,$9,$2,$3,0*%
G04 Aperture macros list end*
%ADD10RoundRect,0.250000X0.550000X-0.550000X0.550000X0.550000X-0.550000X0.550000X-0.550000X-0.550000X0*%
%ADD11C,1.600000*%
%ADD12RoundRect,0.102000X-0.780000X-0.780000X0.780000X-0.780000X0.780000X0.780000X-0.780000X0.780000X0*%
%ADD13C,1.764000*%
%ADD14C,2.050000*%
%ADD15C,2.250000*%
%ADD16RoundRect,0.250000X0.550000X0.550000X-0.550000X0.550000X-0.550000X-0.550000X0.550000X-0.550000X0*%
%ADD17R,1.905000X2.000000*%
%ADD18O,1.905000X2.000000*%
%ADD19C,3.200000*%
%ADD20C,1.000000*%
%ADD21R,1.700000X1.700000*%
%ADD22C,1.700000*%
%ADD23RoundRect,0.230000X1.020000X0.270000X-1.020000X0.270000X-1.020000X-0.270000X1.020000X-0.270000X0*%
%ADD24RoundRect,0.230000X0.270000X-1.020000X0.270000X1.020000X-0.270000X1.020000X-0.270000X-1.020000X0*%
G04 APERTURE END LIST*
D10*
%TO.C,C8*%
X49000000Y-58600000D03*
D11*
X49000000Y-56600000D03*
%TD*%
%TO.C,R1*%
X49000000Y-75000000D03*
X49000000Y-67380000D03*
%TD*%
D12*
%TO.C,U3*%
X71300000Y-48140000D03*
D13*
X71300000Y-50680000D03*
X71300000Y-53220000D03*
X71300000Y-55760000D03*
X71300000Y-58300000D03*
X71300000Y-60840000D03*
X71300000Y-63380000D03*
X71300000Y-65920000D03*
X71300000Y-68460000D03*
X71300000Y-71000000D03*
X71300000Y-73540000D03*
X71300000Y-76080000D03*
X71300000Y-78620000D03*
X71300000Y-81160000D03*
X71300000Y-83700000D03*
X71300000Y-86240000D03*
X71300000Y-88780000D03*
X71300000Y-91320000D03*
X71300000Y-93860000D03*
X96700000Y-48140000D03*
X96700000Y-50680000D03*
X96700000Y-53220000D03*
X96700000Y-55760000D03*
X96700000Y-58300000D03*
X96700000Y-60840000D03*
X96700000Y-63380000D03*
X96700000Y-65920000D03*
X96700000Y-68460000D03*
X96700000Y-71000000D03*
X96700000Y-73540000D03*
X96700000Y-76080000D03*
X96700000Y-78620000D03*
X96700000Y-81160000D03*
X96700000Y-83700000D03*
X96700000Y-86240000D03*
X96700000Y-88780000D03*
X96700000Y-91320000D03*
X96700000Y-93860000D03*
%TD*%
D11*
%TO.C,R2*%
X56000000Y-75000000D03*
X56000000Y-67380000D03*
%TD*%
D14*
%TO.C,J4*%
X31000000Y-34000000D03*
D15*
X28460000Y-31460000D03*
X28460000Y-36540000D03*
X33540000Y-31460000D03*
X33540000Y-36540000D03*
%TD*%
D16*
%TO.C,C6*%
X56540000Y-37000000D03*
D11*
X54540000Y-37000000D03*
%TD*%
%TO.C,C5*%
X59080000Y-50000000D03*
X54080000Y-50000000D03*
%TD*%
D17*
%TO.C,U2*%
X54000000Y-46000000D03*
D18*
X56540000Y-46000000D03*
X59080000Y-46000000D03*
%TD*%
D16*
%TO.C,C4*%
X66000000Y-93000000D03*
D11*
X64000000Y-93000000D03*
%TD*%
%TO.C,C7*%
X44000000Y-58600000D03*
X44000000Y-53600000D03*
%TD*%
D19*
%TO.C,H2*%
X110000000Y-25000000D03*
%TD*%
D20*
%TO.C,W1*%
X41606900Y-55248800D03*
X69034200Y-67403500D03*
%TD*%
D19*
%TO.C,H3*%
X25000000Y-95000000D03*
%TD*%
D20*
%TO.C,W2*%
X41478500Y-56988200D03*
X68885200Y-65272999D03*
%TD*%
D21*
%TO.C,JP2*%
X24237000Y-50000000D03*
D22*
X24237000Y-47460000D03*
%TD*%
D19*
%TO.C,H1*%
X25000000Y-25000000D03*
%TD*%
%TO.C,H4*%
X110000000Y-95000000D03*
%TD*%
D23*
%TO.C,U4*%
X39785000Y-54300000D03*
X39785000Y-55570000D03*
X39785000Y-56840000D03*
X39785000Y-58110000D03*
X39785000Y-59380000D03*
X39785000Y-60650000D03*
X39785000Y-61920000D03*
X39785000Y-63190000D03*
X39785000Y-64460000D03*
X39785000Y-65730000D03*
X39785000Y-67000000D03*
X39785000Y-68270000D03*
D24*
X38615000Y-70329000D03*
X37345000Y-70329000D03*
D23*
X24237000Y-55570000D03*
X24237000Y-54300000D03*
%TD*%
M02*
