%TF.GenerationSoftware,KiCad,Pcbnew,10.0.6*%
%TF.CreationDate,2026-10-05T21:38:19-03:00*%
%TF.ProjectId,EmisorASV,456d6973-6f72-4415-9356-2e6b69636164,rev?*%
%TF.SameCoordinates,Original*%
%TF.FileFunction,Legend,Top*%
%TF.FilePolarity,Positive*%
%FSLAX46Y46*%
G04 Gerber Fmt 4.6, Leading zero omitted, Abs format (unit mm)*
G04 Created by KiCad (PCBNEW 10.0.6) date 2026-10-05 21:38:19*
%MOMM*%
%LPD*%
G01*
G04 APERTURE LIST*
G04 Aperture macros list*
%AMRoundRect*
0 Rectangle with rounded corners*
0 $1 Rounding radius*
0 $2 $3 $4 $5 $6 $7 $8 $9 X,Y pos of 4 corners*
0 Add a 4 corners polygon primitive as box body*
4,1,4,$2,$3,$4,$5,$6,$7,$8,$9,$2,$3,0*
0 Add four circle primitives for the rounded corners*
1,1,$1+$1,$2,$3*
1,1,$1+$1,$4,$5*
1,1,$1+$1,$6,$7*
1,1,$1+$1,$8,$9*
0 Add four rect primitives between the rounded corners*
20,1,$1+$1,$2,$3,$4,$5,0*
20,1,$1+$1,$4,$5,$6,$7,0*
20,1,$1+$1,$6,$7,$8,$9,0*
20,1,$1+$1,$8,$9,$2,$3,0*%
G04 Aperture macros list end*
%ADD10C,0.150000*%
%ADD11C,0.120000*%
%ADD12C,0.127000*%
%ADD13C,0.200000*%
%ADD14RoundRect,0.250000X0.550000X-0.550000X0.550000X0.550000X-0.550000X0.550000X-0.550000X-0.550000X0*%
%ADD15C,1.600000*%
%ADD16RoundRect,0.102000X-0.780000X-0.780000X0.780000X-0.780000X0.780000X0.780000X-0.780000X0.780000X0*%
%ADD17C,1.764000*%
%ADD18C,2.050000*%
%ADD19C,2.250000*%
%ADD20RoundRect,0.250000X0.550000X0.550000X-0.550000X0.550000X-0.550000X-0.550000X0.550000X-0.550000X0*%
%ADD21R,1.905000X2.000000*%
%ADD22O,1.905000X2.000000*%
%ADD23C,3.200000*%
%ADD24C,1.000000*%
%ADD25R,1.700000X1.700000*%
%ADD26C,1.700000*%
G04 APERTURE END LIST*
D10*
X35638095Y-25562295D02*
X35638095Y-26133723D01*
X35638095Y-26133723D02*
X35600000Y-26248009D01*
X35600000Y-26248009D02*
X35523809Y-26324200D01*
X35523809Y-26324200D02*
X35409524Y-26362295D01*
X35409524Y-26362295D02*
X35333333Y-26362295D01*
X36361905Y-25828961D02*
X36361905Y-26362295D01*
X36171429Y-25524200D02*
X35980952Y-26095628D01*
X35980952Y-26095628D02*
X36476191Y-26095628D01*
X37961905Y-25524200D02*
X37276191Y-26552771D01*
X39066667Y-25562295D02*
X39066667Y-26133723D01*
X39066667Y-26133723D02*
X39028572Y-26248009D01*
X39028572Y-26248009D02*
X38952381Y-26324200D01*
X38952381Y-26324200D02*
X38838096Y-26362295D01*
X38838096Y-26362295D02*
X38761905Y-26362295D01*
X39447620Y-26362295D02*
X39447620Y-25562295D01*
X39447620Y-25562295D02*
X39752382Y-25562295D01*
X39752382Y-25562295D02*
X39828572Y-25600390D01*
X39828572Y-25600390D02*
X39866667Y-25638485D01*
X39866667Y-25638485D02*
X39904763Y-25714676D01*
X39904763Y-25714676D02*
X39904763Y-25828961D01*
X39904763Y-25828961D02*
X39866667Y-25905152D01*
X39866667Y-25905152D02*
X39828572Y-25943247D01*
X39828572Y-25943247D02*
X39752382Y-25981342D01*
X39752382Y-25981342D02*
X39447620Y-25981342D01*
X40209524Y-25638485D02*
X40247620Y-25600390D01*
X40247620Y-25600390D02*
X40323810Y-25562295D01*
X40323810Y-25562295D02*
X40514286Y-25562295D01*
X40514286Y-25562295D02*
X40590477Y-25600390D01*
X40590477Y-25600390D02*
X40628572Y-25638485D01*
X40628572Y-25638485D02*
X40666667Y-25714676D01*
X40666667Y-25714676D02*
X40666667Y-25790866D01*
X40666667Y-25790866D02*
X40628572Y-25905152D01*
X40628572Y-25905152D02*
X40171429Y-26362295D01*
X40171429Y-26362295D02*
X40666667Y-26362295D01*
X41009525Y-26286104D02*
X41047620Y-26324200D01*
X41047620Y-26324200D02*
X41009525Y-26362295D01*
X41009525Y-26362295D02*
X40971429Y-26324200D01*
X40971429Y-26324200D02*
X41009525Y-26286104D01*
X41009525Y-26286104D02*
X41009525Y-26362295D01*
X41009525Y-25867057D02*
X41047620Y-25905152D01*
X41047620Y-25905152D02*
X41009525Y-25943247D01*
X41009525Y-25943247D02*
X40971429Y-25905152D01*
X40971429Y-25905152D02*
X41009525Y-25867057D01*
X41009525Y-25867057D02*
X41009525Y-25943247D01*
X42000001Y-26362295D02*
X42000001Y-25562295D01*
X42000001Y-25562295D02*
X42457144Y-26362295D01*
X42457144Y-26362295D02*
X42457144Y-25562295D01*
X42990477Y-25562295D02*
X43142858Y-25562295D01*
X43142858Y-25562295D02*
X43219048Y-25600390D01*
X43219048Y-25600390D02*
X43295239Y-25676580D01*
X43295239Y-25676580D02*
X43333334Y-25828961D01*
X43333334Y-25828961D02*
X43333334Y-26095628D01*
X43333334Y-26095628D02*
X43295239Y-26248009D01*
X43295239Y-26248009D02*
X43219048Y-26324200D01*
X43219048Y-26324200D02*
X43142858Y-26362295D01*
X43142858Y-26362295D02*
X42990477Y-26362295D01*
X42990477Y-26362295D02*
X42914286Y-26324200D01*
X42914286Y-26324200D02*
X42838096Y-26248009D01*
X42838096Y-26248009D02*
X42800000Y-26095628D01*
X42800000Y-26095628D02*
X42800000Y-25828961D01*
X42800000Y-25828961D02*
X42838096Y-25676580D01*
X42838096Y-25676580D02*
X42914286Y-25600390D01*
X42914286Y-25600390D02*
X42990477Y-25562295D01*
X44285715Y-26362295D02*
X44285715Y-25562295D01*
X44285715Y-25562295D02*
X44552381Y-26133723D01*
X44552381Y-26133723D02*
X44819048Y-25562295D01*
X44819048Y-25562295D02*
X44819048Y-26362295D01*
X45352382Y-25562295D02*
X45504763Y-25562295D01*
X45504763Y-25562295D02*
X45580953Y-25600390D01*
X45580953Y-25600390D02*
X45657144Y-25676580D01*
X45657144Y-25676580D02*
X45695239Y-25828961D01*
X45695239Y-25828961D02*
X45695239Y-26095628D01*
X45695239Y-26095628D02*
X45657144Y-26248009D01*
X45657144Y-26248009D02*
X45580953Y-26324200D01*
X45580953Y-26324200D02*
X45504763Y-26362295D01*
X45504763Y-26362295D02*
X45352382Y-26362295D01*
X45352382Y-26362295D02*
X45276191Y-26324200D01*
X45276191Y-26324200D02*
X45200001Y-26248009D01*
X45200001Y-26248009D02*
X45161905Y-26095628D01*
X45161905Y-26095628D02*
X45161905Y-25828961D01*
X45161905Y-25828961D02*
X45200001Y-25676580D01*
X45200001Y-25676580D02*
X45276191Y-25600390D01*
X45276191Y-25600390D02*
X45352382Y-25562295D01*
X46038096Y-26362295D02*
X46038096Y-25562295D01*
X46038096Y-25562295D02*
X46495239Y-26362295D01*
X46495239Y-26362295D02*
X46495239Y-25562295D01*
X46761905Y-25562295D02*
X47219048Y-25562295D01*
X46990476Y-26362295D02*
X46990476Y-25562295D01*
X47447619Y-26133723D02*
X47828572Y-26133723D01*
X47371429Y-26362295D02*
X47638096Y-25562295D01*
X47638096Y-25562295D02*
X47904762Y-26362295D01*
X48628572Y-26362295D02*
X48361905Y-25981342D01*
X48171429Y-26362295D02*
X48171429Y-25562295D01*
X48171429Y-25562295D02*
X48476191Y-25562295D01*
X48476191Y-25562295D02*
X48552381Y-25600390D01*
X48552381Y-25600390D02*
X48590476Y-25638485D01*
X48590476Y-25638485D02*
X48628572Y-25714676D01*
X48628572Y-25714676D02*
X48628572Y-25828961D01*
X48628572Y-25828961D02*
X48590476Y-25905152D01*
X48590476Y-25905152D02*
X48552381Y-25943247D01*
X48552381Y-25943247D02*
X48476191Y-25981342D01*
X48476191Y-25981342D02*
X48171429Y-25981342D01*
X81452381Y-96454819D02*
X81452381Y-97264342D01*
X81452381Y-97264342D02*
X81500000Y-97359580D01*
X81500000Y-97359580D02*
X81547619Y-97407200D01*
X81547619Y-97407200D02*
X81642857Y-97454819D01*
X81642857Y-97454819D02*
X81833333Y-97454819D01*
X81833333Y-97454819D02*
X81928571Y-97407200D01*
X81928571Y-97407200D02*
X81976190Y-97359580D01*
X81976190Y-97359580D02*
X82023809Y-97264342D01*
X82023809Y-97264342D02*
X82023809Y-96454819D01*
X82452381Y-97407200D02*
X82595238Y-97454819D01*
X82595238Y-97454819D02*
X82833333Y-97454819D01*
X82833333Y-97454819D02*
X82928571Y-97407200D01*
X82928571Y-97407200D02*
X82976190Y-97359580D01*
X82976190Y-97359580D02*
X83023809Y-97264342D01*
X83023809Y-97264342D02*
X83023809Y-97169104D01*
X83023809Y-97169104D02*
X82976190Y-97073866D01*
X82976190Y-97073866D02*
X82928571Y-97026247D01*
X82928571Y-97026247D02*
X82833333Y-96978628D01*
X82833333Y-96978628D02*
X82642857Y-96931009D01*
X82642857Y-96931009D02*
X82547619Y-96883390D01*
X82547619Y-96883390D02*
X82500000Y-96835771D01*
X82500000Y-96835771D02*
X82452381Y-96740533D01*
X82452381Y-96740533D02*
X82452381Y-96645295D01*
X82452381Y-96645295D02*
X82500000Y-96550057D01*
X82500000Y-96550057D02*
X82547619Y-96502438D01*
X82547619Y-96502438D02*
X82642857Y-96454819D01*
X82642857Y-96454819D02*
X82880952Y-96454819D01*
X82880952Y-96454819D02*
X83023809Y-96502438D01*
X83785714Y-96931009D02*
X83928571Y-96978628D01*
X83928571Y-96978628D02*
X83976190Y-97026247D01*
X83976190Y-97026247D02*
X84023809Y-97121485D01*
X84023809Y-97121485D02*
X84023809Y-97264342D01*
X84023809Y-97264342D02*
X83976190Y-97359580D01*
X83976190Y-97359580D02*
X83928571Y-97407200D01*
X83928571Y-97407200D02*
X83833333Y-97454819D01*
X83833333Y-97454819D02*
X83452381Y-97454819D01*
X83452381Y-97454819D02*
X83452381Y-96454819D01*
X83452381Y-96454819D02*
X83785714Y-96454819D01*
X83785714Y-96454819D02*
X83880952Y-96502438D01*
X83880952Y-96502438D02*
X83928571Y-96550057D01*
X83928571Y-96550057D02*
X83976190Y-96645295D01*
X83976190Y-96645295D02*
X83976190Y-96740533D01*
X83976190Y-96740533D02*
X83928571Y-96835771D01*
X83928571Y-96835771D02*
X83880952Y-96883390D01*
X83880952Y-96883390D02*
X83785714Y-96931009D01*
X83785714Y-96931009D02*
X83452381Y-96931009D01*
X85690476Y-96454819D02*
X85214286Y-96454819D01*
X85214286Y-96454819D02*
X85166667Y-96931009D01*
X85166667Y-96931009D02*
X85214286Y-96883390D01*
X85214286Y-96883390D02*
X85309524Y-96835771D01*
X85309524Y-96835771D02*
X85547619Y-96835771D01*
X85547619Y-96835771D02*
X85642857Y-96883390D01*
X85642857Y-96883390D02*
X85690476Y-96931009D01*
X85690476Y-96931009D02*
X85738095Y-97026247D01*
X85738095Y-97026247D02*
X85738095Y-97264342D01*
X85738095Y-97264342D02*
X85690476Y-97359580D01*
X85690476Y-97359580D02*
X85642857Y-97407200D01*
X85642857Y-97407200D02*
X85547619Y-97454819D01*
X85547619Y-97454819D02*
X85309524Y-97454819D01*
X85309524Y-97454819D02*
X85214286Y-97407200D01*
X85214286Y-97407200D02*
X85166667Y-97359580D01*
X86023810Y-96454819D02*
X86357143Y-97454819D01*
X86357143Y-97454819D02*
X86690476Y-96454819D01*
X52857143Y-96204485D02*
X53428572Y-96204485D01*
X52742857Y-96547342D02*
X53142857Y-95347342D01*
X53142857Y-95347342D02*
X53542857Y-96547342D01*
X53885714Y-96490200D02*
X54057143Y-96547342D01*
X54057143Y-96547342D02*
X54342857Y-96547342D01*
X54342857Y-96547342D02*
X54457143Y-96490200D01*
X54457143Y-96490200D02*
X54514285Y-96433057D01*
X54514285Y-96433057D02*
X54571428Y-96318771D01*
X54571428Y-96318771D02*
X54571428Y-96204485D01*
X54571428Y-96204485D02*
X54514285Y-96090200D01*
X54514285Y-96090200D02*
X54457143Y-96033057D01*
X54457143Y-96033057D02*
X54342857Y-95975914D01*
X54342857Y-95975914D02*
X54114285Y-95918771D01*
X54114285Y-95918771D02*
X54000000Y-95861628D01*
X54000000Y-95861628D02*
X53942857Y-95804485D01*
X53942857Y-95804485D02*
X53885714Y-95690200D01*
X53885714Y-95690200D02*
X53885714Y-95575914D01*
X53885714Y-95575914D02*
X53942857Y-95461628D01*
X53942857Y-95461628D02*
X54000000Y-95404485D01*
X54000000Y-95404485D02*
X54114285Y-95347342D01*
X54114285Y-95347342D02*
X54400000Y-95347342D01*
X54400000Y-95347342D02*
X54571428Y-95404485D01*
X54914285Y-95347342D02*
X55314285Y-96547342D01*
X55314285Y-96547342D02*
X55714285Y-95347342D01*
X57028571Y-95918771D02*
X57428571Y-95918771D01*
X57599999Y-96547342D02*
X57028571Y-96547342D01*
X57028571Y-96547342D02*
X57028571Y-95347342D01*
X57028571Y-95347342D02*
X57599999Y-95347342D01*
X58114285Y-96547342D02*
X58114285Y-95347342D01*
X58114285Y-95347342D02*
X58514285Y-96204485D01*
X58514285Y-96204485D02*
X58914285Y-95347342D01*
X58914285Y-95347342D02*
X58914285Y-96547342D01*
X59485714Y-96547342D02*
X59485714Y-95347342D01*
X60000000Y-96490200D02*
X60171429Y-96547342D01*
X60171429Y-96547342D02*
X60457143Y-96547342D01*
X60457143Y-96547342D02*
X60571429Y-96490200D01*
X60571429Y-96490200D02*
X60628571Y-96433057D01*
X60628571Y-96433057D02*
X60685714Y-96318771D01*
X60685714Y-96318771D02*
X60685714Y-96204485D01*
X60685714Y-96204485D02*
X60628571Y-96090200D01*
X60628571Y-96090200D02*
X60571429Y-96033057D01*
X60571429Y-96033057D02*
X60457143Y-95975914D01*
X60457143Y-95975914D02*
X60228571Y-95918771D01*
X60228571Y-95918771D02*
X60114286Y-95861628D01*
X60114286Y-95861628D02*
X60057143Y-95804485D01*
X60057143Y-95804485D02*
X60000000Y-95690200D01*
X60000000Y-95690200D02*
X60000000Y-95575914D01*
X60000000Y-95575914D02*
X60057143Y-95461628D01*
X60057143Y-95461628D02*
X60114286Y-95404485D01*
X60114286Y-95404485D02*
X60228571Y-95347342D01*
X60228571Y-95347342D02*
X60514286Y-95347342D01*
X60514286Y-95347342D02*
X60685714Y-95404485D01*
X61428571Y-95347342D02*
X61657143Y-95347342D01*
X61657143Y-95347342D02*
X61771428Y-95404485D01*
X61771428Y-95404485D02*
X61885714Y-95518771D01*
X61885714Y-95518771D02*
X61942857Y-95747342D01*
X61942857Y-95747342D02*
X61942857Y-96147342D01*
X61942857Y-96147342D02*
X61885714Y-96375914D01*
X61885714Y-96375914D02*
X61771428Y-96490200D01*
X61771428Y-96490200D02*
X61657143Y-96547342D01*
X61657143Y-96547342D02*
X61428571Y-96547342D01*
X61428571Y-96547342D02*
X61314286Y-96490200D01*
X61314286Y-96490200D02*
X61200000Y-96375914D01*
X61200000Y-96375914D02*
X61142857Y-96147342D01*
X61142857Y-96147342D02*
X61142857Y-95747342D01*
X61142857Y-95747342D02*
X61200000Y-95518771D01*
X61200000Y-95518771D02*
X61314286Y-95404485D01*
X61314286Y-95404485D02*
X61428571Y-95347342D01*
X63142857Y-96547342D02*
X62742857Y-95975914D01*
X62457143Y-96547342D02*
X62457143Y-95347342D01*
X62457143Y-95347342D02*
X62914286Y-95347342D01*
X62914286Y-95347342D02*
X63028571Y-95404485D01*
X63028571Y-95404485D02*
X63085714Y-95461628D01*
X63085714Y-95461628D02*
X63142857Y-95575914D01*
X63142857Y-95575914D02*
X63142857Y-95747342D01*
X63142857Y-95747342D02*
X63085714Y-95861628D01*
X63085714Y-95861628D02*
X63028571Y-95918771D01*
X63028571Y-95918771D02*
X62914286Y-95975914D01*
X62914286Y-95975914D02*
X62457143Y-95975914D01*
D11*
X52866667Y-57287664D02*
X52828571Y-57325760D01*
X52828571Y-57325760D02*
X52714286Y-57363855D01*
X52714286Y-57363855D02*
X52638095Y-57363855D01*
X52638095Y-57363855D02*
X52523809Y-57325760D01*
X52523809Y-57325760D02*
X52447619Y-57249569D01*
X52447619Y-57249569D02*
X52409524Y-57173379D01*
X52409524Y-57173379D02*
X52371428Y-57020998D01*
X52371428Y-57020998D02*
X52371428Y-56906712D01*
X52371428Y-56906712D02*
X52409524Y-56754331D01*
X52409524Y-56754331D02*
X52447619Y-56678140D01*
X52447619Y-56678140D02*
X52523809Y-56601950D01*
X52523809Y-56601950D02*
X52638095Y-56563855D01*
X52638095Y-56563855D02*
X52714286Y-56563855D01*
X52714286Y-56563855D02*
X52828571Y-56601950D01*
X52828571Y-56601950D02*
X52866667Y-56640045D01*
X53323809Y-56906712D02*
X53247619Y-56868617D01*
X53247619Y-56868617D02*
X53209524Y-56830521D01*
X53209524Y-56830521D02*
X53171428Y-56754331D01*
X53171428Y-56754331D02*
X53171428Y-56716236D01*
X53171428Y-56716236D02*
X53209524Y-56640045D01*
X53209524Y-56640045D02*
X53247619Y-56601950D01*
X53247619Y-56601950D02*
X53323809Y-56563855D01*
X53323809Y-56563855D02*
X53476190Y-56563855D01*
X53476190Y-56563855D02*
X53552381Y-56601950D01*
X53552381Y-56601950D02*
X53590476Y-56640045D01*
X53590476Y-56640045D02*
X53628571Y-56716236D01*
X53628571Y-56716236D02*
X53628571Y-56754331D01*
X53628571Y-56754331D02*
X53590476Y-56830521D01*
X53590476Y-56830521D02*
X53552381Y-56868617D01*
X53552381Y-56868617D02*
X53476190Y-56906712D01*
X53476190Y-56906712D02*
X53323809Y-56906712D01*
X53323809Y-56906712D02*
X53247619Y-56944807D01*
X53247619Y-56944807D02*
X53209524Y-56982902D01*
X53209524Y-56982902D02*
X53171428Y-57059093D01*
X53171428Y-57059093D02*
X53171428Y-57211474D01*
X53171428Y-57211474D02*
X53209524Y-57287664D01*
X53209524Y-57287664D02*
X53247619Y-57325760D01*
X53247619Y-57325760D02*
X53323809Y-57363855D01*
X53323809Y-57363855D02*
X53476190Y-57363855D01*
X53476190Y-57363855D02*
X53552381Y-57325760D01*
X53552381Y-57325760D02*
X53590476Y-57287664D01*
X53590476Y-57287664D02*
X53628571Y-57211474D01*
X53628571Y-57211474D02*
X53628571Y-57059093D01*
X53628571Y-57059093D02*
X53590476Y-56982902D01*
X53590476Y-56982902D02*
X53552381Y-56944807D01*
X53552381Y-56944807D02*
X53476190Y-56906712D01*
X45866667Y-72363855D02*
X45600000Y-71982902D01*
X45409524Y-72363855D02*
X45409524Y-71563855D01*
X45409524Y-71563855D02*
X45714286Y-71563855D01*
X45714286Y-71563855D02*
X45790476Y-71601950D01*
X45790476Y-71601950D02*
X45828571Y-71640045D01*
X45828571Y-71640045D02*
X45866667Y-71716236D01*
X45866667Y-71716236D02*
X45866667Y-71830521D01*
X45866667Y-71830521D02*
X45828571Y-71906712D01*
X45828571Y-71906712D02*
X45790476Y-71944807D01*
X45790476Y-71944807D02*
X45714286Y-71982902D01*
X45714286Y-71982902D02*
X45409524Y-71982902D01*
X46628571Y-72363855D02*
X46171428Y-72363855D01*
X46400000Y-72363855D02*
X46400000Y-71563855D01*
X46400000Y-71563855D02*
X46323809Y-71678140D01*
X46323809Y-71678140D02*
X46247619Y-71754331D01*
X46247619Y-71754331D02*
X46171428Y-71792426D01*
X83390476Y-41563855D02*
X83390476Y-42211474D01*
X83390476Y-42211474D02*
X83428571Y-42287664D01*
X83428571Y-42287664D02*
X83466666Y-42325760D01*
X83466666Y-42325760D02*
X83542857Y-42363855D01*
X83542857Y-42363855D02*
X83695238Y-42363855D01*
X83695238Y-42363855D02*
X83771428Y-42325760D01*
X83771428Y-42325760D02*
X83809523Y-42287664D01*
X83809523Y-42287664D02*
X83847619Y-42211474D01*
X83847619Y-42211474D02*
X83847619Y-41563855D01*
X84152380Y-41563855D02*
X84647618Y-41563855D01*
X84647618Y-41563855D02*
X84380952Y-41868617D01*
X84380952Y-41868617D02*
X84495237Y-41868617D01*
X84495237Y-41868617D02*
X84571428Y-41906712D01*
X84571428Y-41906712D02*
X84609523Y-41944807D01*
X84609523Y-41944807D02*
X84647618Y-42020998D01*
X84647618Y-42020998D02*
X84647618Y-42211474D01*
X84647618Y-42211474D02*
X84609523Y-42287664D01*
X84609523Y-42287664D02*
X84571428Y-42325760D01*
X84571428Y-42325760D02*
X84495237Y-42363855D01*
X84495237Y-42363855D02*
X84266666Y-42363855D01*
X84266666Y-42363855D02*
X84190475Y-42325760D01*
X84190475Y-42325760D02*
X84152380Y-42287664D01*
X59866667Y-72363855D02*
X59600000Y-71982902D01*
X59409524Y-72363855D02*
X59409524Y-71563855D01*
X59409524Y-71563855D02*
X59714286Y-71563855D01*
X59714286Y-71563855D02*
X59790476Y-71601950D01*
X59790476Y-71601950D02*
X59828571Y-71640045D01*
X59828571Y-71640045D02*
X59866667Y-71716236D01*
X59866667Y-71716236D02*
X59866667Y-71830521D01*
X59866667Y-71830521D02*
X59828571Y-71906712D01*
X59828571Y-71906712D02*
X59790476Y-71944807D01*
X59790476Y-71944807D02*
X59714286Y-71982902D01*
X59714286Y-71982902D02*
X59409524Y-71982902D01*
X60171428Y-71640045D02*
X60209524Y-71601950D01*
X60209524Y-71601950D02*
X60285714Y-71563855D01*
X60285714Y-71563855D02*
X60476190Y-71563855D01*
X60476190Y-71563855D02*
X60552381Y-71601950D01*
X60552381Y-71601950D02*
X60590476Y-71640045D01*
X60590476Y-71640045D02*
X60628571Y-71716236D01*
X60628571Y-71716236D02*
X60628571Y-71792426D01*
X60628571Y-71792426D02*
X60590476Y-71906712D01*
X60590476Y-71906712D02*
X60133333Y-72363855D01*
X60133333Y-72363855D02*
X60628571Y-72363855D01*
X36733333Y-33563855D02*
X36733333Y-34135283D01*
X36733333Y-34135283D02*
X36695238Y-34249569D01*
X36695238Y-34249569D02*
X36619047Y-34325760D01*
X36619047Y-34325760D02*
X36504762Y-34363855D01*
X36504762Y-34363855D02*
X36428571Y-34363855D01*
X37457143Y-33830521D02*
X37457143Y-34363855D01*
X37266667Y-33525760D02*
X37076190Y-34097188D01*
X37076190Y-34097188D02*
X37571429Y-34097188D01*
X55866667Y-32287664D02*
X55828571Y-32325760D01*
X55828571Y-32325760D02*
X55714286Y-32363855D01*
X55714286Y-32363855D02*
X55638095Y-32363855D01*
X55638095Y-32363855D02*
X55523809Y-32325760D01*
X55523809Y-32325760D02*
X55447619Y-32249569D01*
X55447619Y-32249569D02*
X55409524Y-32173379D01*
X55409524Y-32173379D02*
X55371428Y-32020998D01*
X55371428Y-32020998D02*
X55371428Y-31906712D01*
X55371428Y-31906712D02*
X55409524Y-31754331D01*
X55409524Y-31754331D02*
X55447619Y-31678140D01*
X55447619Y-31678140D02*
X55523809Y-31601950D01*
X55523809Y-31601950D02*
X55638095Y-31563855D01*
X55638095Y-31563855D02*
X55714286Y-31563855D01*
X55714286Y-31563855D02*
X55828571Y-31601950D01*
X55828571Y-31601950D02*
X55866667Y-31640045D01*
X56552381Y-31563855D02*
X56400000Y-31563855D01*
X56400000Y-31563855D02*
X56323809Y-31601950D01*
X56323809Y-31601950D02*
X56285714Y-31640045D01*
X56285714Y-31640045D02*
X56209524Y-31754331D01*
X56209524Y-31754331D02*
X56171428Y-31906712D01*
X56171428Y-31906712D02*
X56171428Y-32211474D01*
X56171428Y-32211474D02*
X56209524Y-32287664D01*
X56209524Y-32287664D02*
X56247619Y-32325760D01*
X56247619Y-32325760D02*
X56323809Y-32363855D01*
X56323809Y-32363855D02*
X56476190Y-32363855D01*
X56476190Y-32363855D02*
X56552381Y-32325760D01*
X56552381Y-32325760D02*
X56590476Y-32287664D01*
X56590476Y-32287664D02*
X56628571Y-32211474D01*
X56628571Y-32211474D02*
X56628571Y-32020998D01*
X56628571Y-32020998D02*
X56590476Y-31944807D01*
X56590476Y-31944807D02*
X56552381Y-31906712D01*
X56552381Y-31906712D02*
X56476190Y-31868617D01*
X56476190Y-31868617D02*
X56323809Y-31868617D01*
X56323809Y-31868617D02*
X56247619Y-31906712D01*
X56247619Y-31906712D02*
X56209524Y-31944807D01*
X56209524Y-31944807D02*
X56171428Y-32020998D01*
X63866667Y-50287664D02*
X63828571Y-50325760D01*
X63828571Y-50325760D02*
X63714286Y-50363855D01*
X63714286Y-50363855D02*
X63638095Y-50363855D01*
X63638095Y-50363855D02*
X63523809Y-50325760D01*
X63523809Y-50325760D02*
X63447619Y-50249569D01*
X63447619Y-50249569D02*
X63409524Y-50173379D01*
X63409524Y-50173379D02*
X63371428Y-50020998D01*
X63371428Y-50020998D02*
X63371428Y-49906712D01*
X63371428Y-49906712D02*
X63409524Y-49754331D01*
X63409524Y-49754331D02*
X63447619Y-49678140D01*
X63447619Y-49678140D02*
X63523809Y-49601950D01*
X63523809Y-49601950D02*
X63638095Y-49563855D01*
X63638095Y-49563855D02*
X63714286Y-49563855D01*
X63714286Y-49563855D02*
X63828571Y-49601950D01*
X63828571Y-49601950D02*
X63866667Y-49640045D01*
X64590476Y-49563855D02*
X64209524Y-49563855D01*
X64209524Y-49563855D02*
X64171428Y-49944807D01*
X64171428Y-49944807D02*
X64209524Y-49906712D01*
X64209524Y-49906712D02*
X64285714Y-49868617D01*
X64285714Y-49868617D02*
X64476190Y-49868617D01*
X64476190Y-49868617D02*
X64552381Y-49906712D01*
X64552381Y-49906712D02*
X64590476Y-49944807D01*
X64590476Y-49944807D02*
X64628571Y-50020998D01*
X64628571Y-50020998D02*
X64628571Y-50211474D01*
X64628571Y-50211474D02*
X64590476Y-50287664D01*
X64590476Y-50287664D02*
X64552381Y-50325760D01*
X64552381Y-50325760D02*
X64476190Y-50363855D01*
X64476190Y-50363855D02*
X64285714Y-50363855D01*
X64285714Y-50363855D02*
X64209524Y-50325760D01*
X64209524Y-50325760D02*
X64171428Y-50287664D01*
X63390476Y-44563855D02*
X63390476Y-45211474D01*
X63390476Y-45211474D02*
X63428571Y-45287664D01*
X63428571Y-45287664D02*
X63466666Y-45325760D01*
X63466666Y-45325760D02*
X63542857Y-45363855D01*
X63542857Y-45363855D02*
X63695238Y-45363855D01*
X63695238Y-45363855D02*
X63771428Y-45325760D01*
X63771428Y-45325760D02*
X63809523Y-45287664D01*
X63809523Y-45287664D02*
X63847619Y-45211474D01*
X63847619Y-45211474D02*
X63847619Y-44563855D01*
X64190475Y-44640045D02*
X64228571Y-44601950D01*
X64228571Y-44601950D02*
X64304761Y-44563855D01*
X64304761Y-44563855D02*
X64495237Y-44563855D01*
X64495237Y-44563855D02*
X64571428Y-44601950D01*
X64571428Y-44601950D02*
X64609523Y-44640045D01*
X64609523Y-44640045D02*
X64647618Y-44716236D01*
X64647618Y-44716236D02*
X64647618Y-44792426D01*
X64647618Y-44792426D02*
X64609523Y-44906712D01*
X64609523Y-44906712D02*
X64152380Y-45363855D01*
X64152380Y-45363855D02*
X64647618Y-45363855D01*
X64866667Y-98287664D02*
X64828571Y-98325760D01*
X64828571Y-98325760D02*
X64714286Y-98363855D01*
X64714286Y-98363855D02*
X64638095Y-98363855D01*
X64638095Y-98363855D02*
X64523809Y-98325760D01*
X64523809Y-98325760D02*
X64447619Y-98249569D01*
X64447619Y-98249569D02*
X64409524Y-98173379D01*
X64409524Y-98173379D02*
X64371428Y-98020998D01*
X64371428Y-98020998D02*
X64371428Y-97906712D01*
X64371428Y-97906712D02*
X64409524Y-97754331D01*
X64409524Y-97754331D02*
X64447619Y-97678140D01*
X64447619Y-97678140D02*
X64523809Y-97601950D01*
X64523809Y-97601950D02*
X64638095Y-97563855D01*
X64638095Y-97563855D02*
X64714286Y-97563855D01*
X64714286Y-97563855D02*
X64828571Y-97601950D01*
X64828571Y-97601950D02*
X64866667Y-97640045D01*
X65552381Y-97830521D02*
X65552381Y-98363855D01*
X65361905Y-97525760D02*
X65171428Y-98097188D01*
X65171428Y-98097188D02*
X65666667Y-98097188D01*
X43866667Y-51787664D02*
X43828571Y-51825760D01*
X43828571Y-51825760D02*
X43714286Y-51863855D01*
X43714286Y-51863855D02*
X43638095Y-51863855D01*
X43638095Y-51863855D02*
X43523809Y-51825760D01*
X43523809Y-51825760D02*
X43447619Y-51749569D01*
X43447619Y-51749569D02*
X43409524Y-51673379D01*
X43409524Y-51673379D02*
X43371428Y-51520998D01*
X43371428Y-51520998D02*
X43371428Y-51406712D01*
X43371428Y-51406712D02*
X43409524Y-51254331D01*
X43409524Y-51254331D02*
X43447619Y-51178140D01*
X43447619Y-51178140D02*
X43523809Y-51101950D01*
X43523809Y-51101950D02*
X43638095Y-51063855D01*
X43638095Y-51063855D02*
X43714286Y-51063855D01*
X43714286Y-51063855D02*
X43828571Y-51101950D01*
X43828571Y-51101950D02*
X43866667Y-51140045D01*
X44133333Y-51063855D02*
X44666667Y-51063855D01*
X44666667Y-51063855D02*
X44323809Y-51863855D01*
X29333333Y-47563855D02*
X29333333Y-48135283D01*
X29333333Y-48135283D02*
X29295238Y-48249569D01*
X29295238Y-48249569D02*
X29219047Y-48325760D01*
X29219047Y-48325760D02*
X29104762Y-48363855D01*
X29104762Y-48363855D02*
X29028571Y-48363855D01*
X29714286Y-48363855D02*
X29714286Y-47563855D01*
X29714286Y-47563855D02*
X30019048Y-47563855D01*
X30019048Y-47563855D02*
X30095238Y-47601950D01*
X30095238Y-47601950D02*
X30133333Y-47640045D01*
X30133333Y-47640045D02*
X30171429Y-47716236D01*
X30171429Y-47716236D02*
X30171429Y-47830521D01*
X30171429Y-47830521D02*
X30133333Y-47906712D01*
X30133333Y-47906712D02*
X30095238Y-47944807D01*
X30095238Y-47944807D02*
X30019048Y-47982902D01*
X30019048Y-47982902D02*
X29714286Y-47982902D01*
X30476190Y-47640045D02*
X30514286Y-47601950D01*
X30514286Y-47601950D02*
X30590476Y-47563855D01*
X30590476Y-47563855D02*
X30780952Y-47563855D01*
X30780952Y-47563855D02*
X30857143Y-47601950D01*
X30857143Y-47601950D02*
X30895238Y-47640045D01*
X30895238Y-47640045D02*
X30933333Y-47716236D01*
X30933333Y-47716236D02*
X30933333Y-47792426D01*
X30933333Y-47792426D02*
X30895238Y-47906712D01*
X30895238Y-47906712D02*
X30438095Y-48363855D01*
X30438095Y-48363855D02*
X30933333Y-48363855D01*
%TO.C,C8*%
X46420000Y-57560000D02*
X47960000Y-57560000D01*
X46420000Y-57600000D02*
X47960000Y-57600000D01*
X46421000Y-57520000D02*
X47960000Y-57520000D01*
X46423000Y-57480000D02*
X47960000Y-57480000D01*
X46425000Y-57440000D02*
X47960000Y-57440000D01*
X46428000Y-57400000D02*
X47960000Y-57400000D01*
X46431000Y-57360000D02*
X47960000Y-57360000D01*
X46435000Y-57320000D02*
X47960000Y-57320000D01*
X46440000Y-57280000D02*
X47960000Y-57280000D01*
X46445000Y-57240000D02*
X47960000Y-57240000D01*
X46451000Y-57200000D02*
X47960000Y-57200000D01*
X46457000Y-57160000D02*
X47960000Y-57160000D01*
X46464000Y-57120000D02*
X47960000Y-57120000D01*
X46472000Y-57080000D02*
X47960000Y-57080000D01*
X46481000Y-57040000D02*
X47960000Y-57040000D01*
X46490000Y-57000000D02*
X47960000Y-57000000D01*
X46499000Y-56960000D02*
X47960000Y-56960000D01*
X46510000Y-56920000D02*
X47960000Y-56920000D01*
X46521000Y-56880000D02*
X47960000Y-56880000D01*
X46533000Y-56840000D02*
X47960000Y-56840000D01*
X46545000Y-56800000D02*
X47960000Y-56800000D01*
X46558000Y-56760000D02*
X47960000Y-56760000D01*
X46572000Y-56720000D02*
X47960000Y-56720000D01*
X46587000Y-56680000D02*
X47960000Y-56680000D01*
X46602000Y-56640000D02*
X47960000Y-56640000D01*
X46618000Y-56600000D02*
X47960000Y-56600000D01*
X46635000Y-56560000D02*
X47960000Y-56560000D01*
X46653000Y-56520000D02*
X47960000Y-56520000D01*
X46671000Y-56480000D02*
X47960000Y-56480000D01*
X46691000Y-56440000D02*
X47960000Y-56440000D01*
X46711000Y-56400000D02*
X47960000Y-56400000D01*
X46732000Y-56360000D02*
X47960000Y-56360000D01*
X46754000Y-56320000D02*
X47960000Y-56320000D01*
X46777000Y-56280000D02*
X47960000Y-56280000D01*
X46801000Y-56240000D02*
X47960000Y-56240000D01*
X46825000Y-56200000D02*
X47960000Y-56200000D01*
X46851000Y-56160000D02*
X47960000Y-56160000D01*
X46878000Y-56120000D02*
X47960000Y-56120000D01*
X46906000Y-56080000D02*
X47960000Y-56080000D01*
X46935000Y-56040000D02*
X47960000Y-56040000D01*
X46965000Y-56000000D02*
X47960000Y-56000000D01*
X46997000Y-55960000D02*
X47960000Y-55960000D01*
X47030000Y-55920000D02*
X47960000Y-55920000D01*
X47064000Y-55880000D02*
X47960000Y-55880000D01*
X47099000Y-55840000D02*
X47960000Y-55840000D01*
X47136000Y-55800000D02*
X47960000Y-55800000D01*
X47175000Y-55760000D02*
X47960000Y-55760000D01*
X47215000Y-55720000D02*
X47960000Y-55720000D01*
X47257000Y-55680000D02*
X47960000Y-55680000D01*
X47275000Y-60154775D02*
X47775000Y-60154775D01*
X47301000Y-55640000D02*
X47960000Y-55640000D01*
X47348000Y-55600000D02*
X47960000Y-55600000D01*
X47396000Y-55560000D02*
X50604000Y-55560000D01*
X47447000Y-55520000D02*
X50553000Y-55520000D01*
X47501000Y-55480000D02*
X50499000Y-55480000D01*
X47525000Y-60404775D02*
X47525000Y-59904775D01*
X47557000Y-55440000D02*
X50443000Y-55440000D01*
X47617000Y-55400000D02*
X50383000Y-55400000D01*
X47681000Y-55360000D02*
X50319000Y-55360000D01*
X47749000Y-55320000D02*
X50251000Y-55320000D01*
X47823000Y-55280000D02*
X50177000Y-55280000D01*
X47902000Y-55240000D02*
X50098000Y-55240000D01*
X47989000Y-55200000D02*
X50011000Y-55200000D01*
X48086000Y-55160000D02*
X49914000Y-55160000D01*
X48195000Y-55120000D02*
X49805000Y-55120000D01*
X48323000Y-55080000D02*
X49677000Y-55080000D01*
X48483000Y-55040000D02*
X49517000Y-55040000D01*
X48717000Y-55000000D02*
X49283000Y-55000000D01*
X50040000Y-55600000D02*
X50652000Y-55600000D01*
X50040000Y-55640000D02*
X50699000Y-55640000D01*
X50040000Y-55680000D02*
X50743000Y-55680000D01*
X50040000Y-55720000D02*
X50785000Y-55720000D01*
X50040000Y-55760000D02*
X50825000Y-55760000D01*
X50040000Y-55800000D02*
X50864000Y-55800000D01*
X50040000Y-55840000D02*
X50901000Y-55840000D01*
X50040000Y-55880000D02*
X50936000Y-55880000D01*
X50040000Y-55920000D02*
X50970000Y-55920000D01*
X50040000Y-55960000D02*
X51003000Y-55960000D01*
X50040000Y-56000000D02*
X51035000Y-56000000D01*
X50040000Y-56040000D02*
X51065000Y-56040000D01*
X50040000Y-56080000D02*
X51094000Y-56080000D01*
X50040000Y-56120000D02*
X51122000Y-56120000D01*
X50040000Y-56160000D02*
X51149000Y-56160000D01*
X50040000Y-56200000D02*
X51175000Y-56200000D01*
X50040000Y-56240000D02*
X51199000Y-56240000D01*
X50040000Y-56280000D02*
X51223000Y-56280000D01*
X50040000Y-56320000D02*
X51246000Y-56320000D01*
X50040000Y-56360000D02*
X51268000Y-56360000D01*
X50040000Y-56400000D02*
X51289000Y-56400000D01*
X50040000Y-56440000D02*
X51309000Y-56440000D01*
X50040000Y-56480000D02*
X51329000Y-56480000D01*
X50040000Y-56520000D02*
X51347000Y-56520000D01*
X50040000Y-56560000D02*
X51365000Y-56560000D01*
X50040000Y-56600000D02*
X51382000Y-56600000D01*
X50040000Y-56640000D02*
X51398000Y-56640000D01*
X50040000Y-56680000D02*
X51413000Y-56680000D01*
X50040000Y-56720000D02*
X51428000Y-56720000D01*
X50040000Y-56760000D02*
X51442000Y-56760000D01*
X50040000Y-56800000D02*
X51455000Y-56800000D01*
X50040000Y-56840000D02*
X51467000Y-56840000D01*
X50040000Y-56880000D02*
X51479000Y-56880000D01*
X50040000Y-56920000D02*
X51490000Y-56920000D01*
X50040000Y-56960000D02*
X51501000Y-56960000D01*
X50040000Y-57000000D02*
X51510000Y-57000000D01*
X50040000Y-57040000D02*
X51519000Y-57040000D01*
X50040000Y-57080000D02*
X51528000Y-57080000D01*
X50040000Y-57120000D02*
X51536000Y-57120000D01*
X50040000Y-57160000D02*
X51543000Y-57160000D01*
X50040000Y-57200000D02*
X51549000Y-57200000D01*
X50040000Y-57240000D02*
X51555000Y-57240000D01*
X50040000Y-57280000D02*
X51560000Y-57280000D01*
X50040000Y-57320000D02*
X51565000Y-57320000D01*
X50040000Y-57360000D02*
X51569000Y-57360000D01*
X50040000Y-57400000D02*
X51572000Y-57400000D01*
X50040000Y-57440000D02*
X51575000Y-57440000D01*
X50040000Y-57480000D02*
X51577000Y-57480000D01*
X50040000Y-57520000D02*
X51579000Y-57520000D01*
X50040000Y-57560000D02*
X51580000Y-57560000D01*
X50040000Y-57600000D02*
X51580000Y-57600000D01*
X51620000Y-57600000D02*
G75*
G02*
X46380000Y-57600000I-2620000J0D01*
G01*
X46380000Y-57600000D02*
G75*
G02*
X51620000Y-57600000I2620000J0D01*
G01*
%TO.C,R1*%
X47630000Y-67920000D02*
X47960000Y-67920000D01*
X47630000Y-74460000D02*
X47630000Y-67920000D01*
X47960000Y-74460000D02*
X47630000Y-74460000D01*
X50040000Y-74460000D02*
X50370000Y-74460000D01*
X50370000Y-67920000D02*
X50040000Y-67920000D01*
X50370000Y-74460000D02*
X50370000Y-67920000D01*
%TO.C,U3*%
D12*
X70050000Y-40700000D02*
X97950000Y-40700000D01*
X70050000Y-95100000D02*
X70050000Y-40700000D01*
X97950000Y-40700000D02*
X97950000Y-95100000D01*
X97950000Y-95100000D02*
X70050000Y-95100000D01*
D13*
X68600000Y-48000000D02*
G75*
G02*
X68400000Y-48000000I-100000J0D01*
G01*
X68400000Y-48000000D02*
G75*
G02*
X68600000Y-48000000I100000J0D01*
G01*
%TO.C,R2*%
D11*
X54630000Y-67920000D02*
X54960000Y-67920000D01*
X54630000Y-74460000D02*
X54630000Y-67920000D01*
X54960000Y-74460000D02*
X54630000Y-74460000D01*
X57040000Y-74460000D02*
X57370000Y-74460000D01*
X57370000Y-67920000D02*
X57040000Y-67920000D01*
X57370000Y-74460000D02*
X57370000Y-67920000D01*
%TO.C,J4*%
X27320000Y-32200000D02*
X27320000Y-35800000D01*
X29200000Y-30320000D02*
X32800000Y-30320000D01*
X29200000Y-37680000D02*
X32800000Y-37680000D01*
X34680000Y-32200000D02*
X34680000Y-35800000D01*
%TO.C,C6*%
X52940000Y-37283000D02*
X52940000Y-36717000D01*
X52980000Y-37517000D02*
X52980000Y-36483000D01*
X53020000Y-37677000D02*
X53020000Y-36323000D01*
X53060000Y-37805000D02*
X53060000Y-36195000D01*
X53100000Y-37914000D02*
X53100000Y-36086000D01*
X53140000Y-38011000D02*
X53140000Y-35989000D01*
X53180000Y-38098000D02*
X53180000Y-35902000D01*
X53220000Y-38177000D02*
X53220000Y-35823000D01*
X53260000Y-38251000D02*
X53260000Y-35749000D01*
X53300000Y-38319000D02*
X53300000Y-35681000D01*
X53340000Y-38383000D02*
X53340000Y-35617000D01*
X53380000Y-38443000D02*
X53380000Y-35557000D01*
X53420000Y-38499000D02*
X53420000Y-35501000D01*
X53460000Y-38553000D02*
X53460000Y-35447000D01*
X53500000Y-38604000D02*
X53500000Y-35396000D01*
X53540000Y-35960000D02*
X53540000Y-35348000D01*
X53540000Y-38652000D02*
X53540000Y-38040000D01*
X53580000Y-35960000D02*
X53580000Y-35301000D01*
X53580000Y-38699000D02*
X53580000Y-38040000D01*
X53620000Y-35960000D02*
X53620000Y-35257000D01*
X53620000Y-38743000D02*
X53620000Y-38040000D01*
X53660000Y-35960000D02*
X53660000Y-35215000D01*
X53660000Y-38785000D02*
X53660000Y-38040000D01*
X53700000Y-35960000D02*
X53700000Y-35175000D01*
X53700000Y-38825000D02*
X53700000Y-38040000D01*
X53740000Y-35960000D02*
X53740000Y-35136000D01*
X53740000Y-38864000D02*
X53740000Y-38040000D01*
X53780000Y-35960000D02*
X53780000Y-35099000D01*
X53780000Y-38901000D02*
X53780000Y-38040000D01*
X53820000Y-35960000D02*
X53820000Y-35064000D01*
X53820000Y-38936000D02*
X53820000Y-38040000D01*
X53860000Y-35960000D02*
X53860000Y-35030000D01*
X53860000Y-38970000D02*
X53860000Y-38040000D01*
X53900000Y-35960000D02*
X53900000Y-34997000D01*
X53900000Y-39003000D02*
X53900000Y-38040000D01*
X53940000Y-35960000D02*
X53940000Y-34965000D01*
X53940000Y-39035000D02*
X53940000Y-38040000D01*
X53980000Y-35960000D02*
X53980000Y-34935000D01*
X53980000Y-39065000D02*
X53980000Y-38040000D01*
X54020000Y-35960000D02*
X54020000Y-34906000D01*
X54020000Y-39094000D02*
X54020000Y-38040000D01*
X54060000Y-35960000D02*
X54060000Y-34878000D01*
X54060000Y-39122000D02*
X54060000Y-38040000D01*
X54100000Y-35960000D02*
X54100000Y-34851000D01*
X54100000Y-39149000D02*
X54100000Y-38040000D01*
X54140000Y-35960000D02*
X54140000Y-34825000D01*
X54140000Y-39175000D02*
X54140000Y-38040000D01*
X54180000Y-35960000D02*
X54180000Y-34801000D01*
X54180000Y-39199000D02*
X54180000Y-38040000D01*
X54220000Y-35960000D02*
X54220000Y-34777000D01*
X54220000Y-39223000D02*
X54220000Y-38040000D01*
X54260000Y-35960000D02*
X54260000Y-34754000D01*
X54260000Y-39246000D02*
X54260000Y-38040000D01*
X54300000Y-35960000D02*
X54300000Y-34732000D01*
X54300000Y-39268000D02*
X54300000Y-38040000D01*
X54340000Y-35960000D02*
X54340000Y-34711000D01*
X54340000Y-39289000D02*
X54340000Y-38040000D01*
X54380000Y-35960000D02*
X54380000Y-34691000D01*
X54380000Y-39309000D02*
X54380000Y-38040000D01*
X54420000Y-35960000D02*
X54420000Y-34671000D01*
X54420000Y-39329000D02*
X54420000Y-38040000D01*
X54460000Y-35960000D02*
X54460000Y-34653000D01*
X54460000Y-39347000D02*
X54460000Y-38040000D01*
X54500000Y-35960000D02*
X54500000Y-34635000D01*
X54500000Y-39365000D02*
X54500000Y-38040000D01*
X54540000Y-35960000D02*
X54540000Y-34618000D01*
X54540000Y-39382000D02*
X54540000Y-38040000D01*
X54580000Y-35960000D02*
X54580000Y-34602000D01*
X54580000Y-39398000D02*
X54580000Y-38040000D01*
X54620000Y-35960000D02*
X54620000Y-34587000D01*
X54620000Y-39413000D02*
X54620000Y-38040000D01*
X54660000Y-35960000D02*
X54660000Y-34572000D01*
X54660000Y-39428000D02*
X54660000Y-38040000D01*
X54700000Y-35960000D02*
X54700000Y-34558000D01*
X54700000Y-39442000D02*
X54700000Y-38040000D01*
X54740000Y-35960000D02*
X54740000Y-34545000D01*
X54740000Y-39455000D02*
X54740000Y-38040000D01*
X54780000Y-35960000D02*
X54780000Y-34533000D01*
X54780000Y-39467000D02*
X54780000Y-38040000D01*
X54820000Y-35960000D02*
X54820000Y-34521000D01*
X54820000Y-39479000D02*
X54820000Y-38040000D01*
X54860000Y-35960000D02*
X54860000Y-34510000D01*
X54860000Y-39490000D02*
X54860000Y-38040000D01*
X54900000Y-35960000D02*
X54900000Y-34499000D01*
X54900000Y-39501000D02*
X54900000Y-38040000D01*
X54940000Y-35960000D02*
X54940000Y-34490000D01*
X54940000Y-39510000D02*
X54940000Y-38040000D01*
X54980000Y-35960000D02*
X54980000Y-34481000D01*
X54980000Y-39519000D02*
X54980000Y-38040000D01*
X55020000Y-35960000D02*
X55020000Y-34472000D01*
X55020000Y-39528000D02*
X55020000Y-38040000D01*
X55060000Y-35960000D02*
X55060000Y-34464000D01*
X55060000Y-39536000D02*
X55060000Y-38040000D01*
X55100000Y-35960000D02*
X55100000Y-34457000D01*
X55100000Y-39543000D02*
X55100000Y-38040000D01*
X55140000Y-35960000D02*
X55140000Y-34451000D01*
X55140000Y-39549000D02*
X55140000Y-38040000D01*
X55180000Y-35960000D02*
X55180000Y-34445000D01*
X55180000Y-39555000D02*
X55180000Y-38040000D01*
X55220000Y-35960000D02*
X55220000Y-34440000D01*
X55220000Y-39560000D02*
X55220000Y-38040000D01*
X55260000Y-35960000D02*
X55260000Y-34435000D01*
X55260000Y-39565000D02*
X55260000Y-38040000D01*
X55300000Y-35960000D02*
X55300000Y-34431000D01*
X55300000Y-39569000D02*
X55300000Y-38040000D01*
X55340000Y-35960000D02*
X55340000Y-34428000D01*
X55340000Y-39572000D02*
X55340000Y-38040000D01*
X55380000Y-35960000D02*
X55380000Y-34425000D01*
X55380000Y-39575000D02*
X55380000Y-38040000D01*
X55420000Y-35960000D02*
X55420000Y-34423000D01*
X55420000Y-39577000D02*
X55420000Y-38040000D01*
X55460000Y-35960000D02*
X55460000Y-34421000D01*
X55460000Y-39579000D02*
X55460000Y-38040000D01*
X55500000Y-35960000D02*
X55500000Y-34420000D01*
X55500000Y-39580000D02*
X55500000Y-38040000D01*
X55540000Y-35960000D02*
X55540000Y-34420000D01*
X55540000Y-39580000D02*
X55540000Y-38040000D01*
X58094775Y-38725000D02*
X58094775Y-38225000D01*
X58344775Y-38475000D02*
X57844775Y-38475000D01*
X58160000Y-37000000D02*
G75*
G02*
X52920000Y-37000000I-2620000J0D01*
G01*
X52920000Y-37000000D02*
G75*
G02*
X58160000Y-37000000I2620000J0D01*
G01*
%TO.C,C5*%
X53960000Y-48630000D02*
X59200000Y-48630000D01*
X53960000Y-48967000D02*
X53960000Y-48630000D01*
X53960000Y-51370000D02*
X53960000Y-51033000D01*
X59200000Y-48630000D02*
X59200000Y-48967000D01*
X59200000Y-51033000D02*
X59200000Y-51370000D01*
X59200000Y-51370000D02*
X53960000Y-51370000D01*
%TO.C,U2*%
X51430000Y-42740000D02*
X61650000Y-42740000D01*
X51430000Y-44120000D02*
X61650000Y-44120000D01*
X51430000Y-47360000D02*
X51430000Y-42740000D01*
X54690000Y-42740000D02*
X54690000Y-44120000D01*
X58390000Y-42740000D02*
X58390000Y-44120000D01*
X61650000Y-42740000D02*
X61650000Y-47360000D01*
X61650000Y-47360000D02*
X51430000Y-47360000D01*
%TO.C,C4*%
X62400000Y-93283000D02*
X62400000Y-92717000D01*
X62440000Y-93517000D02*
X62440000Y-92483000D01*
X62480000Y-93677000D02*
X62480000Y-92323000D01*
X62520000Y-93805000D02*
X62520000Y-92195000D01*
X62560000Y-93914000D02*
X62560000Y-92086000D01*
X62600000Y-94011000D02*
X62600000Y-91989000D01*
X62640000Y-94098000D02*
X62640000Y-91902000D01*
X62680000Y-94177000D02*
X62680000Y-91823000D01*
X62720000Y-94251000D02*
X62720000Y-91749000D01*
X62760000Y-94319000D02*
X62760000Y-91681000D01*
X62800000Y-94383000D02*
X62800000Y-91617000D01*
X62840000Y-94443000D02*
X62840000Y-91557000D01*
X62880000Y-94499000D02*
X62880000Y-91501000D01*
X62920000Y-94553000D02*
X62920000Y-91447000D01*
X62960000Y-94604000D02*
X62960000Y-91396000D01*
X63000000Y-91960000D02*
X63000000Y-91348000D01*
X63000000Y-94652000D02*
X63000000Y-94040000D01*
X63040000Y-91960000D02*
X63040000Y-91301000D01*
X63040000Y-94699000D02*
X63040000Y-94040000D01*
X63080000Y-91960000D02*
X63080000Y-91257000D01*
X63080000Y-94743000D02*
X63080000Y-94040000D01*
X63120000Y-91960000D02*
X63120000Y-91215000D01*
X63120000Y-94785000D02*
X63120000Y-94040000D01*
X63160000Y-91960000D02*
X63160000Y-91175000D01*
X63160000Y-94825000D02*
X63160000Y-94040000D01*
X63200000Y-91960000D02*
X63200000Y-91136000D01*
X63200000Y-94864000D02*
X63200000Y-94040000D01*
X63240000Y-91960000D02*
X63240000Y-91099000D01*
X63240000Y-94901000D02*
X63240000Y-94040000D01*
X63280000Y-91960000D02*
X63280000Y-91064000D01*
X63280000Y-94936000D02*
X63280000Y-94040000D01*
X63320000Y-91960000D02*
X63320000Y-91030000D01*
X63320000Y-94970000D02*
X63320000Y-94040000D01*
X63360000Y-91960000D02*
X63360000Y-90997000D01*
X63360000Y-95003000D02*
X63360000Y-94040000D01*
X63400000Y-91960000D02*
X63400000Y-90965000D01*
X63400000Y-95035000D02*
X63400000Y-94040000D01*
X63440000Y-91960000D02*
X63440000Y-90935000D01*
X63440000Y-95065000D02*
X63440000Y-94040000D01*
X63480000Y-91960000D02*
X63480000Y-90906000D01*
X63480000Y-95094000D02*
X63480000Y-94040000D01*
X63520000Y-91960000D02*
X63520000Y-90878000D01*
X63520000Y-95122000D02*
X63520000Y-94040000D01*
X63560000Y-91960000D02*
X63560000Y-90851000D01*
X63560000Y-95149000D02*
X63560000Y-94040000D01*
X63600000Y-91960000D02*
X63600000Y-90825000D01*
X63600000Y-95175000D02*
X63600000Y-94040000D01*
X63640000Y-91960000D02*
X63640000Y-90801000D01*
X63640000Y-95199000D02*
X63640000Y-94040000D01*
X63680000Y-91960000D02*
X63680000Y-90777000D01*
X63680000Y-95223000D02*
X63680000Y-94040000D01*
X63720000Y-91960000D02*
X63720000Y-90754000D01*
X63720000Y-95246000D02*
X63720000Y-94040000D01*
X63760000Y-91960000D02*
X63760000Y-90732000D01*
X63760000Y-95268000D02*
X63760000Y-94040000D01*
X63800000Y-91960000D02*
X63800000Y-90711000D01*
X63800000Y-95289000D02*
X63800000Y-94040000D01*
X63840000Y-91960000D02*
X63840000Y-90691000D01*
X63840000Y-95309000D02*
X63840000Y-94040000D01*
X63880000Y-91960000D02*
X63880000Y-90671000D01*
X63880000Y-95329000D02*
X63880000Y-94040000D01*
X63920000Y-91960000D02*
X63920000Y-90653000D01*
X63920000Y-95347000D02*
X63920000Y-94040000D01*
X63960000Y-91960000D02*
X63960000Y-90635000D01*
X63960000Y-95365000D02*
X63960000Y-94040000D01*
X64000000Y-91960000D02*
X64000000Y-90618000D01*
X64000000Y-95382000D02*
X64000000Y-94040000D01*
X64040000Y-91960000D02*
X64040000Y-90602000D01*
X64040000Y-95398000D02*
X64040000Y-94040000D01*
X64080000Y-91960000D02*
X64080000Y-90587000D01*
X64080000Y-95413000D02*
X64080000Y-94040000D01*
X64120000Y-91960000D02*
X64120000Y-90572000D01*
X64120000Y-95428000D02*
X64120000Y-94040000D01*
X64160000Y-91960000D02*
X64160000Y-90558000D01*
X64160000Y-95442000D02*
X64160000Y-94040000D01*
X64200000Y-91960000D02*
X64200000Y-90545000D01*
X64200000Y-95455000D02*
X64200000Y-94040000D01*
X64240000Y-91960000D02*
X64240000Y-90533000D01*
X64240000Y-95467000D02*
X64240000Y-94040000D01*
X64280000Y-91960000D02*
X64280000Y-90521000D01*
X64280000Y-95479000D02*
X64280000Y-94040000D01*
X64320000Y-91960000D02*
X64320000Y-90510000D01*
X64320000Y-95490000D02*
X64320000Y-94040000D01*
X64360000Y-91960000D02*
X64360000Y-90499000D01*
X64360000Y-95501000D02*
X64360000Y-94040000D01*
X64400000Y-91960000D02*
X64400000Y-90490000D01*
X64400000Y-95510000D02*
X64400000Y-94040000D01*
X64440000Y-91960000D02*
X64440000Y-90481000D01*
X64440000Y-95519000D02*
X64440000Y-94040000D01*
X64480000Y-91960000D02*
X64480000Y-90472000D01*
X64480000Y-95528000D02*
X64480000Y-94040000D01*
X64520000Y-91960000D02*
X64520000Y-90464000D01*
X64520000Y-95536000D02*
X64520000Y-94040000D01*
X64560000Y-91960000D02*
X64560000Y-90457000D01*
X64560000Y-95543000D02*
X64560000Y-94040000D01*
X64600000Y-91960000D02*
X64600000Y-90451000D01*
X64600000Y-95549000D02*
X64600000Y-94040000D01*
X64640000Y-91960000D02*
X64640000Y-90445000D01*
X64640000Y-95555000D02*
X64640000Y-94040000D01*
X64680000Y-91960000D02*
X64680000Y-90440000D01*
X64680000Y-95560000D02*
X64680000Y-94040000D01*
X64720000Y-91960000D02*
X64720000Y-90435000D01*
X64720000Y-95565000D02*
X64720000Y-94040000D01*
X64760000Y-91960000D02*
X64760000Y-90431000D01*
X64760000Y-95569000D02*
X64760000Y-94040000D01*
X64800000Y-91960000D02*
X64800000Y-90428000D01*
X64800000Y-95572000D02*
X64800000Y-94040000D01*
X64840000Y-91960000D02*
X64840000Y-90425000D01*
X64840000Y-95575000D02*
X64840000Y-94040000D01*
X64880000Y-91960000D02*
X64880000Y-90423000D01*
X64880000Y-95577000D02*
X64880000Y-94040000D01*
X64920000Y-91960000D02*
X64920000Y-90421000D01*
X64920000Y-95579000D02*
X64920000Y-94040000D01*
X64960000Y-91960000D02*
X64960000Y-90420000D01*
X64960000Y-95580000D02*
X64960000Y-94040000D01*
X65000000Y-91960000D02*
X65000000Y-90420000D01*
X65000000Y-95580000D02*
X65000000Y-94040000D01*
X67554775Y-94725000D02*
X67554775Y-94225000D01*
X67804775Y-94475000D02*
X67304775Y-94475000D01*
X67620000Y-93000000D02*
G75*
G02*
X62380000Y-93000000I-2620000J0D01*
G01*
X62380000Y-93000000D02*
G75*
G02*
X67620000Y-93000000I2620000J0D01*
G01*
%TO.C,C7*%
X42630000Y-53480000D02*
X42967000Y-53480000D01*
X42630000Y-58720000D02*
X42630000Y-53480000D01*
X42967000Y-58720000D02*
X42630000Y-58720000D01*
X45033000Y-53480000D02*
X45370000Y-53480000D01*
X45370000Y-53480000D02*
X45370000Y-58720000D01*
X45370000Y-58720000D02*
X45033000Y-58720000D01*
%TO.C,JP2*%
X22857000Y-48730000D02*
X22857000Y-46080000D01*
X25617000Y-46080000D02*
X22857000Y-46080000D01*
X25617000Y-48730000D02*
X22857000Y-48730000D01*
X25617000Y-48730000D02*
X25617000Y-46080000D01*
X25617000Y-50000000D02*
X25617000Y-51380000D01*
X25617000Y-51380000D02*
X24237000Y-51380000D01*
%TD*%
%LPC*%
D14*
%TO.C,C8*%
X49000000Y-58600000D03*
D15*
X49000000Y-56600000D03*
%TD*%
%TO.C,R1*%
X49000000Y-75000000D03*
X49000000Y-67380000D03*
%TD*%
D16*
%TO.C,U3*%
X71300000Y-48140000D03*
D17*
X71300000Y-50680000D03*
X71300000Y-53220000D03*
X71300000Y-55760000D03*
X71300000Y-58300000D03*
X71300000Y-60840000D03*
X71300000Y-63380000D03*
X71300000Y-65920000D03*
X71300000Y-68460000D03*
X71300000Y-71000000D03*
X71300000Y-73540000D03*
X71300000Y-76080000D03*
X71300000Y-78620000D03*
X71300000Y-81160000D03*
X71300000Y-83700000D03*
X71300000Y-86240000D03*
X71300000Y-88780000D03*
X71300000Y-91320000D03*
X71300000Y-93860000D03*
X96700000Y-48140000D03*
X96700000Y-50680000D03*
X96700000Y-53220000D03*
X96700000Y-55760000D03*
X96700000Y-58300000D03*
X96700000Y-60840000D03*
X96700000Y-63380000D03*
X96700000Y-65920000D03*
X96700000Y-68460000D03*
X96700000Y-71000000D03*
X96700000Y-73540000D03*
X96700000Y-76080000D03*
X96700000Y-78620000D03*
X96700000Y-81160000D03*
X96700000Y-83700000D03*
X96700000Y-86240000D03*
X96700000Y-88780000D03*
X96700000Y-91320000D03*
X96700000Y-93860000D03*
%TD*%
D15*
%TO.C,R2*%
X56000000Y-75000000D03*
X56000000Y-67380000D03*
%TD*%
D18*
%TO.C,J4*%
X31000000Y-34000000D03*
D19*
X28460000Y-31460000D03*
X28460000Y-36540000D03*
X33540000Y-31460000D03*
X33540000Y-36540000D03*
%TD*%
D20*
%TO.C,C6*%
X56540000Y-37000000D03*
D15*
X54540000Y-37000000D03*
%TD*%
%TO.C,C5*%
X59080000Y-50000000D03*
X54080000Y-50000000D03*
%TD*%
D21*
%TO.C,U2*%
X54000000Y-46000000D03*
D22*
X56540000Y-46000000D03*
X59080000Y-46000000D03*
%TD*%
D20*
%TO.C,C4*%
X66000000Y-93000000D03*
D15*
X64000000Y-93000000D03*
%TD*%
%TO.C,C7*%
X44000000Y-58600000D03*
X44000000Y-53600000D03*
%TD*%
D23*
%TO.C,H2*%
X110000000Y-25000000D03*
%TD*%
D24*
%TO.C,W1*%
X41606900Y-55248800D03*
X69034200Y-67403500D03*
%TD*%
D23*
%TO.C,H3*%
X25000000Y-95000000D03*
%TD*%
D24*
%TO.C,W2*%
X41478500Y-56988200D03*
X68885200Y-65272999D03*
%TD*%
D25*
%TO.C,JP2*%
X24237000Y-50000000D03*
D26*
X24237000Y-47460000D03*
%TD*%
D23*
%TO.C,H1*%
X25000000Y-25000000D03*
%TD*%
%TO.C,H4*%
X110000000Y-95000000D03*
%TD*%
%LPD*%
M02*
